<svg width="125" height="74" viewBox="0 0 125 74" fill="none" xmlns="http://www.w3.org/2000/svg">
<g clip-path="url(#clip0_4899_30717)">
<path d="M26.6973 32.1152V36H14.5283V32.1152H26.6973ZM16.1387 11.8281V36H11.1582V11.8281H16.1387ZM46.1125 32.1152V36H33.2463V32.1152H46.1125ZM34.8732 11.8281V36H29.8927V11.8281H34.8732ZM44.4357 21.6729V25.458H33.2463V21.6729H44.4357ZM46.0959 11.8281V15.7295H33.2463V11.8281H46.0959ZM59.1859 15.9619L52.6116 36H47.3157L56.2972 11.8281H59.6673L59.1859 15.9619ZM64.6478 36L58.057 15.9619L57.5257 11.8281H60.929L69.9603 36H64.6478ZM64.3489 27.002V30.9033H51.5823V27.002H64.3489ZM72.5415 11.8281H81.5561C83.4044 11.8281 84.9927 12.1048 86.3208 12.6582C87.66 13.2116 88.6893 14.0306 89.4087 15.1152C90.1281 16.1999 90.4878 17.5335 90.4878 19.1162C90.4878 20.4111 90.2664 21.5234 89.8237 22.4531C89.3921 23.3717 88.7778 24.141 87.9809 24.7607C87.1951 25.3695 86.271 25.8564 85.2085 26.2217L83.6313 27.0518H75.7954L75.7622 23.167H81.5893C82.4637 23.167 83.1886 23.012 83.7641 22.7021C84.3397 22.3923 84.7713 21.9606 85.0591 21.4072C85.3579 20.8538 85.5073 20.2119 85.5073 19.4814C85.5073 18.7067 85.3634 18.0371 85.0757 17.4727C84.7879 16.9082 84.3507 16.4766 83.7641 16.1777C83.1776 15.8789 82.4415 15.7295 81.5561 15.7295H77.522V36H72.5415V11.8281ZM86.0552 36L80.5434 25.2256L85.8061 25.1924L91.3843 35.7676V36H86.0552ZM114.336 11.8281V36H109.355L99.6432 19.7969V36H94.6627V11.8281H99.6432L109.372 28.0479V11.8281H114.336ZM13.6966 56.2563L16.1555 47.6119H17.3466L16.6575 50.9727L14.0114 60H12.8287L13.6966 56.2563ZM11.1526 47.6119L13.1095 56.0862L13.6966 60H12.5224L9.51901 47.6119H11.1526ZM20.5287 56.0777L22.4431 47.6119H24.0852L21.0903 60H19.9162L20.5287 56.0777ZM17.5253 47.6119L19.9162 56.2563L20.784 60H19.6013L17.0489 50.9727L16.3512 47.6119H17.5253ZM27.5522 50.794V60H25.9696V50.794H27.5522ZM25.8505 48.3521C25.8505 48.0969 25.9271 47.8813 26.0802 47.7055C26.2391 47.5297 26.4716 47.4417 26.7779 47.4417C27.0786 47.4417 27.3083 47.5297 27.4671 47.7055C27.6316 47.8813 27.7138 48.0969 27.7138 48.3521C27.7138 48.596 27.6316 48.8059 27.4671 48.9817C27.3083 49.1519 27.0786 49.237 26.7779 49.237C26.4716 49.237 26.2391 49.1519 26.0802 48.9817C25.9271 48.8059 25.8505 48.596 25.8505 48.3521ZM34.1077 50.794V52.0022H29.1303V50.794H34.1077ZM30.8149 48.5563H32.389V57.7198C32.389 58.0317 32.4372 58.2671 32.5336 58.426C32.63 58.5848 32.7548 58.6897 32.908 58.7408C33.0611 58.7918 33.2256 58.8173 33.4015 58.8173C33.5319 58.8173 33.6681 58.806 33.8099 58.7833C33.9573 58.755 34.068 58.7323 34.1417 58.7152L34.1502 60C34.0254 60.0397 33.8609 60.0766 33.6567 60.1106C33.4582 60.1503 33.2171 60.1702 32.9335 60.1702C32.5478 60.1702 32.1933 60.0936 31.87 59.9404C31.5467 59.7873 31.2886 59.532 31.0957 59.1747C30.9085 58.8117 30.8149 58.3239 30.8149 57.7113V48.5563ZM37.7022 46.9312V60H36.1282V46.9312H37.7022ZM37.3279 55.0482L36.6727 55.0226C36.6784 54.393 36.772 53.8116 36.9535 53.2784C37.135 52.7396 37.3903 52.2716 37.7193 51.8746C38.0482 51.4775 38.4396 51.1712 38.8934 50.9557C39.3529 50.7345 39.8605 50.6239 40.4164 50.6239C40.8702 50.6239 41.2786 50.6862 41.6416 50.811C42.0046 50.9302 42.3137 51.123 42.569 51.3896C42.8299 51.6562 43.0284 52.0022 43.1646 52.4276C43.3007 52.8474 43.3688 53.3607 43.3688 53.9676V60H41.7862V53.9506C41.7862 53.4685 41.7153 53.0828 41.5735 52.7935C41.4317 52.4985 41.2247 52.2858 40.9524 52.1553C40.6801 52.0192 40.3455 51.9511 39.9484 51.9511C39.5571 51.9511 39.1997 52.0334 38.8764 52.1979C38.5587 52.3624 38.2836 52.5893 38.0511 52.8786C37.8242 53.1678 37.6455 53.4997 37.5151 53.874C37.3903 54.2427 37.3279 54.6341 37.3279 55.0482ZM58.7259 52.9381V54.2739H52.0214V52.9381H58.7259ZM52.2766 47.6119V60H50.6345V47.6119H52.2766ZM60.1553 47.6119V60H58.5217V47.6119H60.1553ZM70.3353 47.6119H71.9689V55.9926C71.9689 56.9228 71.7619 57.6971 71.3478 58.3154C70.9337 58.9336 70.3835 59.3987 69.6972 59.7107C69.0165 60.017 68.2763 60.1702 67.4765 60.1702C66.637 60.1702 65.877 60.017 65.1963 59.7107C64.5213 59.3987 63.9853 58.9336 63.5882 58.3154C63.1969 57.6971 63.0012 56.9228 63.0012 55.9926V47.6119H64.6263V55.9926C64.6263 56.6392 64.7454 57.1724 64.9836 57.5922C65.2218 58.0119 65.5537 58.3239 65.9791 58.5281C66.4102 58.7323 66.9093 58.8344 67.4765 58.8344C68.0494 58.8344 68.5486 58.7323 68.974 58.5281C69.4051 58.3239 69.7397 58.0119 69.978 57.5922C70.2162 57.1724 70.3353 56.6392 70.3353 55.9926V47.6119ZM76.3633 47.6119V60H74.7212V47.6119H76.3633ZM81.5533 53.1849V54.5292H76.0059V53.1849H81.5533ZM82.3957 47.6119V48.9562H76.0059V47.6119H82.3957ZM89.2745 47.6119V60H87.6579V47.6119H89.2745ZM93.2563 47.6119V48.9562H83.6845V47.6119H93.2563Z" fill="#49330E"/>
<path d="M101.569 50.4426C101.569 50.4426 101.638 50.6434 101.706 50.9112C102.188 50.8442 104.458 50.6434 105.49 49.1709C105.421 49.037 105.421 48.9031 105.352 48.7692C105.283 47.5644 105.008 46.8281 105.008 46.7612C105.558 45.1548 104.595 43.95 104.595 43.95L103.976 45.4894C103.908 45.4225 103.908 45.4225 103.908 45.4225C103.632 45.2217 103.288 45.0878 103.22 45.0878C103.082 45.0878 103.013 45.0209 102.876 45.0209C102.05 44.8201 101.362 45.0209 100.812 45.6903C100.674 45.8911 100.399 46.2257 100.262 46.4935C100.124 46.8281 99.849 47.0289 99.5051 47.0289C99.2987 47.0289 98.9548 47.0959 98.7484 47.0959C98.3357 47.0959 98.1981 47.3636 98.2669 47.6983C98.4045 48.3676 98.4733 48.6354 99.1611 48.9031C99.2987 48.9701 100.055 49.1709 100.193 49.2378C100.95 49.5725 101.294 49.8402 101.569 50.4426Z" fill="#49330E"/>
<path d="M113.976 54.5379C114.356 53.942 114.356 53.346 114.166 52.6838C114.039 52.3527 113.912 52.0216 113.786 51.7568C114.483 50.8959 114.546 49.9689 114.166 49.3067C114.166 49.2405 114.039 49.3067 114.039 49.3067C114.039 49.5053 114.103 49.9027 114.103 50.1013C114.039 50.7635 113.659 51.4257 113.025 51.2932C111.947 50.9621 110.806 50.8959 109.665 51.0284C108.904 51.0946 108.143 51.0946 107.446 51.0284C106.685 50.9621 106.115 50.6311 105.671 50.0351C105.608 49.9689 105.481 49.6378 105.354 49.2405C104.783 50.0351 103.896 50.4324 103.199 50.6311C102.565 50.8297 102.057 50.8959 101.867 50.8959C101.867 50.9621 101.867 51.0946 101.931 51.1608C101.994 51.7568 101.994 52.3527 102.057 52.9487C102.184 53.8757 102.565 54.6041 103.325 55.1339C103.515 55.2663 103.769 55.3987 103.959 55.5974C104.213 55.7961 104.403 55.9947 104.657 56.2596C105.227 56.7893 105.417 57.5177 105.354 58.3123C105.354 58.6434 105.291 58.8421 104.974 58.9745C104.847 59.0407 104.657 59.107 104.53 59.1732C104.466 59.1732 104.149 59.3718 103.959 59.7691C103.959 59.8354 103.959 59.9678 104.023 59.9678H105.1C105.164 59.9678 105.544 59.5705 105.544 59.5043L105.608 59.438C106.115 58.7096 106.178 57.3191 105.734 56.5245C105.544 56.1934 105.417 55.7961 105.417 55.465C105.417 55.0014 105.544 54.6041 105.734 54.273C105.925 53.8757 105.925 53.8095 105.544 53.6109C105.291 53.4784 105.164 53.346 105.164 53.0811C105.164 52.9487 105.1 52.75 105.1 52.6176C105.291 52.4852 105.544 52.4189 105.671 52.2865C105.861 52.0216 106.115 51.9554 106.368 51.9554C106.685 51.8892 106.685 51.8892 106.749 51.5581C106.749 51.4919 106.812 51.4257 106.875 51.227C107.002 51.4919 107.066 51.6243 107.129 51.7568C107.256 52.0216 107.383 52.2865 107.509 52.4852C107.763 52.8162 107.89 53.0811 107.89 53.4784C107.89 53.8757 108.08 54.0744 108.397 54.2068C108.904 54.4055 109.348 54.6041 109.855 54.869C110.869 55.465 111.694 56.3258 112.137 57.4515C112.328 57.9812 112.264 58.511 112.011 59.0407C111.884 59.3056 111.757 59.6367 111.313 59.5043C111.186 59.438 111.06 59.6367 111.06 59.7691C111.06 59.9678 111.186 59.9678 111.313 60.034C111.44 60.034 111.567 60.034 111.694 60.034C111.884 59.9678 112.011 59.9678 112.201 60.034C112.708 60.2327 113.215 59.9678 113.469 59.438C113.659 59.0407 113.722 58.6434 113.976 58.2461C114.293 57.7164 114.293 57.3191 113.912 56.8555C113.786 56.6569 113.659 56.4582 113.595 56.2596C113.469 55.8623 113.469 55.5312 113.595 55.1339C113.786 54.9352 113.849 54.7366 113.976 54.5379ZM113.469 58.1799C113.469 58.6434 113.279 59.0407 113.088 59.438C112.962 59.6367 112.835 59.6367 112.454 59.438C112.645 58.8421 112.835 58.1799 113.025 57.5839C113.405 57.7826 113.532 57.8488 113.469 58.1799Z" fill="#49330E"/>
</g>
<defs>
<clipPath id="clip0_4899_30717">
<rect width="125" height="74" fill="white"/>
</clipPath>
</defs>
</svg>
