<svg width="15" height="17" viewBox="0 0 15 17" fill="none" xmlns="http://www.w3.org/2000/svg">
<path d="M10.9093 10.8348C12.0015 9.90653 12.7611 8.58917 12.9224 7.06689C13.2606 3.8736 10.8587 0.982821 7.55843 0.633246C4.25816 0.283671 1.30392 2.60711 0.965681 5.8004C0.627437 8.99369 3.02937 11.8845 6.32963 12.234C7.67319 12.3764 8.95392 12.0785 10.0317 11.4584L14.0203 16.2424C14.1174 16.3588 14.2471 16.4256 14.3823 16.44C14.5176 16.4543 14.6674 16.4171 14.7777 16.3226C15.0065 16.1433 15.0417 15.8109 14.8565 15.579L10.9093 10.8348ZM2.04773 5.91501C2.32482 3.29914 4.74209 1.39656 7.44722 1.68309C10.1434 1.96868 12.1183 4.32766 11.8403 6.95228C11.5623 9.57689 9.14597 11.4707 6.44083 11.1842C3.7357 10.8977 1.77065 8.53089 2.04773 5.91501Z" fill="#7E7E7E"/>
<path d="M10.9093 10.8348C12.0015 9.90653 12.7611 8.58917 12.9224 7.06689C13.2606 3.8736 10.8587 0.982821 7.55843 0.633246C4.25816 0.283671 1.30392 2.60711 0.965681 5.8004C0.627437 8.99369 3.02937 11.8845 6.32963 12.234C7.67319 12.3764 8.95392 12.0785 10.0317 11.4584L14.0203 16.2424C14.1174 16.3588 14.2471 16.4256 14.3823 16.44C14.5176 16.4543 14.6674 16.4171 14.7777 16.3226C15.0065 16.1433 15.0417 15.8109 14.8565 15.579L10.9093 10.8348ZM2.04773 5.91501C2.32482 3.29914 4.74209 1.39656 7.44722 1.68309C10.1434 1.96868 12.1183 4.32766 11.8403 6.95228C11.5623 9.57689 9.14597 11.4707 6.44083 11.1842C3.7357 10.8977 1.77065 8.53089 2.04773 5.91501Z" stroke="black"/>
</svg>
