<svg width="22" height="21" viewBox="0 0 22 21" fill="none" xmlns="http://www.w3.org/2000/svg">
<path fill-rule="evenodd" clip-rule="evenodd" d="M0.386762 0.0843749C0.171188 0.195277 -0.000687067 0.468558 0.000988713 0.697839C0.00244965 0.901898 0.14618 1.17075 0.306496 1.26932C0.386074 1.31831 1.09897 1.61243 1.89067 1.92296C2.68237 2.2335 3.34284 2.50098 3.35839 2.51735C3.3739 2.53372 3.84523 5.05113 4.4058 8.11158C4.96633 11.172 5.45002 13.7377 5.48066 13.813C5.51134 13.8883 5.61812 14.0092 5.71802 14.0816C5.87524 14.1955 5.9363 14.2131 6.1725 14.2131C6.32259 14.2131 6.44535 14.2248 6.44535 14.2391C6.44535 14.2534 6.27133 14.7476 6.05863 15.3374C5.65928 16.4447 5.61679 16.6459 5.73418 16.8729C5.83709 17.072 5.99848 17.1467 6.38571 17.1743L6.73707 17.1995L6.56786 17.4788C6.34279 17.8503 6.25874 18.1519 6.2565 18.5959C6.25156 19.5643 6.90559 20.3844 7.88309 20.6356C8.56053 20.8097 9.28327 20.6019 9.82089 20.0784C10.2456 19.6648 10.4562 19.1631 10.4526 18.5734C10.4497 18.0967 10.3258 17.7038 10.0711 17.3635C10.0149 17.2882 9.96879 17.2157 9.96879 17.2023C9.96879 17.1889 10.9959 17.178 12.2512 17.178H14.5337L14.4274 17.3176C13.8025 18.1383 13.8926 19.3307 14.6356 20.0737C15.0057 20.4439 15.6163 20.7024 16.1161 20.7008C17.0184 20.6978 17.8722 20.0555 18.1387 19.1792C18.3237 18.5712 18.191 17.8345 17.8035 17.3176L17.6988 17.178L18.0769 17.1779C18.352 17.1779 18.4953 17.1574 18.6025 17.1027C19.0288 16.8853 19.0515 16.3231 18.6436 16.0823C18.5003 15.9977 18.4104 15.9962 12.794 15.985C9.65671 15.9787 7.08988 15.9671 7.08988 15.9591C7.08988 15.9336 7.59558 14.535 7.66408 14.371L7.73003 14.2131H13.1265C18.4502 14.2131 18.5253 14.212 18.6926 14.1266C18.8026 14.0705 18.893 13.9796 18.9499 13.8681C19.0739 13.6251 22 4.48283 22 4.33849C22 4.11794 21.8243 3.84513 21.6133 3.73814C21.4224 3.64133 21.3304 3.63621 14.4805 3.34205L7.54106 3.04406L7.34774 3.13932C7.09006 3.26638 6.96098 3.46588 6.96098 3.73728C6.96098 3.85312 6.98929 4.00261 7.02388 4.06955C7.11163 4.23924 7.32445 4.4081 7.48859 4.43831C7.56473 4.45232 10.4756 4.58664 13.9573 4.73681C17.4389 4.88695 20.2968 5.01899 20.308 5.03025C20.3193 5.04151 19.7712 6.78836 19.0901 8.91217L17.8518 12.7737L12.2822 12.7846L6.71257 12.7955L6.68881 12.6987C6.67575 12.6454 6.21801 10.1655 5.67166 7.18775C5.04578 3.77668 4.65145 1.72767 4.60578 1.6493C4.56586 1.58085 4.48353 1.48782 4.42277 1.44253C4.26082 1.32183 0.953949 0.0255507 0.751996 0.00363667C0.628891 -0.00976957 0.52525 0.0131757 0.386762 0.0843749ZM8.71333 17.7174C9.34437 17.981 9.478 18.822 8.961 19.276C8.75582 19.4561 8.62726 19.5044 8.35269 19.5044C8.07958 19.5044 7.88158 19.424 7.69475 19.2372C7.50488 19.0473 7.43363 18.8664 7.43363 18.5741C7.43363 17.9145 8.10665 17.4639 8.71333 17.7174ZM16.6388 17.8033C16.8519 17.9509 17.0586 18.3163 17.0586 18.5449C17.0586 19.0735 16.6486 19.5031 16.1403 19.5072C15.3535 19.5135 14.9141 18.6827 15.3623 18.0361C15.6337 17.6444 16.248 17.5324 16.6388 17.8033Z" fill="black"/>
</svg>
