<svg width="55" height="11" viewBox="0 0 55 11" fill="none" xmlns="http://www.w3.org/2000/svg">
<path d="M1 5.5H54" stroke="white" stroke-linecap="round"/>
<path d="M33.2497 1.38827C32.7843 0.760062 32.1268 0.310803 31.3828 0.11267C30.6389 -0.0854632 29.8517 -0.0209684 29.1478 0.295793C28.5177 0.575102 27.9557 1.04601 27.5 1.67094C27.0443 1.04449 26.4823 0.573574 25.8522 0.295793C25.1483 -0.0209684 24.3611 -0.0854632 23.6172 0.11267C22.8732 0.310803 22.2157 0.760062 21.7503 1.38827C21.2594 2.04896 21 2.87466 21 3.77584C21 5.07277 21.7529 6.49559 23.2377 8.00642C24.4475 9.23703 25.8772 10.2449 26.6215 10.7359C26.8838 10.9084 27.1886 11 27.5 11C27.8114 11 28.1162 10.9084 28.3785 10.7359C29.1222 10.2449 30.5525 9.23703 31.7623 8.00642C33.2471 6.4962 34 5.07277 34 3.77584C34 2.87466 33.7406 2.04896 33.2497 1.38827Z" fill="white"/>
</svg>
