<svg width="22" height="21" viewBox="0 0 22 21" fill="none" xmlns="http://www.w3.org/2000/svg">
<path fill-rule="evenodd" clip-rule="evenodd" d="M5.02225 0.0436296C4.53554 0.230458 3.78814 0.876966 2.90677 1.87354C2.025 2.87054 1.14724 4.08415 0.828324 4.74725L0.671875 5.07248L0.721633 5.50328C1.11613 8.92042 3.96152 13.3838 7.77818 16.5725C10.4696 18.821 13.3754 20.275 15.7688 20.5707C16.1631 20.6194 16.1864 20.6175 16.4352 20.5157C17.4508 20.1002 19.8476 18.174 20.7546 17.0444C21.1537 16.5473 21.2912 16.2701 21.2887 15.9673C21.2863 15.672 21.1303 15.3173 20.8864 15.0527C20.5247 14.6603 18.2787 13.222 17.0797 12.6149C16.2805 12.2102 15.8569 12.0571 15.5366 12.0571C15.0396 12.0571 14.7621 12.2546 13.9841 13.1619C13.6843 13.5114 13.4143 13.8033 13.3839 13.8104C13.2923 13.8321 12.5564 13.53 12.0375 13.2577C10.2987 12.3452 8.94547 10.9933 8.04025 9.26417C7.76628 8.74089 7.46279 8.0026 7.48462 7.91267C7.49179 7.88311 7.78054 7.61567 8.12623 7.31833C9.04056 6.53191 9.23512 6.26061 9.23697 5.76943C9.23942 5.12353 8.51849 3.70826 7.10808 1.59003C6.73477 1.02938 6.36124 0.518262 6.24952 0.415309C5.88145 0.0759851 5.35401 -0.0837298 5.02225 0.0436296ZM11.4057 0.730872C11.0031 0.906228 10.8764 1.45455 11.1605 1.7922C11.3135 1.97404 11.5004 2.04533 11.8254 2.04576C13.1079 2.04743 14.6464 2.52198 15.8 3.2717C16.8585 3.95959 17.7903 4.98212 18.3659 6.08744C18.9173 7.14624 19.1563 8.03281 19.2429 9.34069C19.2803 9.90638 19.3153 9.99739 19.567 10.1853C19.7333 10.3096 20.1409 10.3096 20.3073 10.1853C20.6223 9.95016 20.6664 9.73296 20.5829 8.82975C20.2922 5.6902 18.4353 2.98317 15.6188 1.59343C14.6862 1.13323 13.7483 0.858704 12.6836 0.734138C12.018 0.656278 11.5795 0.655161 11.4057 0.730872ZM5.66364 1.88428C6.35123 2.85426 7.11753 4.14285 7.61202 5.16065C7.74978 5.44424 7.86261 5.68887 7.8627 5.70425C7.86283 5.71963 7.62607 5.93233 7.33655 6.17686C6.60595 6.79402 6.16212 7.22745 6.07696 7.40693C5.97573 7.62018 6.01285 7.8917 6.23405 8.55694C6.69846 9.95347 7.73839 11.5671 8.87788 12.6591C10.1085 13.8385 11.6429 14.7558 13.0777 15.1699C13.4872 15.2881 13.6789 15.3046 13.8567 15.237C14.0306 15.1708 14.3959 14.8045 15.0028 14.0874C15.3079 13.727 15.5713 13.4322 15.5881 13.4324C15.605 13.4324 15.8508 13.5453 16.1344 13.683C17.1557 14.1792 18.4381 14.9411 19.398 15.6221L19.8961 15.9754L19.5482 16.3565C18.7889 17.1881 17.2652 18.4626 16.3202 19.0563L16.0334 19.2366L15.7402 19.1876C11.9473 18.5545 7.24279 15.0647 4.36113 10.7466C3.13992 8.91664 2.37408 7.1526 2.10759 5.55575L2.05878 5.26335L2.20827 5.01726C2.73124 4.15634 4.06778 2.55154 4.91848 1.76307C5.13178 1.56541 5.30958 1.40303 5.31362 1.40226C5.31766 1.40153 5.47518 1.61843 5.66364 1.88428ZM11.4057 4.16515C10.9915 4.35572 10.875 4.90237 11.1758 5.24487C11.3336 5.42465 11.469 5.46822 11.9664 5.49942C12.9905 5.56361 13.8802 5.98024 14.6305 6.74684C15.3621 7.49441 15.7199 8.30687 15.8066 9.41726C15.8443 9.90045 15.8884 10.0053 16.1295 10.1853C16.2958 10.3096 16.7034 10.3096 16.8698 10.1853C17.1905 9.94591 17.2448 9.65729 17.1247 8.83147C16.9499 7.62933 16.4348 6.61012 15.5599 5.73519C14.5662 4.74153 13.3616 4.19643 12.0094 4.12858C11.6535 4.11075 11.5043 4.11977 11.4057 4.16515Z" fill="black"/>
</svg>
