<svg width="11" height="15" viewBox="0 0 11 15" fill="none" xmlns="http://www.w3.org/2000/svg">
<path fill-rule="evenodd" clip-rule="evenodd" d="M5.11271 14.4122C5.11271 14.4122 1.42019 9.97751 0.284909 6.61898C0.103425 6.10741 0 5.56046 0 4.98895C0 2.23374 2.28897 0 5.11265 0C7.93617 0 10.2253 2.2336 10.2253 4.98895C10.2253 5.56046 10.1219 6.10741 9.94078 6.61898C8.8051 10.255 5.11271 14.4122 5.11271 14.4122ZM5.11271 3.04851C4.01471 3.04851 3.12451 3.91717 3.12451 4.98861C3.12451 6.06005 4.01471 6.92871 5.11271 6.92871C6.21071 6.92871 7.10091 6.06005 7.10091 4.98861C7.10091 3.91717 6.21071 3.04851 5.11271 3.04851Z" fill="white"/>
</svg>
