<svg width="13" height="15" viewBox="0 0 13 15" fill="none" xmlns="http://www.w3.org/2000/svg">
<path d="M12.2068 11.1369L9.69878 9.39323C9.34422 9.14667 8.86411 9.17726 8.54904 9.46992L7.38487 10.5697C6.49541 9.92477 5.8282 9.33923 5.0964 8.39348C4.31583 7.38475 3.93805 6.58724 3.5713 5.60873L4.96336 4.83592C5.33953 4.62209 5.50247 4.18164 5.35695 3.78205L4.34025 0.970646C4.16397 0.482392 3.57737 0.245234 3.09841 0.472688L1.23065 1.34693C0.797949 1.55279 0.509651 1.96149 0.471967 2.43371C0.432349 2.91967 0.419624 3.52167 0.472482 3.96442C0.703428 5.90679 1.63332 8.00382 3.08471 9.87945C4.5361 11.7551 6.35029 13.2044 8.20497 13.9572C8.62766 14.1291 9.22783 14.2698 9.71674 14.3809C10.1935 14.4762 10.6911 14.3216 11.0159 13.9601L12.3713 12.4239C12.7144 12.0369 12.6404 11.4367 12.2068 11.1369L12.2068 11.1369Z" fill="#151515"/>
</svg>
