<svg width="13" height="13" viewBox="0 0 13 13" fill="none" xmlns="http://www.w3.org/2000/svg">
<circle cx="6.27346" cy="6.27346" r="6.27346" fill="#F66A1C"/>
<g clip-path="url(#clip0_1_1633)">
<path d="M6.5 9.62048C6.46459 9.62048 6.42919 9.61133 6.39748 9.59301C6.36302 9.57313 5.54448 9.09787 4.71418 8.38177C4.22208 7.95735 3.82926 7.5364 3.54666 7.13062C3.18097 6.60554 2.99707 6.10047 3.00004 5.62943C3.00351 5.08133 3.19982 4.56587 3.55286 4.178C3.91185 3.7836 4.39094 3.56641 4.9019 3.56641C5.55674 3.56641 6.15544 3.93322 6.50001 4.5143C6.84459 3.93324 7.44329 3.56641 8.09813 3.56641C8.58086 3.56641 9.04142 3.76238 9.39503 4.11823C9.78309 4.50874 10.0036 5.06051 9.99997 5.63203C9.99699 6.10225 9.80964 6.60655 9.44314 7.1309C9.15967 7.53648 8.76739 7.95724 8.27722 8.38154C7.44996 9.09757 6.63729 9.57282 6.6031 9.5927C6.57123 9.61121 6.5356 9.62048 6.5 9.62048Z" fill="white"/>
</g>
<defs>
<clipPath id="clip0_1_1633">
<rect width="7" height="7" fill="white" transform="translate(3 3.09375)"/>
</clipPath>
</defs>
</svg>
