<svg width="258" height="83" viewBox="0 0 258 83" fill="none" xmlns="http://www.w3.org/2000/svg">
<path d="M6 0.675781C5.90797 0.675781 5.82908 0.73968 5.80279 0.832396C5.01275 3.69156 2.8757 5.93052 0.149402 6.7587C0.0609562 6.78501 0 6.86896 0 6.96543C0 7.06191 0.0609562 7.14461 0.149402 7.17217C2.87689 8.00035 5.01275 10.2406 5.80279 13.0985C5.82789 13.1912 5.90797 13.2551 6 13.2551C6.09203 13.2551 6.17092 13.1912 6.19721 13.0985C6.98725 10.2393 9.1243 8.00035 11.8506 7.17217C11.939 7.14586 12 7.06191 12 6.96543C12 6.86896 11.939 6.78627 11.8506 6.7587C9.12311 5.93052 6.98725 3.69031 6.19721 0.832396C6.17211 0.73968 6.09203 0.675781 6 0.675781Z" fill="#F8A991"/>
<path d="M252 0.675781C251.908 0.675781 251.829 0.73968 251.803 0.832396C251.013 3.69156 248.876 5.93052 246.149 6.7587C246.061 6.78501 246 6.86896 246 6.96543C246 7.06191 246.061 7.14461 246.149 7.17217C248.877 8.00035 251.013 10.2406 251.803 13.0985C251.828 13.1912 251.908 13.2551 252 13.2551C252.092 13.2551 252.171 13.1912 252.197 13.0985C252.987 10.2393 255.124 8.00035 257.851 7.17217C257.939 7.14586 258 7.06191 258 6.96543C258 6.86896 257.939 6.78627 257.851 6.7587C255.123 5.93052 252.987 3.69031 252.197 0.832396C252.172 0.73968 252.092 0.675781 252 0.675781Z" fill="#F8A991"/>
<path d="M20.9623 37.856C19.8865 37.856 18.995 37.6617 18.2878 37.2732C17.5806 36.8947 17.0526 36.3967 16.704 35.7791C16.3554 35.1615 16.1811 34.5041 16.1811 33.8068C16.1811 33.0598 16.3106 32.3177 16.5695 31.5806C16.8285 30.8435 17.2021 30.206 17.6901 29.6681C18.1882 29.1302 18.7759 28.6819 19.4532 28.3233C20.1306 27.9548 20.783 27.7705 21.4106 27.7705C21.8986 27.7705 22.327 27.9249 22.6955 28.2337C23.074 28.5325 23.2633 28.7965 23.2633 29.0256C23.2633 29.1949 23.1089 29.3194 22.8001 29.3991C21.4952 29.7378 20.3746 30.3703 19.4383 31.2967C18.7211 32.0139 18.3625 32.8207 18.3625 33.7172C18.3625 34.3646 18.6115 34.9125 19.1096 35.3607C19.6076 35.8189 20.27 36.048 21.0968 36.048C21.814 36.048 22.5411 35.7841 23.2782 35.2562C24.0253 34.7382 24.6528 34.0608 25.1608 33.2241C25.6689 32.3874 25.9229 31.4909 25.9229 30.5347C25.9229 29.5685 25.7137 28.7517 25.2953 28.0843C24.877 27.4169 24.3341 26.8342 23.6667 26.3361C22.9993 25.8281 22.2821 25.345 21.5151 24.8868C20.8577 24.4884 20.2103 24.065 19.5728 23.6168C18.9452 23.1686 18.3725 22.6556 17.8545 22.0778C17.3365 21.4901 16.9182 20.8028 16.5994 20.0159C16.2906 19.219 16.1362 18.2777 16.1362 17.192C16.1362 15.5783 16.4948 14.1041 17.212 12.7693C17.9392 11.4246 18.9402 10.3538 20.2152 9.55693C21.4902 8.7501 22.9595 8.34668 24.623 8.34668C26.0773 8.34668 27.2277 8.71026 28.0744 9.4374C28.9311 10.1546 29.3594 11.2702 29.3594 12.7843C29.3594 13.4317 29.2498 14.0991 29.0307 14.7864C28.8115 15.4638 28.5027 16.0315 28.1043 16.4897C27.6561 16.9878 27.1281 17.2368 26.5205 17.2368C25.9029 17.2368 25.5941 17.0974 25.5941 16.8185C25.5941 16.7188 25.6489 16.5844 25.7585 16.415C26.1669 15.7775 26.4807 15.1052 26.6998 14.398C26.9289 13.6907 27.0435 13.0482 27.0435 12.4705C27.0435 11.843 26.899 11.315 26.6102 10.8867C26.3213 10.4484 25.8681 10.2293 25.2505 10.2293C24.364 10.2293 23.5123 10.5182 22.6955 11.0959C21.8787 11.6637 21.2113 12.3958 20.6934 13.2923C20.1754 14.1788 19.9164 15.1002 19.9164 16.0564C19.9164 17.0924 20.1356 17.9889 20.5738 18.7459C21.0121 19.493 21.5699 20.1653 22.2473 20.763C22.9346 21.3606 23.6667 21.9334 24.4437 22.4813C25.9577 23.5371 27.0783 24.4983 27.8055 25.3649C28.8315 26.5901 29.3444 28.0245 29.3444 29.6681C29.3444 30.6741 29.1303 31.6652 28.702 32.6414C28.2836 33.6076 27.6959 34.4792 26.9389 35.2562C26.1818 36.0431 25.2903 36.6706 24.2644 37.1388C23.2483 37.6169 22.1477 37.856 20.9623 37.856ZM33.797 29.8324C34.056 29.8324 34.3697 29.4539 34.7383 28.6969C35.1068 27.9398 35.4654 27.0533 35.8141 26.0373C36.1727 25.0113 36.4715 24.0601 36.7106 23.1835C36.9596 22.3069 37.094 21.7093 37.114 21.3905C37.0442 21.271 36.9297 21.1614 36.7703 21.0618C36.6109 20.9522 36.4416 20.8975 36.2623 20.8975C35.3758 20.8975 34.6536 21.7989 34.0958 23.6019C33.5978 25.2155 33.3487 26.9736 33.3487 28.8762C33.3487 29.5137 33.4981 29.8324 33.797 29.8324ZM40.3712 32.8954C38.379 32.8954 37.2584 30.8584 37.0094 26.7844C36.601 28.1689 36.1527 29.3095 35.6647 30.206C34.818 31.7399 33.792 32.5069 32.5867 32.5069C31.9193 32.5069 31.4014 32.3376 31.0328 31.9989C30.6643 31.6503 30.4053 31.207 30.2559 30.6691C30.0965 30.1313 30.0168 29.5834 30.0168 29.0256C30.0168 28.2686 30.0716 27.4368 30.1812 26.5304C30.2907 25.614 30.47 24.7125 30.719 23.826C30.9581 22.9295 31.2818 22.1127 31.6902 21.3756C32.0986 20.6285 32.6017 20.0309 33.1993 19.5826C33.8069 19.1244 34.5191 18.8953 35.3359 18.8953C36.1129 18.8953 36.7803 19.2589 37.3381 19.986C37.4078 19.6972 37.5124 19.4581 37.6519 19.2688C37.9905 18.8206 38.6081 18.5965 39.5046 18.5965C40.1321 18.5965 40.5754 18.6861 40.8344 18.8654C41.1033 19.0447 41.2378 19.3386 41.2378 19.747C41.2378 19.9263 41.2229 20.1255 41.193 20.3446C41.1432 20.6733 41.0635 21.3756 40.9539 22.4514C40.7049 24.8918 40.5804 26.9338 40.5804 28.5773C40.5804 28.8662 40.5903 29.3194 40.6103 29.937C40.6401 30.5446 40.7796 30.8484 41.0286 30.8484C41.4868 30.8484 42.1442 29.8772 43.0009 27.9349C43.6284 26.5005 44.1862 24.9964 44.6743 23.4226C44.764 23.1437 44.9582 23.0042 45.257 23.0042C45.5061 23.0042 45.6953 23.0889 45.8248 23.2582C45.9045 23.3678 45.9443 23.4923 45.9443 23.6317C45.9443 23.7911 45.6455 24.7274 45.0479 26.4407C43.5438 30.7438 41.9849 32.8954 40.3712 32.8954ZM50.4716 32.8954C49.3062 32.8954 48.4296 32.4571 47.8419 31.5806C47.2642 30.694 46.9753 29.4788 46.9753 27.9349C46.9753 27.0981 47.0799 26.0672 47.2891 24.842C47.4982 23.6168 47.7224 22.6058 47.9614 21.8089C47.4634 21.6694 47.0002 21.4901 46.5719 21.271C46.3428 22.2771 46.1137 23.1486 45.8846 23.8857C45.7949 24.1746 45.6057 24.319 45.3168 24.319C45.0678 24.319 44.8785 24.2294 44.749 24.0501C44.6693 23.9405 44.6295 23.821 44.6295 23.6915C44.6295 23.6118 44.6444 23.5222 44.6743 23.4226C44.9433 22.6356 45.1674 21.6346 45.3467 20.4193C44.6594 19.7918 44.3157 19.0298 44.3157 18.1333V17.5356C44.3157 16.9978 44.4452 16.6491 44.7042 16.4897C44.9632 16.3204 45.3367 16.2357 45.8248 16.2357C46.024 16.2357 46.2282 16.2557 46.4374 16.2955C46.6466 16.3254 46.8159 16.4001 46.9454 16.5196C47.0849 16.6392 47.1546 16.8234 47.1546 17.0725C47.1546 17.8992 47.0649 18.7559 46.8856 19.6424C47.4435 20.2898 48.3549 20.748 49.6199 21.017C50.3471 21.1664 50.875 21.3756 51.2037 21.6445C51.4229 21.8238 51.5324 22.1326 51.5324 22.5709C51.5324 22.8996 51.4577 23.4026 51.3083 24.08C50.8401 26.2614 50.6061 28.0395 50.6061 29.4141C50.6061 30.3703 50.7804 30.8484 51.129 30.8484C51.5872 30.8484 52.2446 29.8772 53.1013 27.9349C53.7288 26.5005 54.2816 24.9964 54.7598 23.4226C54.8395 23.1437 55.0387 23.0042 55.3574 23.0042C55.5965 23.0042 55.7808 23.0889 55.9103 23.2582C55.9899 23.3777 56.0298 23.5072 56.0298 23.6467C56.0298 23.7961 55.7359 24.7274 55.1482 26.4407C53.6441 30.7438 52.0853 32.8954 50.4716 32.8954ZM57.7331 29.8324C57.9921 29.8324 58.3059 29.4539 58.6744 28.6969C59.043 27.9398 59.4016 27.0533 59.7502 26.0373C60.1088 25.0113 60.4076 24.0601 60.6467 23.1835C60.8957 22.3069 61.0302 21.7093 61.0501 21.3905C60.9804 21.271 60.8658 21.1614 60.7064 21.0618C60.5471 20.9522 60.3777 20.8975 60.1984 20.8975C59.3119 20.8975 58.5898 21.7989 58.0319 23.6019C57.5339 25.2155 57.2849 26.9736 57.2849 28.8762C57.2849 29.5137 57.4343 29.8324 57.7331 29.8324ZM64.3073 32.8954C62.3151 32.8954 61.1945 30.8584 60.9455 26.7844C60.5371 28.1689 60.0889 29.3095 59.6008 30.206C58.7541 31.7399 57.7281 32.5069 56.5229 32.5069C55.8555 32.5069 55.3375 32.3376 54.9689 31.9989C54.6004 31.6503 54.3414 31.207 54.192 30.6691C54.0326 30.1313 53.9529 29.5834 53.9529 29.0256C53.9529 28.2686 54.0077 27.4368 54.1173 26.5304C54.2269 25.614 54.4062 24.7125 54.6552 23.826C54.8942 22.9295 55.218 22.1127 55.6264 21.3756C56.0348 20.6285 56.5378 20.0309 57.1355 19.5826C57.7431 19.1244 58.4553 18.8953 59.2721 18.8953C60.049 18.8953 60.7164 19.2589 61.2742 19.986C61.3439 19.6972 61.4485 19.4581 61.588 19.2688C61.9267 18.8206 62.5442 18.5965 63.4407 18.5965C64.0683 18.5965 64.5115 18.6861 64.7705 18.8654C65.0395 19.0447 65.1739 19.3386 65.1739 19.747C65.1739 19.9263 65.159 20.1255 65.1291 20.3446C65.0793 20.6733 64.9996 21.3756 64.89 22.4514C64.641 24.8918 64.5165 26.9338 64.5165 28.5773C64.5165 28.8662 64.5265 29.3194 64.5464 29.937C64.5763 30.5446 64.7157 30.8484 64.9648 30.8484C65.423 30.8484 66.0804 29.8772 66.937 27.9349C67.5646 26.5005 68.1224 24.9964 68.6105 23.4226C68.7001 23.1437 68.8943 23.0042 69.1932 23.0042C69.4422 23.0042 69.6314 23.0889 69.7609 23.2582C69.8406 23.3678 69.8805 23.4923 69.8805 23.6317C69.8805 23.7911 69.5816 24.7274 68.984 26.4407C67.4799 30.7438 65.921 32.8954 64.3073 32.8954ZM69.6563 17.9241C69.4272 17.9241 69.243 17.8644 69.1035 17.7448C69.0238 17.6751 68.984 17.5904 68.984 17.4908C68.984 17.4012 69.0139 17.3115 69.0736 17.2219C69.2529 16.9529 69.4422 16.6143 69.6414 16.2059C70.1395 15.1799 70.3885 14.2286 70.3885 13.3521C70.3885 13.1528 70.3785 13.0084 70.3586 12.9188C70.3188 12.7594 70.2092 12.6647 70.0299 12.6349C69.3725 12.5452 69.0438 12.0621 69.0438 11.1855C69.0438 10.6277 69.1334 10.2094 69.3127 9.93047C69.502 9.6416 69.751 9.45234 70.0598 9.3627C70.3686 9.27305 70.7072 9.22822 71.0758 9.22822C71.7531 9.22822 72.2014 9.41748 72.4205 9.796C72.6496 10.1745 72.7642 10.7174 72.7642 11.4246C72.7642 11.9525 72.6695 12.5851 72.4803 13.3222C72.301 14.0493 72.0619 14.7615 71.7631 15.4588C71.4643 16.1561 71.1306 16.7438 70.762 17.2219C70.3935 17.69 70.0249 17.9241 69.6563 17.9241ZM76.619 33.3138C77.0374 33.3138 77.2466 33.0149 77.2466 32.4173C77.2466 31.8196 77.1071 31.1971 76.8282 30.5496C76.2605 31.0576 75.9766 31.6403 75.9766 32.2978C75.9766 32.5468 76.0363 32.7809 76.1559 33C76.2754 33.2092 76.4298 33.3138 76.619 33.3138ZM76.5443 34.5688C75.9068 34.5688 75.3689 34.3497 74.9307 33.9114C74.5023 33.4731 74.2882 32.9203 74.2882 32.2529C74.2882 31.207 74.7564 30.3056 75.6927 29.5485L76.1559 29.1899C75.9467 28.7815 75.7176 28.3731 75.4686 27.9647C75.1398 27.4069 74.8211 26.8392 74.5123 26.2614C74.2135 25.6837 73.9645 25.106 73.7652 24.5282C73.566 23.9505 73.4664 23.3728 73.4664 22.795C73.4664 21.4204 73.8399 20.3944 74.587 19.7171C75.344 19.0397 76.2256 18.7011 77.2316 18.7011C77.4109 18.7011 77.6102 18.721 77.8293 18.7608C78.0484 18.7907 78.2377 18.8555 78.3971 18.9551C78.5564 19.0447 78.6361 19.1842 78.6361 19.3734C78.6361 19.8018 78.2925 20.0458 77.6052 20.1056C76.7386 20.1753 76.3053 20.5737 76.3053 21.3009C76.3053 21.9583 76.4348 22.6257 76.6938 23.303C76.9627 23.9804 77.2765 24.6776 77.6351 25.3948C77.9737 26.0522 78.2875 26.7346 78.5764 27.4418C78.8254 27.2326 79.0744 27.0135 79.3234 26.7844C80.0606 26.0971 80.6134 25.1757 80.9819 24.0202L81.1612 23.4226C81.2409 23.1437 81.4401 23.0042 81.7589 23.0042C82.0079 23.0042 82.1922 23.0889 82.3117 23.2582C82.3914 23.3777 82.4313 23.5072 82.4313 23.6467C82.4313 23.7363 82.4064 23.8608 82.3565 24.0202C81.8286 25.6339 81.1214 26.884 80.2349 27.7705C79.8364 28.1689 79.443 28.5325 79.0545 28.8612C79.3035 29.7179 79.428 30.5795 79.428 31.4461C79.428 32.3227 79.174 33.0598 78.666 33.6574C78.158 34.265 77.4508 34.5688 76.5443 34.5688ZM96.2072 39.0513C95.1115 39.0513 94.2848 38.7624 93.727 38.1847C93.1691 37.6169 92.8902 36.9445 92.8902 36.1676C92.8902 35.6396 93.0197 35.1018 93.2787 34.5539C93.7768 33.4781 94.6932 32.6414 96.0279 32.0438C96.3766 31.8844 96.6604 31.8047 96.8796 31.8047C97.039 31.8047 97.1784 31.8595 97.2979 31.969C97.4175 32.0687 97.4772 32.2081 97.4772 32.3874C97.4772 32.7161 97.3079 32.9602 96.9692 33.1195C96.1823 33.508 95.5747 33.9911 95.1464 34.5688C94.728 35.1565 94.5188 35.6895 94.5188 36.1676C94.5188 36.8848 94.9272 37.2434 95.744 37.2434C97.3577 37.2434 98.5729 36.1228 99.3897 33.8815C100.027 32.1483 100.346 30.3653 100.346 28.5325C100.346 25.3351 99.4943 23.7363 97.791 23.7363C97.1037 23.7363 96.4164 23.9156 95.7291 24.2742C95.6295 24.324 95.5349 24.3489 95.4452 24.3489C95.2958 24.3489 95.1563 24.2991 95.0269 24.1995C94.7479 23.9903 94.6085 23.7214 94.6085 23.3927C94.6085 23.1835 94.723 23.0042 94.9521 22.8548C96.1275 22.0878 97.0987 21.1017 97.8657 19.8964C98.6327 18.6911 99.2055 17.4261 99.584 16.1013C99.9625 14.7665 100.152 13.5413 100.152 12.4257C100.142 10.9315 99.7932 10.1845 99.1059 10.1845C98.6277 10.1845 98.045 10.5281 97.3577 11.2154C96.6804 11.9027 96.0777 12.7046 95.5498 13.621C95.1713 14.2784 94.9621 14.886 94.9223 15.4438C94.3844 21.7093 94.1154 27.1878 94.1154 31.8794C94.1154 32.5767 94.0009 33.0398 93.7718 33.2689C93.5427 33.508 93.2588 33.6275 92.9201 33.6275C92.2129 33.6275 91.7746 33.264 91.6053 32.5368C91.2467 30.9331 91.0524 29.1551 91.0226 27.2027C91.0026 25.2404 90.9927 23.8708 90.9927 23.0938C90.9927 20.7331 91.0375 18.3674 91.1271 15.9967C91.2367 12.8291 91.3562 10.3787 91.4857 8.64551C91.5156 8.20723 91.6352 7.8835 91.8443 7.67432C92.0635 7.45518 92.3324 7.31572 92.6512 7.25596C92.9699 7.18623 93.2937 7.15137 93.6224 7.15137C93.9112 7.15137 94.1901 7.17627 94.4591 7.22608C94.728 7.26592 94.9521 7.37549 95.1314 7.55479C95.3107 7.73408 95.4004 8.02295 95.4004 8.42139C95.4004 8.84971 95.3705 9.35772 95.3107 9.94541C95.251 10.5231 95.1912 11.1208 95.1314 11.7384C95.9084 10.5231 96.8148 9.5669 97.8508 8.86963C98.6676 8.32178 99.5292 8.04785 100.436 8.04785C102.876 8.04785 104.096 9.58184 104.096 12.6498C104.096 13.3172 103.922 14.1987 103.573 15.2944C103.235 16.3802 102.687 17.5307 101.93 18.7459C101.173 19.9512 100.187 21.0817 98.9714 22.1376C99.8181 22.1974 100.605 22.4265 101.332 22.8249C102.069 23.2134 102.662 23.8061 103.11 24.6029C103.568 25.3998 103.797 26.4457 103.797 27.7406C103.797 28.6172 103.713 29.5635 103.543 30.5795C103.245 32.3027 102.742 33.8367 102.034 35.1814C100.69 37.7613 98.7473 39.0513 96.2072 39.0513ZM109.102 32.8954C107.837 32.8954 106.925 32.0736 106.367 30.4301C105.929 29.1352 105.71 27.5065 105.71 25.5442C105.71 21.9683 105.934 19.8765 106.382 19.2688C106.711 18.8206 107.324 18.5965 108.22 18.5965C108.858 18.5965 109.306 18.6861 109.565 18.8654C109.824 19.0447 109.953 19.3386 109.953 19.747C109.953 19.9263 109.938 20.1255 109.908 20.3446C109.869 20.6335 109.799 21.2411 109.699 22.1675C109.61 23.0839 109.52 24.1298 109.43 25.3052C109.351 26.4706 109.311 27.5314 109.311 28.4877C109.311 30.0615 109.455 30.8484 109.744 30.8484C110.212 30.8484 110.875 29.8772 111.731 27.9349C112.419 26.381 112.976 24.8769 113.405 23.4226C113.484 23.1437 113.674 23.0042 113.973 23.0042C114.222 23.0042 114.411 23.0889 114.54 23.2582C114.62 23.3678 114.66 23.4973 114.66 23.6467C114.66 23.7961 114.366 24.7274 113.778 26.4407C112.274 30.7438 110.715 32.8954 109.102 32.8954ZM108.31 17.7448C108.061 17.7448 107.817 17.7249 107.578 17.6851C107.349 17.6353 107.159 17.5157 107.01 17.3265C106.86 17.1372 106.786 16.8384 106.786 16.43C106.786 15.912 106.865 15.5285 107.025 15.2795C107.194 15.0205 107.418 14.8512 107.697 14.7715C107.986 14.6818 108.3 14.637 108.638 14.637C108.887 14.637 109.127 14.6619 109.356 14.7117C109.595 14.7516 109.789 14.8661 109.938 15.0554C110.088 15.2446 110.162 15.5435 110.162 15.9519C110.162 17.1472 109.545 17.7448 108.31 17.7448ZM119.202 32.8954C118.037 32.8954 117.16 32.4571 116.572 31.5806C115.995 30.694 115.706 29.4788 115.706 27.9349C115.706 27.0981 115.81 26.0672 116.02 24.842C116.229 23.6168 116.453 22.6058 116.692 21.8089C116.194 21.6694 115.731 21.4901 115.302 21.271C115.073 22.2771 114.844 23.1486 114.615 23.8857C114.525 24.1746 114.336 24.319 114.047 24.319C113.798 24.319 113.609 24.2294 113.479 24.0501C113.4 23.9405 113.36 23.821 113.36 23.6915C113.36 23.6118 113.375 23.5222 113.405 23.4226C113.674 22.6356 113.898 21.6346 114.077 20.4193C113.39 19.7918 113.046 19.0298 113.046 18.1333V17.5356C113.046 16.9978 113.176 16.6491 113.435 16.4897C113.694 16.3204 114.067 16.2357 114.555 16.2357C114.754 16.2357 114.959 16.2557 115.168 16.2955C115.377 16.3254 115.546 16.4001 115.676 16.5196C115.815 16.6392 115.885 16.8234 115.885 17.0725C115.885 17.8992 115.795 18.7559 115.616 19.6424C116.174 20.2898 117.085 20.748 118.35 21.017C119.078 21.1664 119.605 21.3756 119.934 21.6445C120.153 21.8238 120.263 22.1326 120.263 22.5709C120.263 22.8996 120.188 23.4026 120.039 24.08C119.571 26.2614 119.337 28.0395 119.337 29.4141C119.337 30.3703 119.511 30.8484 119.859 30.8484C120.318 30.8484 120.975 29.8772 121.832 27.9349C122.459 26.5005 123.012 24.9964 123.49 23.4226C123.57 23.1437 123.769 23.0042 124.088 23.0042C124.327 23.0042 124.511 23.0889 124.641 23.2582C124.72 23.3777 124.76 23.5072 124.76 23.6467C124.76 23.7961 124.466 24.7274 123.879 26.4407C122.375 30.7438 120.816 32.8954 119.202 32.8954ZM126.643 33.1942C126.005 33.1942 125.487 33 125.089 32.6115C124.352 31.9043 123.879 30.7289 123.67 29.0854C123.53 28.0295 123.46 26.8491 123.46 25.5442C123.46 23.8011 123.565 21.3158 123.774 18.0885C123.336 18.0686 122.908 18.0387 122.489 17.9988C122.29 17.9789 122.16 17.8644 122.101 17.6552C122.041 17.436 122.011 17.1472 122.011 16.7886C122.011 16.6192 122.026 16.4599 122.056 16.3105C122.086 16.1511 122.185 16.0664 122.355 16.0564C122.494 16.0564 122.649 16.0664 122.818 16.0863C123.176 16.1361 123.54 16.181 123.909 16.2208C123.938 15.663 123.983 15.0853 124.043 14.4876C124.073 14.0991 124.197 13.8053 124.417 13.6061C124.755 13.2973 125.343 13.1429 126.18 13.1429C126.459 13.1429 126.728 13.1678 126.987 13.2176C127.246 13.2574 127.455 13.357 127.614 13.5164C127.783 13.6758 127.868 13.9348 127.868 14.2934C127.868 14.6719 127.833 15.1201 127.763 15.6381C127.724 15.8871 127.689 16.166 127.659 16.4748C128.008 16.4848 128.575 16.4897 129.362 16.4897C129.721 16.4897 129.9 16.684 129.9 17.0725C129.9 17.4211 129.796 17.6402 129.586 17.7299C129.158 17.9092 128.461 18.0287 127.495 18.0885C127.096 22.6207 126.897 26.2017 126.897 28.8313C126.897 30.3753 127.026 31.1473 127.285 31.1473C127.734 31.1473 128.376 30.1412 129.213 28.1291C129.94 26.376 130.513 24.8071 130.931 23.4226C131.021 23.1437 131.215 23.0042 131.514 23.0042C131.763 23.0042 131.952 23.0889 132.082 23.2582C132.161 23.3678 132.201 23.4923 132.201 23.6317C132.201 23.7612 131.952 24.5681 131.454 26.0522C129.86 30.8136 128.257 33.1942 126.643 33.1942ZM140.822 33.1942C139.727 33.1942 138.91 32.5667 138.372 31.3116C137.914 30.2259 137.685 28.8413 137.685 27.1579C137.685 26.3909 137.704 25.7186 137.744 25.1408C137.784 24.5531 137.804 23.9405 137.804 23.303C137.804 22.5062 137.704 22.1077 137.505 22.1077C137.147 22.1077 136.763 22.5111 136.355 23.318C135.956 24.1148 135.583 25.0611 135.234 26.1568C134.886 27.2426 134.597 28.2835 134.368 29.2796C134.148 30.2657 134.039 30.948 134.039 31.3266C134.039 31.9541 133.924 32.3725 133.695 32.5816C133.466 32.7908 133.182 32.8954 132.844 32.8954C132.136 32.8954 131.698 32.5717 131.529 31.9242C131.17 30.5197 130.976 29.0505 130.946 27.5165C130.926 25.9726 130.916 24.8918 130.916 24.2742C130.916 20.7281 131.08 16.8583 131.409 12.6647C131.459 11.9575 131.847 11.5392 132.575 11.4097C132.893 11.3599 133.217 11.335 133.546 11.335C133.835 11.335 134.114 11.3549 134.383 11.3947C134.661 11.4346 134.886 11.5342 135.055 11.6936C135.234 11.8529 135.324 12.1119 135.324 12.4705C135.324 12.849 135.294 13.2973 135.234 13.8152C134.756 17.9391 134.422 21.6794 134.233 25.0362C134.661 23.7712 135.11 22.7203 135.578 21.8836C136.574 20.0906 137.709 19.1941 138.984 19.1941C140.518 19.1941 141.285 20.4243 141.285 22.8847C141.285 24.1696 141.256 25.4297 141.196 26.6648C141.146 27.7406 141.121 28.7118 141.121 29.5784C141.121 30.6243 141.236 31.1473 141.465 31.1473C141.923 31.1473 142.541 30.3703 143.317 28.8164C143.646 28.149 143.95 27.4667 144.229 26.7694C144.757 25.4247 145.155 24.3091 145.424 23.4226C145.504 23.1437 145.693 23.0042 145.992 23.0042C146.181 23.0042 146.341 23.064 146.47 23.1835C146.61 23.303 146.679 23.4524 146.679 23.6317C146.679 23.7114 146.6 24.0003 146.44 24.4983C145.892 26.2216 145.3 27.8153 144.662 29.2796C143.517 31.8894 142.237 33.1942 140.822 33.1942ZM148.398 29.8324C148.657 29.8324 148.97 29.4539 149.339 28.6969C149.707 27.9398 150.066 27.0533 150.415 26.0373C150.773 25.0113 151.072 24.0601 151.311 23.1835C151.55 22.3069 151.685 21.7093 151.715 21.3905C151.645 21.271 151.53 21.1614 151.371 21.0618C151.212 20.9522 151.042 20.8975 150.863 20.8975C149.976 20.8975 149.254 21.7989 148.696 23.6019C148.198 25.2155 147.949 26.9736 147.949 28.8762C147.949 29.5137 148.099 29.8324 148.398 29.8324ZM154.778 32.8954C152.795 32.8954 151.744 30.9032 151.625 26.9188V26.7396C151.217 28.144 150.763 29.2995 150.265 30.206C149.419 31.7399 148.388 32.5069 147.172 32.5069C146.515 32.5069 145.997 32.3376 145.618 31.9989C145.25 31.6503 144.991 31.207 144.842 30.6691C144.692 30.1313 144.617 29.5834 144.617 29.0256C144.617 28.2686 144.672 27.4368 144.782 26.5304C144.891 25.614 145.071 24.7125 145.32 23.826C145.559 22.9295 145.882 22.1127 146.291 21.3756C146.699 20.6285 147.202 20.0309 147.8 19.5826C148.408 19.1244 149.12 18.8953 149.937 18.8953C150.654 18.8953 151.276 19.2041 151.804 19.8217C152.013 16.3553 152.223 13.4716 152.432 11.1706C152.462 10.7821 152.586 10.4883 152.805 10.2891C153.134 9.99024 153.717 9.84082 154.553 9.84082C154.842 9.84082 155.121 9.86074 155.39 9.90059C155.669 9.94043 155.893 10.04 156.063 10.1994C156.242 10.3588 156.331 10.6178 156.331 10.9764C156.331 11.3549 156.297 11.7483 156.227 12.1567C156.127 12.7345 155.888 15.2745 155.51 19.7769C155.191 23.4923 155.032 26.3461 155.032 28.3383C155.032 28.6271 155.042 29.1202 155.061 29.8175C155.081 30.5048 155.206 30.8484 155.435 30.8484C155.893 30.8484 156.551 29.8772 157.407 27.9349C158.035 26.5005 158.593 24.9964 159.081 23.4226C159.17 23.1437 159.365 23.0042 159.663 23.0042C159.912 23.0042 160.102 23.0889 160.231 23.2582C160.311 23.3678 160.351 23.4923 160.351 23.6317C160.351 23.7911 160.052 24.7274 159.454 26.4407C157.95 30.7438 156.391 32.8954 154.778 32.8954ZM162.054 29.8324C162.313 29.8324 162.627 29.4539 162.995 28.6969C163.364 27.9398 163.722 27.0533 164.071 26.0373C164.43 25.0113 164.729 24.0601 164.968 23.1835C165.217 22.3069 165.351 21.7093 165.371 21.3905C165.301 21.271 165.187 21.1614 165.027 21.0618C164.868 20.9522 164.699 20.8975 164.519 20.8975C163.633 20.8975 162.911 21.7989 162.353 23.6019C161.855 25.2155 161.606 26.9736 161.606 28.8762C161.606 29.5137 161.755 29.8324 162.054 29.8324ZM168.628 32.8954C166.636 32.8954 165.515 30.8584 165.266 26.7844C164.858 28.1689 164.41 29.3095 163.922 30.206C163.075 31.7399 162.049 32.5069 160.844 32.5069C160.176 32.5069 159.658 32.3376 159.29 31.9989C158.921 31.6503 158.662 31.207 158.513 30.6691C158.354 30.1313 158.274 29.5834 158.274 29.0256C158.274 28.2686 158.329 27.4368 158.438 26.5304C158.548 25.614 158.727 24.7125 158.976 23.826C159.215 22.9295 159.539 22.1127 159.947 21.3756C160.356 20.6285 160.859 20.0309 161.456 19.5826C162.064 19.1244 162.776 18.8953 163.593 18.8953C164.37 18.8953 165.037 19.2589 165.595 19.986C165.665 19.6972 165.769 19.4581 165.909 19.2688C166.248 18.8206 166.865 18.5965 167.762 18.5965C168.389 18.5965 168.832 18.6861 169.091 18.8654C169.36 19.0447 169.495 19.3386 169.495 19.747C169.495 19.9263 169.48 20.1255 169.45 20.3446C169.4 20.6733 169.32 21.3756 169.211 22.4514C168.962 24.8918 168.837 26.9338 168.837 28.5773C168.837 28.8662 168.847 29.3194 168.867 29.937C168.897 30.5446 169.037 30.8484 169.286 30.8484C169.744 30.8484 170.401 29.8772 171.258 27.9349C171.885 26.5005 172.443 24.9964 172.931 23.4226C173.021 23.1437 173.215 23.0042 173.514 23.0042C173.763 23.0042 173.952 23.0889 174.082 23.2582C174.162 23.3678 174.201 23.4923 174.201 23.6317C174.201 23.7911 173.903 24.7274 173.305 26.4407C171.801 30.7438 170.242 32.8954 168.628 32.8954ZM176.189 42.5177C175.412 42.5177 174.779 42.2886 174.291 41.8304C173.813 41.3722 173.574 40.7247 173.574 39.888C173.574 38.1349 174.296 36.5262 175.74 35.0619C176.697 34.1057 178.011 33.1295 179.685 32.1334L179.849 29.1152C179.71 29.4738 179.55 29.8274 179.371 30.1761C178.674 31.5806 177.708 32.2828 176.472 32.2828C175.646 32.2828 174.988 32.0936 174.5 31.715C174.022 31.3266 173.668 30.7887 173.439 30.1014C173.21 29.4141 173.061 28.7168 172.991 28.0096C172.931 27.2924 172.901 26.4059 172.901 25.35C172.901 22.0529 173.111 20.1255 173.529 19.5677C173.868 19.1194 174.485 18.8953 175.382 18.8953C176.009 18.8953 176.453 18.985 176.712 19.1643C176.98 19.3436 177.115 19.6374 177.115 20.0458C177.115 20.2251 177.1 20.4243 177.07 20.6435C176.672 23.1935 176.472 25.609 176.472 27.89C176.472 28.5773 176.552 29.1451 176.712 29.5934C176.881 30.0316 177.145 30.2508 177.503 30.2508C177.862 30.2508 178.206 29.937 178.534 29.3095C178.863 28.672 179.152 27.8552 179.401 26.8591C179.73 25.5044 179.939 24.0899 180.029 22.6157C180.078 21.5997 180.143 20.8775 180.223 20.4492C180.312 19.9014 180.517 19.4581 180.835 19.1194C181.154 18.7708 181.692 18.5965 182.449 18.5965C183.445 18.5965 183.943 18.9451 183.943 19.6424L183.868 22.8249C183.809 25.3151 183.699 27.5165 183.54 29.429C185.462 27.6759 186.702 25.6737 187.26 23.4226C187.33 23.1437 187.514 23.0042 187.813 23.0042C188.062 23.0042 188.251 23.0889 188.381 23.2582C188.46 23.3678 188.5 23.4923 188.5 23.6317C188.5 23.7214 188.49 23.8061 188.47 23.8857C188.211 24.8818 187.818 25.8879 187.29 26.9039C186.443 28.5674 185.124 30.0814 183.331 31.4461C183.181 32.7111 183.007 33.8118 182.808 34.7481C182.339 36.9595 181.617 38.7425 180.641 40.0972C179.486 41.7108 178.001 42.5177 176.189 42.5177ZM176.039 40.6649C176.507 40.6649 176.98 40.391 177.459 39.8432C178.504 38.618 179.202 36.6357 179.55 33.8965C178.604 34.524 177.792 35.1615 177.115 35.809C175.83 37.0541 175.188 38.354 175.188 39.7087C175.188 40.0175 175.277 40.2516 175.456 40.4109C175.646 40.5803 175.84 40.6649 176.039 40.6649ZM201.215 37.856C200.14 37.856 199.248 37.6617 198.541 37.2732C197.834 36.8947 197.306 36.3967 196.957 35.7791C196.608 35.1615 196.434 34.5041 196.434 33.8068C196.434 33.0598 196.564 32.3177 196.823 31.5806C197.082 30.8435 197.455 30.206 197.943 29.6681C198.441 29.1302 199.029 28.6819 199.706 28.3233C200.384 27.9548 201.036 27.7705 201.664 27.7705C202.152 27.7705 202.58 27.9249 202.949 28.2337C203.327 28.5325 203.516 28.7965 203.516 29.0256C203.516 29.1949 203.362 29.3194 203.053 29.3991C201.748 29.7378 200.628 30.3703 199.691 31.2967C198.974 32.0139 198.616 32.8207 198.616 33.7172C198.616 34.3646 198.865 34.9125 199.363 35.3607C199.861 35.8189 200.523 36.048 201.35 36.048C202.067 36.048 202.794 35.7841 203.531 35.2562C204.278 34.7382 204.906 34.0608 205.414 33.2241C205.922 32.3874 206.176 31.4909 206.176 30.5347C206.176 29.5685 205.967 28.7517 205.548 28.0843C205.13 27.4169 204.587 26.8342 203.92 26.3361C203.252 25.8281 202.535 25.345 201.768 24.8868C201.111 24.4884 200.463 24.065 199.826 23.6168C199.198 23.1686 198.626 22.6556 198.108 22.0778C197.59 21.4901 197.171 20.8028 196.853 20.0159C196.544 19.219 196.389 18.2777 196.389 17.192C196.389 15.5783 196.748 14.1041 197.465 12.7693C198.192 11.4246 199.193 10.3538 200.468 9.55693C201.743 8.7501 203.213 8.34668 204.876 8.34668C206.33 8.34668 207.481 8.71026 208.328 9.4374C209.184 10.1546 209.612 11.2702 209.612 12.7843C209.612 13.4317 209.503 14.0991 209.284 14.7864C209.065 15.4638 208.756 16.0315 208.357 16.4897C207.909 16.9878 207.381 17.2368 206.774 17.2368C206.156 17.2368 205.847 17.0974 205.847 16.8185C205.847 16.7188 205.902 16.5844 206.012 16.415C206.42 15.7775 206.734 15.1052 206.953 14.398C207.182 13.6907 207.297 13.0482 207.297 12.4705C207.297 11.843 207.152 11.315 206.863 10.8867C206.574 10.4484 206.121 10.2293 205.504 10.2293C204.617 10.2293 203.765 10.5182 202.949 11.0959C202.132 11.6637 201.464 12.3958 200.946 13.2923C200.429 14.1788 200.17 15.1002 200.17 16.0564C200.17 17.0924 200.389 17.9889 200.827 18.7459C201.265 19.493 201.823 20.1653 202.5 20.763C203.188 21.3606 203.92 21.9334 204.697 22.4813C206.211 23.5371 207.331 24.4983 208.059 25.3649C209.085 26.5901 209.598 28.0245 209.598 29.6681C209.598 30.6741 209.383 31.6652 208.955 32.6414C208.537 33.6076 207.949 34.4792 207.192 35.2562C206.435 36.0431 205.543 36.6706 204.517 37.1388C203.501 37.6169 202.401 37.856 201.215 37.856ZM214.05 29.8324C214.309 29.8324 214.623 29.4539 214.991 28.6969C215.36 27.9398 215.719 27.0533 216.067 26.0373C216.426 25.0113 216.725 24.0601 216.964 23.1835C217.213 22.3069 217.347 21.7093 217.367 21.3905C217.297 21.271 217.183 21.1614 217.023 21.0618C216.864 20.9522 216.695 20.8975 216.515 20.8975C215.629 20.8975 214.907 21.7989 214.349 23.6019C213.851 25.2155 213.602 26.9736 213.602 28.8762C213.602 29.5137 213.751 29.8324 214.05 29.8324ZM220.624 32.8954C218.632 32.8954 217.512 30.8584 217.262 26.7844C216.854 28.1689 216.406 29.3095 215.918 30.206C215.071 31.7399 214.045 32.5069 212.84 32.5069C212.172 32.5069 211.654 32.3376 211.286 31.9989C210.917 31.6503 210.658 31.207 210.509 30.6691C210.35 30.1313 210.27 29.5834 210.27 29.0256C210.27 28.2686 210.325 27.4368 210.434 26.5304C210.544 25.614 210.723 24.7125 210.972 23.826C211.211 22.9295 211.535 22.1127 211.943 21.3756C212.352 20.6285 212.855 20.0309 213.452 19.5826C214.06 19.1244 214.772 18.8953 215.589 18.8953C216.366 18.8953 217.033 19.2589 217.591 19.986C217.661 19.6972 217.766 19.4581 217.905 19.2688C218.244 18.8206 218.861 18.5965 219.758 18.5965C220.385 18.5965 220.829 18.6861 221.087 18.8654C221.356 19.0447 221.491 19.3386 221.491 19.747C221.491 19.9263 221.476 20.1255 221.446 20.3446C221.396 20.6733 221.317 21.3756 221.207 22.4514C220.958 24.8918 220.833 26.9338 220.833 28.5773C220.833 28.8662 220.843 29.3194 220.863 29.937C220.893 30.5446 221.033 30.8484 221.282 30.8484C221.74 30.8484 222.397 29.8772 223.254 27.9349C223.882 26.5005 224.439 24.9964 224.927 23.4226C225.017 23.1437 225.211 23.0042 225.51 23.0042C225.759 23.0042 225.948 23.0889 226.078 23.2582C226.158 23.3678 226.197 23.4923 226.197 23.6317C226.197 23.7911 225.899 24.7274 225.301 26.4407C223.797 30.7438 222.238 32.8954 220.624 32.8954ZM228.065 32.8954C226.451 32.8954 225.455 31.5855 225.077 28.9658C224.947 28.0494 224.883 26.9537 224.883 25.6787C224.883 23.6467 224.982 21.1465 225.181 18.1781L225.495 13.6359C225.585 12.102 226.317 11.335 227.692 11.335C227.98 11.335 228.259 11.3549 228.528 11.3947C228.797 11.4346 229.021 11.5342 229.201 11.6936C229.38 11.8529 229.47 12.1119 229.47 12.4705C229.47 12.9486 229.435 13.4517 229.365 13.9796C229.186 15.3542 229.036 16.7338 228.917 18.1184C228.518 22.6207 228.319 26.0771 228.319 28.4877C228.319 28.5873 228.319 29.0057 228.319 29.7428C228.329 30.4799 228.459 30.8484 228.708 30.8484C229.176 30.8484 229.833 29.8772 230.68 27.9349C231.397 26.3112 231.96 24.8071 232.368 23.4226C232.458 23.1437 232.647 23.0042 232.936 23.0042C233.185 23.0042 233.374 23.0889 233.504 23.2582C233.583 23.3678 233.623 23.4923 233.623 23.6317C233.623 23.821 233.324 24.7573 232.727 26.4407C231.193 30.7438 229.639 32.8954 228.065 32.8954ZM236.208 32.8954C234.654 32.8954 233.514 32.4023 232.787 31.4162C232.059 30.4201 231.696 29.0505 231.696 27.3073C231.696 26.4009 231.82 25.4446 232.069 24.4386C232.318 23.4226 232.687 22.4763 233.175 21.5997C233.663 20.7132 234.266 19.991 234.983 19.4332C235.7 18.8754 236.527 18.5965 237.463 18.5965C239.177 18.5965 240.033 19.5577 240.033 21.4802C240.033 22.4065 239.844 23.3329 239.465 24.2593C239.097 25.1856 238.564 25.9576 237.867 26.5752C237.169 27.1828 236.338 27.5016 235.371 27.5314C235.371 28.0295 235.416 28.5524 235.506 29.1003C235.606 29.6382 235.78 30.0964 236.029 30.4749C236.278 30.8534 236.627 31.0427 237.075 31.0427C237.593 31.0427 238.106 30.8335 238.614 30.4151C239.54 29.6382 240.397 28.4678 241.184 26.9039C241.722 25.8182 242.17 24.6577 242.528 23.4226C242.608 23.1437 242.797 23.0042 243.096 23.0042C243.345 23.0042 243.534 23.0889 243.664 23.2582C243.744 23.3678 243.783 23.4923 243.783 23.6317C243.783 23.7313 243.614 24.2991 243.275 25.3351C242.648 27.2276 241.796 28.8762 240.721 30.2807C239.366 32.0238 237.862 32.8954 236.208 32.8954ZM235.431 26.3361C236.109 26.2764 236.691 25.9925 237.179 25.4845C237.677 24.9765 238.061 24.3639 238.33 23.6467C238.579 22.9793 238.703 22.3418 238.703 21.7342C238.703 20.8477 238.444 20.4044 237.926 20.4044C237.199 20.4044 236.582 21.2162 236.074 22.8398C235.725 23.9754 235.511 25.1408 235.431 26.3361Z" fill="#F24510"/>
<path d="M63.9536 81.11C63.3303 81.11 62.7949 81.0037 62.3476 80.791C61.9003 80.571 61.5556 80.2373 61.3136 79.79C61.0716 79.3353 60.9359 78.767 60.9066 78.085C60.8993 77.7623 60.8956 77.4543 60.8956 77.161C60.8956 76.8603 60.8993 76.5487 60.9066 76.226C60.9359 75.5513 61.0753 74.9903 61.3246 74.543C61.5813 74.0883 61.9333 73.751 62.3806 73.531C62.8353 73.3037 63.3596 73.19 63.9536 73.19C64.5549 73.19 65.0793 73.3037 65.5266 73.531C65.9813 73.751 66.3369 74.0883 66.5936 74.543C66.8503 74.9903 66.9896 75.5513 67.0116 76.226C67.0263 76.5487 67.0336 76.8603 67.0336 77.161C67.0336 77.4543 67.0263 77.7623 67.0116 78.085C66.9896 78.767 66.8539 79.3353 66.6046 79.79C66.3626 80.2373 66.0179 80.571 65.5706 80.791C65.1233 81.0037 64.5843 81.11 63.9536 81.11ZM63.9536 80.175C64.5183 80.175 64.9766 80.0063 65.3286 79.669C65.6879 79.3317 65.8823 78.7853 65.9116 78.03C65.9263 77.7 65.9336 77.4067 65.9336 77.15C65.9336 76.886 65.9263 76.5927 65.9116 76.27C65.8969 75.764 65.8016 75.3533 65.6256 75.038C65.4569 74.7227 65.2296 74.4917 64.9436 74.345C64.6576 74.1983 64.3276 74.125 63.9536 74.125C63.5943 74.125 63.2716 74.1983 62.9856 74.345C62.6996 74.4917 62.4686 74.7227 62.2926 75.038C62.1239 75.3533 62.0286 75.764 62.0066 76.27C61.9993 76.5927 61.9956 76.886 61.9956 77.15C61.9956 77.4067 61.9993 77.7 62.0066 78.03C62.0359 78.7853 62.2303 79.3317 62.5896 79.669C62.9489 80.0063 63.4036 80.175 63.9536 80.175ZM68.5049 81C68.4243 81 68.3619 80.978 68.3179 80.934C68.2739 80.8827 68.2519 80.8203 68.2519 80.747V73.564C68.2519 73.4833 68.2739 73.421 68.3179 73.377C68.3619 73.3257 68.4243 73.3 68.5049 73.3H69.0109C69.0989 73.3 69.1649 73.322 69.2089 73.366C69.2529 73.4027 69.2786 73.432 69.2859 73.454L72.9379 79.064V73.564C72.9379 73.4833 72.9599 73.421 73.0039 73.377C73.0479 73.3257 73.1103 73.3 73.1909 73.3H73.7189C73.7996 73.3 73.8619 73.3257 73.9059 73.377C73.9573 73.421 73.9829 73.4833 73.9829 73.564V80.736C73.9829 80.8093 73.9573 80.8717 73.9059 80.923C73.8619 80.9743 73.8033 81 73.7299 81H73.2019C73.1213 81 73.0589 80.978 73.0149 80.934C72.9783 80.89 72.9526 80.8607 72.9379 80.846L69.2969 75.291V80.747C69.2969 80.8203 69.2713 80.8827 69.2199 80.934C69.1759 80.978 69.1136 81 69.0329 81H68.5049ZM79.8037 81C79.7303 81 79.668 80.978 79.6167 80.934C79.5727 80.8827 79.5507 80.8203 79.5507 80.747V78.151L76.8997 73.663C76.8923 73.641 76.885 73.619 76.8777 73.597C76.8703 73.575 76.8667 73.5493 76.8667 73.52C76.8667 73.4613 76.8887 73.41 76.9327 73.366C76.9767 73.322 77.028 73.3 77.0867 73.3H77.6587C77.7247 73.3 77.7833 73.3183 77.8347 73.355C77.886 73.3843 77.9227 73.4283 77.9447 73.487L80.0897 77.051L82.2347 73.487C82.2713 73.4283 82.3117 73.3843 82.3557 73.355C82.407 73.3183 82.4657 73.3 82.5317 73.3H83.0927C83.1587 73.3 83.2137 73.322 83.2577 73.366C83.3017 73.41 83.3237 73.4613 83.3237 73.52C83.3237 73.5493 83.32 73.575 83.3127 73.597C83.3053 73.619 83.2943 73.641 83.2797 73.663L80.6397 78.151V80.747C80.6397 80.8203 80.614 80.8827 80.5627 80.934C80.5187 80.978 80.4563 81 80.3757 81H79.8037ZM86.6587 81.11C86.0354 81.11 85.5001 81.0037 85.0527 80.791C84.6054 80.571 84.2607 80.2373 84.0187 79.79C83.7767 79.3353 83.6411 78.767 83.6117 78.085C83.6044 77.7623 83.6007 77.4543 83.6007 77.161C83.6007 76.8603 83.6044 76.5487 83.6117 76.226C83.6411 75.5513 83.7804 74.9903 84.0297 74.543C84.2864 74.0883 84.6384 73.751 85.0857 73.531C85.5404 73.3037 86.0647 73.19 86.6587 73.19C87.2601 73.19 87.7844 73.3037 88.2317 73.531C88.6864 73.751 89.0421 74.0883 89.2987 74.543C89.5554 74.9903 89.6947 75.5513 89.7167 76.226C89.7314 76.5487 89.7387 76.8603 89.7387 77.161C89.7387 77.4543 89.7314 77.7623 89.7167 78.085C89.6947 78.767 89.5591 79.3353 89.3097 79.79C89.0677 80.2373 88.7231 80.571 88.2757 80.791C87.8284 81.0037 87.2894 81.11 86.6587 81.11ZM86.6587 80.175C87.2234 80.175 87.6817 80.0063 88.0337 79.669C88.3931 79.3317 88.5874 78.7853 88.6167 78.03C88.6314 77.7 88.6387 77.4067 88.6387 77.15C88.6387 76.886 88.6314 76.5927 88.6167 76.27C88.6021 75.764 88.5067 75.3533 88.3307 75.038C88.1621 74.7227 87.9347 74.4917 87.6487 74.345C87.3627 74.1983 87.0327 74.125 86.6587 74.125C86.2994 74.125 85.9767 74.1983 85.6907 74.345C85.4047 74.4917 85.1737 74.7227 84.9977 75.038C84.8291 75.3533 84.7337 75.764 84.7117 76.27C84.7044 76.5927 84.7007 76.886 84.7007 77.15C84.7007 77.4067 84.7044 77.7 84.7117 78.03C84.7411 78.7853 84.9354 79.3317 85.2947 79.669C85.6541 80.0063 86.1087 80.175 86.6587 80.175ZM93.8611 81.11C93.2451 81.11 92.7134 81 92.2661 80.78C91.8261 80.56 91.4851 80.2263 91.2431 79.779C91.0084 79.3243 90.8911 78.7413 90.8911 78.03V73.564C90.8911 73.4833 90.9131 73.421 90.9571 73.377C91.0011 73.3257 91.0634 73.3 91.1441 73.3H91.7051C91.7857 73.3 91.8481 73.3257 91.8921 73.377C91.9434 73.421 91.9691 73.4833 91.9691 73.564V78.052C91.9691 78.7707 92.1377 79.3023 92.4751 79.647C92.8124 79.9917 93.2744 80.164 93.8611 80.164C94.4404 80.164 94.8987 79.9917 95.2361 79.647C95.5807 79.3023 95.7531 78.7707 95.7531 78.052V73.564C95.7531 73.4833 95.7751 73.421 95.8191 73.377C95.8704 73.3257 95.9327 73.3 96.0061 73.3H96.5781C96.6514 73.3 96.7101 73.3257 96.7541 73.377C96.8054 73.421 96.8311 73.4833 96.8311 73.564V78.03C96.8311 78.7413 96.7101 79.3243 96.4681 79.779C96.2334 80.2263 95.8961 80.56 95.4561 80.78C95.0161 81 94.4844 81.11 93.8611 81.11ZM98.5379 81C98.4573 81 98.3949 80.978 98.3509 80.934C98.3069 80.8827 98.2849 80.8203 98.2849 80.747V73.564C98.2849 73.4833 98.3069 73.421 98.3509 73.377C98.3949 73.3257 98.4573 73.3 98.5379 73.3H101.222C102.051 73.3 102.707 73.4943 103.191 73.883C103.675 74.2717 103.917 74.8473 103.917 75.61C103.917 76.1747 103.774 76.6367 103.488 76.996C103.209 77.348 102.828 77.5937 102.344 77.733L104.038 80.659C104.06 80.703 104.071 80.7433 104.071 80.78C104.071 80.8387 104.045 80.89 103.994 80.934C103.95 80.978 103.899 81 103.84 81H103.312C103.187 81 103.096 80.967 103.037 80.901C102.978 80.835 102.927 80.769 102.883 80.703L101.288 77.909H99.3629V80.747C99.3629 80.8203 99.3373 80.8827 99.2859 80.934C99.2419 80.978 99.1796 81 99.0989 81H98.5379ZM99.3629 76.974H101.178C101.728 76.974 102.139 76.8603 102.41 76.633C102.681 76.3983 102.817 76.0537 102.817 75.599C102.817 75.1517 102.681 74.8107 102.41 74.576C102.146 74.3413 101.735 74.224 101.178 74.224H99.3629V76.974ZM107.672 81C107.592 81 107.529 80.978 107.485 80.934C107.441 80.8827 107.419 80.8203 107.419 80.747V73.564C107.419 73.4833 107.441 73.421 107.485 73.377C107.529 73.3257 107.592 73.3 107.672 73.3H110.466C111.009 73.3 111.478 73.388 111.874 73.564C112.278 73.74 112.589 74.004 112.809 74.356C113.029 74.7007 113.139 75.1333 113.139 75.654C113.139 76.1747 113.029 76.6073 112.809 76.952C112.589 77.2967 112.278 77.557 111.874 77.733C111.478 77.909 111.009 77.997 110.466 77.997H108.519V80.747C108.519 80.8203 108.494 80.8827 108.442 80.934C108.398 80.978 108.336 81 108.255 81H107.672ZM108.508 77.073H110.411C110.954 77.073 111.361 76.952 111.632 76.71C111.904 76.468 112.039 76.116 112.039 75.654C112.039 75.1993 111.907 74.8473 111.643 74.598C111.379 74.3487 110.969 74.224 110.411 74.224H108.508V77.073ZM114.345 81C114.264 81 114.202 80.978 114.158 80.934C114.114 80.8827 114.092 80.8203 114.092 80.747V73.564C114.092 73.4833 114.114 73.421 114.158 73.377C114.202 73.3257 114.264 73.3 114.345 73.3H118.888C118.969 73.3 119.031 73.3257 119.075 73.377C119.119 73.421 119.141 73.4833 119.141 73.564V73.982C119.141 74.0627 119.119 74.125 119.075 74.169C119.031 74.213 118.969 74.235 118.888 74.235H115.148V76.644H118.646C118.727 76.644 118.789 76.6697 118.833 76.721C118.877 76.765 118.899 76.8273 118.899 76.908V77.315C118.899 77.3883 118.877 77.4507 118.833 77.502C118.789 77.546 118.727 77.568 118.646 77.568H115.148V80.065H118.976C119.057 80.065 119.119 80.087 119.163 80.131C119.207 80.175 119.229 80.2373 119.229 80.318V80.747C119.229 80.8203 119.207 80.8827 119.163 80.934C119.119 80.978 119.057 81 118.976 81H114.345ZM122.314 81C122.24 81 122.178 80.978 122.127 80.934C122.083 80.8827 122.061 80.8203 122.061 80.747V74.279H119.949C119.875 74.279 119.813 74.257 119.762 74.213C119.718 74.1617 119.696 74.0993 119.696 74.026V73.564C119.696 73.4833 119.718 73.421 119.762 73.377C119.813 73.3257 119.875 73.3 119.949 73.3H125.251C125.331 73.3 125.394 73.3257 125.438 73.377C125.489 73.421 125.515 73.4833 125.515 73.564V74.026C125.515 74.0993 125.489 74.1617 125.438 74.213C125.394 74.257 125.331 74.279 125.251 74.279H123.15V80.747C123.15 80.8203 123.124 80.8827 123.073 80.934C123.029 80.978 122.966 81 122.886 81H122.314ZM126.209 75.313C126.15 75.313 126.103 75.291 126.066 75.247C126.037 75.203 126.026 75.148 126.033 75.082L126.286 73.509C126.301 73.421 126.33 73.3477 126.374 73.289C126.425 73.223 126.499 73.19 126.594 73.19H127.331C127.382 73.19 127.423 73.212 127.452 73.256C127.489 73.2927 127.507 73.333 127.507 73.377C127.507 73.4357 127.492 73.4943 127.463 73.553L126.891 75.06C126.862 75.1333 126.821 75.1957 126.77 75.247C126.726 75.291 126.656 75.313 126.561 75.313H126.209ZM130.87 81.11C130.232 81.11 129.697 81.0147 129.264 80.824C128.831 80.626 128.498 80.373 128.263 80.065C128.036 79.7497 127.915 79.416 127.9 79.064C127.9 79.0053 127.922 78.954 127.966 78.91C128.017 78.8587 128.076 78.833 128.142 78.833H128.703C128.791 78.833 128.857 78.855 128.901 78.899C128.945 78.943 128.974 78.9943 128.989 79.053C129.026 79.229 129.114 79.405 129.253 79.581C129.4 79.7497 129.601 79.8927 129.858 80.01C130.122 80.12 130.459 80.175 130.87 80.175C131.501 80.175 131.963 80.065 132.256 79.845C132.557 79.6177 132.707 79.317 132.707 78.943C132.707 78.6863 132.626 78.481 132.465 78.327C132.311 78.1657 132.073 78.0227 131.75 77.898C131.427 77.7733 131.009 77.6377 130.496 77.491C129.961 77.337 129.517 77.1683 129.165 76.985C128.813 76.8017 128.549 76.5743 128.373 76.303C128.204 76.0317 128.12 75.687 128.12 75.269C128.12 74.873 128.226 74.521 128.439 74.213C128.652 73.8977 128.956 73.6483 129.352 73.465C129.755 73.2817 130.243 73.19 130.815 73.19C131.27 73.19 131.666 73.2523 132.003 73.377C132.348 73.4943 132.634 73.6557 132.861 73.861C133.088 74.059 133.261 74.2753 133.378 74.51C133.495 74.7373 133.558 74.961 133.565 75.181C133.565 75.2323 133.547 75.2837 133.51 75.335C133.473 75.379 133.415 75.401 133.334 75.401H132.751C132.7 75.401 132.645 75.3863 132.586 75.357C132.535 75.3277 132.494 75.2727 132.465 75.192C132.421 74.8913 132.252 74.6383 131.959 74.433C131.666 74.2277 131.284 74.125 130.815 74.125C130.338 74.125 129.95 74.2167 129.649 74.4C129.356 74.5833 129.209 74.8693 129.209 75.258C129.209 75.5073 129.279 75.7163 129.418 75.885C129.557 76.0463 129.777 76.1893 130.078 76.314C130.379 76.4387 130.771 76.5707 131.255 76.71C131.842 76.8713 132.322 77.0437 132.696 77.227C133.07 77.403 133.345 77.6267 133.521 77.898C133.704 78.162 133.796 78.503 133.796 78.921C133.796 79.383 133.675 79.779 133.433 80.109C133.191 80.4317 132.85 80.681 132.41 80.857C131.977 81.0257 131.464 81.11 130.87 81.11ZM137.417 81C137.336 81 137.274 80.978 137.23 80.934C137.186 80.8827 137.164 80.8203 137.164 80.747V73.564C137.164 73.4833 137.186 73.421 137.23 73.377C137.274 73.3257 137.336 73.3 137.417 73.3H141.905C141.986 73.3 142.048 73.3257 142.092 73.377C142.136 73.421 142.158 73.4833 142.158 73.564V74.004C142.158 74.0847 142.136 74.147 142.092 74.191C142.048 74.235 141.986 74.257 141.905 74.257H138.231V76.82H141.685C141.766 76.82 141.828 76.8457 141.872 76.897C141.916 76.941 141.938 77.0033 141.938 77.084V77.524C141.938 77.5973 141.916 77.6597 141.872 77.711C141.828 77.755 141.766 77.777 141.685 77.777H138.231V80.747C138.231 80.8203 138.205 80.8827 138.154 80.934C138.11 80.978 138.048 81 137.967 81H137.417ZM142.213 81C142.154 81 142.103 80.978 142.059 80.934C142.015 80.89 141.993 80.8387 141.993 80.78C141.993 80.7433 141.997 80.703 142.004 80.659L144.732 73.542C144.761 73.4687 144.802 73.41 144.853 73.366C144.904 73.322 144.981 73.3 145.084 73.3H145.832C145.927 73.3 146.001 73.322 146.052 73.366C146.111 73.41 146.155 73.4687 146.184 73.542L148.901 80.659C148.916 80.703 148.923 80.7433 148.923 80.78C148.923 80.8387 148.901 80.89 148.857 80.934C148.813 80.978 148.762 81 148.703 81H148.142C148.054 81 147.988 80.978 147.944 80.934C147.907 80.89 147.882 80.8497 147.867 80.813L147.262 79.251H143.654L143.049 80.813C143.042 80.8497 143.016 80.89 142.972 80.934C142.928 80.978 142.862 81 142.774 81H142.213ZM143.973 78.305H146.943L145.458 74.4L143.973 78.305ZM151.465 81C151.355 81 151.267 80.9743 151.201 80.923C151.142 80.8717 151.095 80.802 151.058 80.714L148.605 73.641C148.59 73.597 148.583 73.5567 148.583 73.52C148.583 73.4613 148.605 73.41 148.649 73.366C148.693 73.322 148.744 73.3 148.803 73.3H149.375C149.463 73.3 149.529 73.3257 149.573 73.377C149.624 73.421 149.654 73.4613 149.661 73.498L151.817 79.735L153.973 73.498C153.988 73.4613 154.017 73.421 154.061 73.377C154.105 73.3257 154.171 73.3 154.259 73.3H154.831C154.89 73.3 154.941 73.322 154.985 73.366C155.036 73.41 155.062 73.4613 155.062 73.52C155.062 73.5567 155.055 73.597 155.04 73.641L152.576 80.714C152.547 80.802 152.499 80.8717 152.433 80.923C152.374 80.9743 152.29 81 152.18 81H151.465ZM158.536 81.11C157.912 81.11 157.377 81.0037 156.93 80.791C156.482 80.571 156.138 80.2373 155.896 79.79C155.654 79.3353 155.518 78.767 155.489 78.085C155.481 77.7623 155.478 77.4543 155.478 77.161C155.478 76.8603 155.481 76.5487 155.489 76.226C155.518 75.5513 155.657 74.9903 155.907 74.543C156.163 74.0883 156.515 73.751 156.963 73.531C157.417 73.3037 157.942 73.19 158.536 73.19C159.137 73.19 159.661 73.3037 160.109 73.531C160.563 73.751 160.919 74.0883 161.176 74.543C161.432 74.9903 161.572 75.5513 161.594 76.226C161.608 76.5487 161.616 76.8603 161.616 77.161C161.616 77.4543 161.608 77.7623 161.594 78.085C161.572 78.767 161.436 79.3353 161.187 79.79C160.945 80.2373 160.6 80.571 160.153 80.791C159.705 81.0037 159.166 81.11 158.536 81.11ZM158.536 80.175C159.1 80.175 159.559 80.0063 159.911 79.669C160.27 79.3317 160.464 78.7853 160.494 78.03C160.508 77.7 160.516 77.4067 160.516 77.15C160.516 76.886 160.508 76.5927 160.494 76.27C160.479 75.764 160.384 75.3533 160.208 75.038C160.039 74.7227 159.812 74.4917 159.526 74.345C159.24 74.1983 158.91 74.125 158.536 74.125C158.176 74.125 157.854 74.1983 157.568 74.345C157.282 74.4917 157.051 74.7227 156.875 75.038C156.706 75.3533 156.611 75.764 156.589 76.27C156.581 76.5927 156.578 76.886 156.578 77.15C156.578 77.4067 156.581 77.7 156.589 78.03C156.618 78.7853 156.812 79.3317 157.172 79.669C157.531 80.0063 157.986 80.175 158.536 80.175ZM165.738 81.11C165.122 81.11 164.59 81 164.143 80.78C163.703 80.56 163.362 80.2263 163.12 79.779C162.885 79.3243 162.768 78.7413 162.768 78.03V73.564C162.768 73.4833 162.79 73.421 162.834 73.377C162.878 73.3257 162.94 73.3 163.021 73.3H163.582C163.663 73.3 163.725 73.3257 163.769 73.377C163.82 73.421 163.846 73.4833 163.846 73.564V78.052C163.846 78.7707 164.015 79.3023 164.352 79.647C164.689 79.9917 165.151 80.164 165.738 80.164C166.317 80.164 166.776 79.9917 167.113 79.647C167.458 79.3023 167.63 78.7707 167.63 78.052V73.564C167.63 73.4833 167.652 73.421 167.696 73.377C167.747 73.3257 167.81 73.3 167.883 73.3H168.455C168.528 73.3 168.587 73.3257 168.631 73.377C168.682 73.421 168.708 73.4833 168.708 73.564V78.03C168.708 78.7413 168.587 79.3243 168.345 79.779C168.11 80.2263 167.773 80.56 167.333 80.78C166.893 81 166.361 81.11 165.738 81.11ZM170.415 81C170.334 81 170.272 80.978 170.228 80.934C170.184 80.8827 170.162 80.8203 170.162 80.747V73.564C170.162 73.4833 170.184 73.421 170.228 73.377C170.272 73.3257 170.334 73.3 170.415 73.3H173.099C173.927 73.3 174.584 73.4943 175.068 73.883C175.552 74.2717 175.794 74.8473 175.794 75.61C175.794 76.1747 175.651 76.6367 175.365 76.996C175.086 77.348 174.705 77.5937 174.221 77.733L175.915 80.659C175.937 80.703 175.948 80.7433 175.948 80.78C175.948 80.8387 175.922 80.89 175.871 80.934C175.827 80.978 175.775 81 175.717 81H175.189C175.064 81 174.972 80.967 174.914 80.901C174.855 80.835 174.804 80.769 174.76 80.703L173.165 77.909H171.24V80.747C171.24 80.8203 171.214 80.8827 171.163 80.934C171.119 80.978 171.056 81 170.976 81H170.415ZM171.24 76.974H173.055C173.605 76.974 174.015 76.8603 174.287 76.633C174.558 76.3983 174.694 76.0537 174.694 75.599C174.694 75.1517 174.558 74.8107 174.287 74.576C174.023 74.3413 173.612 74.224 173.055 74.224H171.24V76.974ZM177.238 81C177.157 81 177.095 80.978 177.051 80.934C177.007 80.8827 176.985 80.8203 176.985 80.747V73.553C176.985 73.4797 177.007 73.421 177.051 73.377C177.095 73.3257 177.157 73.3 177.238 73.3H177.821C177.894 73.3 177.953 73.3257 177.997 73.377C178.048 73.421 178.074 73.4797 178.074 73.553V80.747C178.074 80.8203 178.048 80.8827 177.997 80.934C177.953 80.978 177.894 81 177.821 81H177.238ZM181.544 81C181.47 81 181.408 80.978 181.357 80.934C181.313 80.8827 181.291 80.8203 181.291 80.747V74.279H179.179C179.105 74.279 179.043 74.257 178.992 74.213C178.948 74.1617 178.926 74.0993 178.926 74.026V73.564C178.926 73.4833 178.948 73.421 178.992 73.377C179.043 73.3257 179.105 73.3 179.179 73.3H184.481C184.561 73.3 184.624 73.3257 184.668 73.377C184.719 73.421 184.745 73.4833 184.745 73.564V74.026C184.745 74.0993 184.719 74.1617 184.668 74.213C184.624 74.257 184.561 74.279 184.481 74.279H182.38V80.747C182.38 80.8203 182.354 80.8827 182.303 80.934C182.259 80.978 182.196 81 182.116 81H181.544ZM185.846 81C185.765 81 185.703 80.978 185.659 80.934C185.615 80.8827 185.593 80.8203 185.593 80.747V73.564C185.593 73.4833 185.615 73.421 185.659 73.377C185.703 73.3257 185.765 73.3 185.846 73.3H190.389C190.469 73.3 190.532 73.3257 190.576 73.377C190.62 73.421 190.642 73.4833 190.642 73.564V73.982C190.642 74.0627 190.62 74.125 190.576 74.169C190.532 74.213 190.469 74.235 190.389 74.235H186.649V76.644H190.147C190.227 76.644 190.29 76.6697 190.334 76.721C190.378 76.765 190.4 76.8273 190.4 76.908V77.315C190.4 77.3883 190.378 77.4507 190.334 77.502C190.29 77.546 190.227 77.568 190.147 77.568H186.649V80.065H190.477C190.557 80.065 190.62 80.087 190.664 80.131C190.708 80.175 190.73 80.2373 190.73 80.318V80.747C190.73 80.8203 190.708 80.8827 190.664 80.934C190.62 80.978 190.557 81 190.477 81H185.846ZM194.354 81.11C193.716 81.11 193.18 81.0147 192.748 80.824C192.315 80.626 191.981 80.373 191.747 80.065C191.519 79.7497 191.398 79.416 191.384 79.064C191.384 79.0053 191.406 78.954 191.45 78.91C191.501 78.8587 191.56 78.833 191.626 78.833H192.187C192.275 78.833 192.341 78.855 192.385 78.899C192.429 78.943 192.458 78.9943 192.473 79.053C192.509 79.229 192.597 79.405 192.737 79.581C192.883 79.7497 193.085 79.8927 193.342 80.01C193.606 80.12 193.943 80.175 194.354 80.175C194.984 80.175 195.446 80.065 195.74 79.845C196.04 79.6177 196.191 79.317 196.191 78.943C196.191 78.6863 196.11 78.481 195.949 78.327C195.795 78.1657 195.556 78.0227 195.234 77.898C194.911 77.7733 194.493 77.6377 193.98 77.491C193.444 77.337 193.001 77.1683 192.649 76.985C192.297 76.8017 192.033 76.5743 191.857 76.303C191.688 76.0317 191.604 75.687 191.604 75.269C191.604 74.873 191.71 74.521 191.923 74.213C192.135 73.8977 192.44 73.6483 192.836 73.465C193.239 73.2817 193.727 73.19 194.299 73.19C194.753 73.19 195.149 73.2523 195.487 73.377C195.831 73.4943 196.117 73.6557 196.345 73.861C196.572 74.059 196.744 74.2753 196.862 74.51C196.979 74.7373 197.041 74.961 197.049 75.181C197.049 75.2323 197.03 75.2837 196.994 75.335C196.957 75.379 196.898 75.401 196.818 75.401H196.235C196.183 75.401 196.128 75.3863 196.07 75.357C196.018 75.3277 195.978 75.2727 195.949 75.192C195.905 74.8913 195.736 74.6383 195.443 74.433C195.149 74.2277 194.768 74.125 194.299 74.125C193.822 74.125 193.433 74.2167 193.133 74.4C192.839 74.5833 192.693 74.8693 192.693 75.258C192.693 75.5073 192.762 75.7163 192.902 75.885C193.041 76.0463 193.261 76.1893 193.562 76.314C193.862 76.4387 194.255 76.5707 194.739 76.71C195.325 76.8713 195.806 77.0437 196.18 77.227C196.554 77.403 196.829 77.6267 197.005 77.898C197.188 78.162 197.28 78.503 197.28 78.921C197.28 79.383 197.159 79.779 196.917 80.109C196.675 80.4317 196.334 80.681 195.894 80.857C195.461 81.0257 194.948 81.11 194.354 81.11Z" fill="#F24510"/>
<path d="M46 45H213L204.278 56L213 67H46L54.7222 56L46 45Z" fill="#F24510"/>
<path d="M59.7452 61C59.6519 61 59.5726 60.9673 59.5072 60.902C59.4419 60.8367 59.4092 60.7573 59.4092 60.664V51.55C59.4092 51.4473 59.4419 51.3633 59.5072 51.298C59.5726 51.2327 59.6519 51.2 59.7452 51.2H65.9052C66.0079 51.2 66.0919 51.2327 66.1572 51.298C66.2226 51.3633 66.2552 51.4473 66.2552 51.55V52.474C66.2552 52.5673 66.2226 52.6467 66.1572 52.712C66.0919 52.7773 66.0079 52.81 65.9052 52.81H61.2992V55.288H65.5972C65.6999 55.288 65.7839 55.3207 65.8492 55.386C65.9146 55.442 65.9472 55.5213 65.9472 55.624V56.492C65.9472 56.5947 65.9146 56.6787 65.8492 56.744C65.7839 56.8 65.6999 56.828 65.5972 56.828H61.2992V59.39H66.0172C66.1199 59.39 66.2039 59.4227 66.2692 59.488C66.3346 59.5533 66.3672 59.6373 66.3672 59.74V60.664C66.3672 60.7573 66.3346 60.8367 66.2692 60.902C66.2039 60.9673 66.1199 61 66.0172 61H59.7452ZM67.9642 61C67.8709 61 67.7915 60.9673 67.7262 60.902C67.6609 60.8367 67.6282 60.7573 67.6282 60.664V51.55C67.6282 51.4473 67.6609 51.3633 67.7262 51.298C67.7915 51.2327 67.8709 51.2 67.9642 51.2H69.0422C69.1729 51.2 69.2662 51.2327 69.3222 51.298C69.3875 51.354 69.4295 51.396 69.4482 51.424L73.4802 57.696V51.55C73.4802 51.4473 73.5082 51.3633 73.5642 51.298C73.6295 51.2327 73.7135 51.2 73.8162 51.2H74.9922C75.0949 51.2 75.1789 51.2327 75.2442 51.298C75.3095 51.3633 75.3422 51.4473 75.3422 51.55V60.65C75.3422 60.7527 75.3095 60.8367 75.2442 60.902C75.1789 60.9673 75.0995 61 75.0062 61H73.9142C73.7835 61 73.6902 60.9673 73.6342 60.902C73.5782 60.8367 73.5362 60.7947 73.5082 60.776L69.4902 54.644V60.664C69.4902 60.7573 69.4575 60.8367 69.3922 60.902C69.3269 60.9673 69.2429 61 69.1402 61H67.9642ZM80.2007 61.14C79.6967 61.14 79.216 61.0793 78.7587 60.958C78.3107 60.8273 77.9093 60.6313 77.5547 60.37C77.2 60.1087 76.9153 59.7867 76.7007 59.404C76.4953 59.0213 76.388 58.5687 76.3787 58.046C76.3787 57.962 76.4067 57.892 76.4627 57.836C76.5187 57.7707 76.5887 57.738 76.6727 57.738H78.0027C78.124 57.738 78.2127 57.7707 78.2687 57.836C78.334 57.9013 78.3853 57.99 78.4227 58.102C78.4693 58.438 78.5767 58.7133 78.7447 58.928C78.9127 59.1333 79.1227 59.2873 79.3747 59.39C79.636 59.4833 79.9253 59.53 80.2427 59.53C80.8307 59.53 81.2787 59.3387 81.5867 58.956C81.904 58.5733 82.0627 58.0413 82.0627 57.36V52.852H77.3167C77.214 52.852 77.13 52.8193 77.0647 52.754C77.0087 52.6887 76.9807 52.6093 76.9807 52.516V51.536C76.9807 51.4427 77.0087 51.3633 77.0647 51.298C77.13 51.2327 77.214 51.2 77.3167 51.2H83.7147C83.8173 51.2 83.9013 51.2327 83.9667 51.298C84.032 51.3633 84.0647 51.4473 84.0647 51.55V57.416C84.0647 58.1907 83.9013 58.858 83.5747 59.418C83.2573 59.978 82.8093 60.4073 82.2307 60.706C81.6613 60.9953 80.9847 61.14 80.2007 61.14ZM89.4455 61.14C88.6148 61.14 87.9008 61.0047 87.3035 60.734C86.7061 60.454 86.2395 60.0293 85.9035 59.46C85.5675 58.8813 85.3855 58.1627 85.3575 57.304C85.3481 56.9027 85.3435 56.506 85.3435 56.114C85.3435 55.722 85.3481 55.3207 85.3575 54.91C85.3855 54.0607 85.5721 53.3513 85.9175 52.782C86.2628 52.2127 86.7341 51.7833 87.3315 51.494C87.9381 51.2047 88.6428 51.06 89.4455 51.06C90.2481 51.06 90.9528 51.2047 91.5595 51.494C92.1661 51.7833 92.6421 52.2127 92.9875 52.782C93.3328 53.3513 93.5195 54.0607 93.5475 54.91C93.5661 55.3207 93.5755 55.722 93.5755 56.114C93.5755 56.506 93.5661 56.9027 93.5475 57.304C93.5195 58.1627 93.3375 58.8813 93.0015 59.46C92.6655 60.0293 92.1941 60.454 91.5875 60.734C90.9901 61.0047 90.2761 61.14 89.4455 61.14ZM89.4455 59.53C90.0521 59.53 90.5468 59.3527 90.9295 58.998C91.3121 58.634 91.5175 58.046 91.5455 57.234C91.5641 56.8233 91.5735 56.4453 91.5735 56.1C91.5735 55.7453 91.5641 55.3673 91.5455 54.966C91.5268 54.4247 91.4241 53.986 91.2375 53.65C91.0601 53.3047 90.8175 53.0573 90.5095 52.908C90.2015 52.7493 89.8468 52.67 89.4455 52.67C89.0535 52.67 88.7035 52.7493 88.3955 52.908C88.0875 53.0573 87.8401 53.3047 87.6535 53.65C87.4761 53.986 87.3781 54.4247 87.3595 54.966C87.3501 55.3673 87.3455 55.7453 87.3455 56.1C87.3455 56.4453 87.3501 56.8233 87.3595 57.234C87.3875 58.046 87.5928 58.634 87.9755 58.998C88.3581 59.3527 88.8481 59.53 89.4455 59.53ZM97.3983 61C97.305 61 97.2257 60.9673 97.1603 60.902C97.095 60.8367 97.0623 60.7573 97.0623 60.664V57.5L93.7583 51.648C93.749 51.6293 93.7397 51.606 93.7303 51.578C93.721 51.55 93.7163 51.522 93.7163 51.494C93.7163 51.41 93.7443 51.34 93.8003 51.284C93.8563 51.228 93.9217 51.2 93.9963 51.2H95.2423C95.3543 51.2 95.443 51.228 95.5083 51.284C95.583 51.34 95.6343 51.4007 95.6623 51.466L98.0423 55.54L100.408 51.466C100.446 51.4007 100.497 51.34 100.562 51.284C100.637 51.228 100.73 51.2 100.842 51.2H102.074C102.158 51.2 102.228 51.228 102.284 51.284C102.34 51.34 102.368 51.41 102.368 51.494C102.368 51.522 102.364 51.55 102.354 51.578C102.354 51.606 102.345 51.6293 102.326 51.648L99.0223 57.5V60.664C99.0223 60.7573 98.9897 60.8367 98.9243 60.902C98.859 60.9673 98.775 61 98.6723 61H97.3983ZM109.498 61.14C108.686 61.14 107.982 61.0047 107.384 60.734C106.787 60.454 106.325 60.0293 105.998 59.46C105.672 58.8813 105.508 58.144 105.508 57.248V51.55C105.508 51.4473 105.541 51.3633 105.606 51.298C105.672 51.2327 105.751 51.2 105.844 51.2H107.118C107.221 51.2 107.3 51.2327 107.356 51.298C107.422 51.3633 107.454 51.4473 107.454 51.55V57.248C107.454 58.0133 107.636 58.5827 108 58.956C108.364 59.32 108.864 59.502 109.498 59.502C110.133 59.502 110.628 59.32 110.982 58.956C111.346 58.5827 111.528 58.0133 111.528 57.248V51.55C111.528 51.4473 111.561 51.3633 111.626 51.298C111.692 51.2327 111.776 51.2 111.878 51.2H113.138C113.241 51.2 113.32 51.2327 113.376 51.298C113.442 51.3633 113.474 51.4473 113.474 51.55V57.248C113.474 58.144 113.311 58.8813 112.984 59.46C112.667 60.0293 112.21 60.454 111.612 60.734C111.024 61.0047 110.32 61.14 109.498 61.14ZM115.419 61C115.325 61 115.246 60.9673 115.181 60.902C115.115 60.8367 115.083 60.7573 115.083 60.664V51.55C115.083 51.4473 115.115 51.3633 115.181 51.298C115.246 51.2327 115.325 51.2 115.419 51.2H119.171C119.899 51.2 120.533 51.3167 121.075 51.55C121.616 51.774 122.036 52.1193 122.335 52.586C122.633 53.0433 122.783 53.6173 122.783 54.308C122.783 55.008 122.633 55.5867 122.335 56.044C122.036 56.492 121.616 56.828 121.075 57.052C120.533 57.276 119.899 57.388 119.171 57.388H117.085V60.664C117.085 60.7573 117.052 60.8367 116.987 60.902C116.931 60.9673 116.851 61 116.749 61H115.419ZM117.057 55.834H119.101C119.642 55.834 120.057 55.708 120.347 55.456C120.636 55.1947 120.781 54.812 120.781 54.308C120.781 53.8413 120.645 53.468 120.375 53.188C120.104 52.8987 119.679 52.754 119.101 52.754H117.057V55.834ZM128.366 61C128.273 61 128.194 60.9673 128.128 60.902C128.063 60.8367 128.03 60.7573 128.03 60.664V52.922H125.44C125.347 52.922 125.268 52.8893 125.202 52.824C125.137 52.7587 125.104 52.6793 125.104 52.586V51.55C125.104 51.4473 125.137 51.3633 125.202 51.298C125.268 51.2327 125.347 51.2 125.44 51.2H132.58C132.683 51.2 132.767 51.2327 132.832 51.298C132.898 51.3633 132.93 51.4473 132.93 51.55V52.586C132.93 52.6793 132.898 52.7587 132.832 52.824C132.767 52.8893 132.683 52.922 132.58 52.922H130.004V60.664C130.004 60.7573 129.972 60.8367 129.906 60.902C129.841 60.9673 129.757 61 129.654 61H128.366ZM137.449 61.14C136.618 61.14 135.904 61.0047 135.307 60.734C134.71 60.454 134.243 60.0293 133.907 59.46C133.571 58.8813 133.389 58.1627 133.361 57.304C133.352 56.9027 133.347 56.506 133.347 56.114C133.347 55.722 133.352 55.3207 133.361 54.91C133.389 54.0607 133.576 53.3513 133.921 52.782C134.266 52.2127 134.738 51.7833 135.335 51.494C135.942 51.2047 136.646 51.06 137.449 51.06C138.252 51.06 138.956 51.2047 139.563 51.494C140.17 51.7833 140.646 52.2127 140.991 52.782C141.336 53.3513 141.523 54.0607 141.551 54.91C141.57 55.3207 141.579 55.722 141.579 56.114C141.579 56.506 141.57 56.9027 141.551 57.304C141.523 58.1627 141.341 58.8813 141.005 59.46C140.669 60.0293 140.198 60.454 139.591 60.734C138.994 61.0047 138.28 61.14 137.449 61.14ZM137.449 59.53C138.056 59.53 138.55 59.3527 138.933 58.998C139.316 58.634 139.521 58.046 139.549 57.234C139.568 56.8233 139.577 56.4453 139.577 56.1C139.577 55.7453 139.568 55.3673 139.549 54.966C139.53 54.4247 139.428 53.986 139.241 53.65C139.064 53.3047 138.821 53.0573 138.513 52.908C138.205 52.7493 137.85 52.67 137.449 52.67C137.057 52.67 136.707 52.7493 136.399 52.908C136.091 53.0573 135.844 53.3047 135.657 53.65C135.48 53.986 135.382 54.4247 135.363 54.966C135.354 55.3673 135.349 55.7453 135.349 56.1C135.349 56.4453 135.354 56.8233 135.363 57.234C135.391 58.046 135.596 58.634 135.979 58.998C136.362 59.3527 136.852 59.53 137.449 59.53ZM145.511 61C145.417 61 145.338 60.9673 145.273 60.902C145.207 60.8367 145.175 60.7573 145.175 60.664V59.95C145.175 59.866 145.193 59.768 145.231 59.656C145.277 59.5347 145.375 59.4133 145.525 59.292L147.737 57.094C148.353 56.6087 148.847 56.198 149.221 55.862C149.603 55.5167 149.879 55.204 150.047 54.924C150.224 54.6347 150.313 54.35 150.313 54.07C150.313 53.65 150.196 53.3093 149.963 53.048C149.739 52.7867 149.379 52.656 148.885 52.656C148.558 52.656 148.283 52.726 148.059 52.866C147.835 52.9967 147.657 53.174 147.527 53.398C147.405 53.622 147.321 53.8693 147.275 54.14C147.256 54.2613 147.205 54.3453 147.121 54.392C147.037 54.4387 146.953 54.462 146.869 54.462H145.623C145.539 54.462 145.469 54.434 145.413 54.378C145.357 54.322 145.329 54.2567 145.329 54.182C145.338 53.7807 145.422 53.3933 145.581 53.02C145.739 52.6373 145.968 52.3013 146.267 52.012C146.575 51.7133 146.948 51.4753 147.387 51.298C147.825 51.1207 148.32 51.032 148.871 51.032C149.645 51.032 150.285 51.1627 150.789 51.424C151.302 51.6853 151.685 52.04 151.937 52.488C152.198 52.936 152.329 53.44 152.329 54C152.329 54.4387 152.245 54.8447 152.077 55.218C151.909 55.582 151.666 55.9367 151.349 56.282C151.031 56.618 150.649 56.9633 150.201 57.318L148.213 59.334H152.203C152.305 59.334 152.385 59.3667 152.441 59.432C152.506 59.488 152.539 59.5673 152.539 59.67V60.664C152.539 60.7573 152.506 60.8367 152.441 60.902C152.385 60.9673 152.305 61 152.203 61H145.511ZM157.007 61.154C156.204 61.154 155.527 61.0233 154.977 60.762C154.426 60.4913 154.006 60.1413 153.717 59.712C153.437 59.2827 153.287 58.8253 153.269 58.34C153.259 58.256 153.283 58.1907 153.339 58.144C153.404 58.088 153.479 58.06 153.563 58.06H154.865C154.967 58.06 155.051 58.0833 155.117 58.13C155.191 58.1673 155.247 58.2373 155.285 58.34C155.378 58.62 155.509 58.8487 155.677 59.026C155.854 59.2033 156.055 59.334 156.279 59.418C156.512 59.502 156.755 59.544 157.007 59.544C157.343 59.544 157.646 59.4787 157.917 59.348C158.197 59.208 158.421 59.0027 158.589 58.732C158.757 58.4613 158.841 58.13 158.841 57.738C158.841 57.3927 158.761 57.094 158.603 56.842C158.444 56.59 158.225 56.394 157.945 56.254C157.674 56.1047 157.361 56.03 157.007 56.03C156.745 56.03 156.531 56.0627 156.363 56.128C156.195 56.1933 156.05 56.268 155.929 56.352C155.817 56.436 155.714 56.5107 155.621 56.576C155.537 56.6413 155.439 56.674 155.327 56.674H154.039C153.955 56.674 153.88 56.646 153.815 56.59C153.759 56.5247 153.731 56.45 153.731 56.366L154.221 51.578C154.23 51.4567 154.272 51.3633 154.347 51.298C154.421 51.2327 154.51 51.2 154.613 51.2H159.877C159.97 51.2 160.049 51.2327 160.115 51.298C160.18 51.3633 160.213 51.4427 160.213 51.536V52.474C160.213 52.5673 160.18 52.6467 160.115 52.712C160.049 52.7773 159.97 52.81 159.877 52.81H155.831L155.607 55.092C155.775 54.98 155.999 54.8727 156.279 54.77C156.559 54.6673 156.946 54.616 157.441 54.616C157.889 54.616 158.313 54.6907 158.715 54.84C159.125 54.98 159.489 55.19 159.807 55.47C160.124 55.7407 160.371 56.072 160.549 56.464C160.735 56.8467 160.829 57.2853 160.829 57.78C160.829 58.4613 160.67 59.054 160.353 59.558C160.035 60.062 159.592 60.454 159.023 60.734C158.453 61.014 157.781 61.154 157.007 61.154ZM162.454 61C162.258 61 162.16 60.9067 162.16 60.72C162.16 60.664 162.179 60.6127 162.216 60.566L169.118 51.466C169.184 51.382 169.249 51.3167 169.314 51.27C169.38 51.2233 169.473 51.2 169.594 51.2H170.336C170.532 51.2 170.63 51.2933 170.63 51.48C170.63 51.536 170.612 51.5873 170.574 51.634L163.672 60.734C163.607 60.818 163.542 60.8833 163.476 60.93C163.42 60.9767 163.327 61 163.196 61H162.454ZM169.188 61.084C168.563 61.084 168.068 60.9113 167.704 60.566C167.34 60.2207 167.14 59.768 167.102 59.208C167.093 58.9653 167.088 58.7553 167.088 58.578C167.088 58.4007 167.093 58.1813 167.102 57.92C167.14 57.36 167.331 56.9073 167.676 56.562C168.031 56.2167 168.535 56.044 169.188 56.044C169.851 56.044 170.355 56.2167 170.7 56.562C171.055 56.9073 171.246 57.36 171.274 57.92C171.293 58.1813 171.302 58.4007 171.302 58.578C171.302 58.7553 171.293 58.9653 171.274 59.208C171.246 59.768 171.046 60.2207 170.672 60.566C170.308 60.9113 169.814 61.084 169.188 61.084ZM169.188 59.992C169.394 59.992 169.552 59.95 169.664 59.866C169.786 59.782 169.874 59.6747 169.93 59.544C169.986 59.4133 170.014 59.2827 170.014 59.152C170.033 58.9187 170.042 58.7227 170.042 58.564C170.042 58.396 170.033 58.2047 170.014 57.99C170.005 57.7753 169.94 57.5793 169.818 57.402C169.697 57.2153 169.487 57.122 169.188 57.122C168.899 57.122 168.694 57.2153 168.572 57.402C168.451 57.5793 168.381 57.7753 168.362 57.99C168.353 58.2047 168.348 58.396 168.348 58.564C168.348 58.7227 168.353 58.9187 168.362 59.152C168.381 59.2827 168.414 59.4133 168.46 59.544C168.516 59.6747 168.6 59.782 168.712 59.866C168.834 59.95 168.992 59.992 169.188 59.992ZM163.602 56.128C162.977 56.128 162.482 55.9647 162.118 55.638C161.754 55.3113 161.554 54.868 161.516 54.308C161.507 54.0653 161.502 53.8553 161.502 53.678C161.502 53.4913 161.507 53.2673 161.516 53.006C161.554 52.446 161.745 51.9933 162.09 51.648C162.445 51.3027 162.949 51.13 163.602 51.13C164.265 51.13 164.769 51.3027 165.114 51.648C165.469 51.9933 165.66 52.446 165.688 53.006C165.707 53.2673 165.716 53.4913 165.716 53.678C165.716 53.8553 165.707 54.0653 165.688 54.308C165.66 54.868 165.46 55.3113 165.086 55.638C164.722 55.9647 164.228 56.128 163.602 56.128ZM163.602 55.092C163.808 55.092 163.966 55.05 164.078 54.966C164.2 54.882 164.288 54.7747 164.344 54.644C164.4 54.5133 164.428 54.378 164.428 54.238C164.447 54.0047 164.456 53.8087 164.456 53.65C164.456 53.482 164.447 53.2907 164.428 53.076C164.419 52.8613 164.354 52.6653 164.232 52.488C164.111 52.3107 163.901 52.222 163.602 52.222C163.313 52.222 163.108 52.3107 162.986 52.488C162.865 52.6653 162.8 52.8613 162.79 53.076C162.781 53.2907 162.776 53.482 162.776 53.65C162.776 53.8087 162.781 54.0047 162.79 54.238C162.8 54.378 162.828 54.5133 162.874 54.644C162.93 54.7747 163.014 54.882 163.126 54.966C163.248 55.05 163.406 55.092 163.602 55.092ZM178.97 61.14C178.139 61.14 177.425 61.0047 176.828 60.734C176.231 60.454 175.764 60.0293 175.428 59.46C175.092 58.8813 174.91 58.1627 174.882 57.304C174.873 56.9027 174.868 56.506 174.868 56.114C174.868 55.722 174.873 55.3207 174.882 54.91C174.91 54.0607 175.097 53.3513 175.442 52.782C175.787 52.2127 176.259 51.7833 176.856 51.494C177.463 51.2047 178.167 51.06 178.97 51.06C179.773 51.06 180.477 51.2047 181.084 51.494C181.691 51.7833 182.167 52.2127 182.512 52.782C182.857 53.3513 183.044 54.0607 183.072 54.91C183.091 55.3207 183.1 55.722 183.1 56.114C183.1 56.506 183.091 56.9027 183.072 57.304C183.044 58.1627 182.862 58.8813 182.526 59.46C182.19 60.0293 181.719 60.454 181.112 60.734C180.515 61.0047 179.801 61.14 178.97 61.14ZM178.97 59.53C179.577 59.53 180.071 59.3527 180.454 58.998C180.837 58.634 181.042 58.046 181.07 57.234C181.089 56.8233 181.098 56.4453 181.098 56.1C181.098 55.7453 181.089 55.3673 181.07 54.966C181.051 54.4247 180.949 53.986 180.762 53.65C180.585 53.3047 180.342 53.0573 180.034 52.908C179.726 52.7493 179.371 52.67 178.97 52.67C178.578 52.67 178.228 52.7493 177.92 52.908C177.612 53.0573 177.365 53.3047 177.178 53.65C177.001 53.986 176.903 54.4247 176.884 54.966C176.875 55.3673 176.87 55.7453 176.87 56.1C176.87 56.4453 176.875 56.8233 176.884 57.234C176.912 58.046 177.117 58.634 177.5 58.998C177.883 59.3527 178.373 59.53 178.97 59.53ZM184.784 61C184.691 61 184.612 60.9673 184.546 60.902C184.481 60.8367 184.448 60.7573 184.448 60.664V51.55C184.448 51.4473 184.481 51.3633 184.546 51.298C184.612 51.2327 184.691 51.2 184.784 51.2H190.86C190.963 51.2 191.047 51.2327 191.112 51.298C191.178 51.3633 191.21 51.4473 191.21 51.55V52.53C191.21 52.6327 191.178 52.7167 191.112 52.782C191.047 52.838 190.963 52.866 190.86 52.866H186.366V55.526H190.58C190.683 55.526 190.767 55.5587 190.832 55.624C190.898 55.6893 190.93 55.7733 190.93 55.876V56.856C190.93 56.9493 190.898 57.0287 190.832 57.094C190.767 57.1593 190.683 57.192 190.58 57.192H186.366V60.664C186.366 60.7573 186.334 60.8367 186.268 60.902C186.203 60.9673 186.119 61 186.016 61H184.784ZM192.703 61C192.609 61 192.53 60.9673 192.465 60.902C192.399 60.8367 192.367 60.7573 192.367 60.664V51.55C192.367 51.4473 192.399 51.3633 192.465 51.298C192.53 51.2327 192.609 51.2 192.703 51.2H198.779C198.881 51.2 198.965 51.2327 199.031 51.298C199.096 51.3633 199.129 51.4473 199.129 51.55V52.53C199.129 52.6327 199.096 52.7167 199.031 52.782C198.965 52.838 198.881 52.866 198.779 52.866H194.285V55.526H198.499C198.601 55.526 198.685 55.5587 198.751 55.624C198.816 55.6893 198.849 55.7733 198.849 55.876V56.856C198.849 56.9493 198.816 57.0287 198.751 57.094C198.685 57.1593 198.601 57.192 198.499 57.192H194.285V60.664C194.285 60.7573 194.252 60.8367 194.187 60.902C194.121 60.9673 194.037 61 193.935 61H192.703Z" fill="#FFECDD"/>
</svg>
