<svg width="22" height="22" viewBox="0 0 22 22" fill="none" xmlns="http://www.w3.org/2000/svg">
<path d="M20.9566 10.1114L20.1875 8.96878C20.1216 8.83679 20.0996 8.70495 20.0996 8.55118L20.1875 7.16685C20.2315 6.3758 19.8139 5.65067 19.1108 5.29914L17.8803 4.68393C17.7484 4.61801 17.6606 4.53017 17.5946 4.39833L16.9794 3.16776C16.6279 2.46455 15.8807 2.0471 15.1117 2.0911L13.7272 2.1788C13.5954 2.1788 13.4416 2.15687 13.3317 2.06888L12.1891 1.32183C11.5299 0.882307 10.6949 0.882307 10.0357 1.32183L8.89308 2.09095C8.73916 2.15687 8.60732 2.1788 8.45355 2.1788L7.06921 2.09095C6.27816 2.04696 5.55303 2.46455 5.2015 3.16761L4.58629 4.39818C4.52037 4.53002 4.43252 4.61786 4.30068 4.68379L3.07011 5.299C2.3669 5.65052 1.94945 6.39772 1.99345 7.1667L2.08115 8.55118C2.08115 8.68303 2.05922 8.83679 1.97123 8.94671L1.22417 10.0893C0.78465 10.7485 0.78465 11.6055 1.22417 12.2427L1.9933 13.3853C2.05922 13.5392 2.08115 13.6711 2.08115 13.8248L1.9933 15.2092C1.9493 16.0002 2.3669 16.7254 3.06996 17.0769L4.30054 17.6921C4.43238 17.758 4.52022 17.8679 4.58614 17.9777L5.20136 19.2083C5.55288 19.9115 6.30009 20.3289 7.06907 20.2849L8.45356 20.1972C8.5854 20.1972 8.73916 20.2191 8.84908 20.3071L9.99166 21.0542C10.3213 21.2739 10.6949 21.3838 11.0683 21.3838C11.4419 21.3838 11.8154 21.2739 12.145 21.0542L13.2876 20.2851C13.3975 20.2191 13.5512 20.1751 13.6831 20.1751L15.0674 20.263C15.8585 20.307 16.5836 19.8894 16.9351 19.1863L17.5503 17.9558C17.6163 17.8239 17.7041 17.7361 17.836 17.6702L19.0665 17.055C19.7697 16.7034 20.1872 15.9562 20.1432 15.1872L20.0996 13.8248C20.0996 13.693 20.1216 13.5392 20.2096 13.4293L20.9566 12.2647C21.396 11.6055 21.396 10.7485 20.9566 10.1114H20.9566ZM8.56347 5.8702C9.90381 5.8702 11.0025 6.96893 11.0025 8.30927C11.0025 9.64961 9.90381 10.7483 8.56347 10.7483C7.20105 10.7483 6.1244 9.67168 6.1244 8.30927C6.1244 6.96893 7.22298 5.8702 8.56347 5.8702ZM7.35482 15.8242C7.22298 15.9561 7.04714 16.022 6.89337 16.022C6.73961 16.022 6.56377 15.9561 6.43193 15.8242C6.16824 15.5825 6.16824 15.165 6.43193 14.9013L14.8261 6.52941C15.0679 6.26573 15.4853 6.26573 15.749 6.52941C15.9908 6.79309 15.9908 7.21054 15.7271 7.4523L7.35482 15.8242ZM13.6173 16.5055C12.277 16.5055 11.1782 15.4068 11.1782 14.0664C11.1782 12.7261 12.277 11.6274 13.6173 11.6274C14.9797 11.6274 16.0564 12.704 16.0564 14.0664C16.0564 15.4068 14.9578 16.5055 13.6173 16.5055Z" fill="white"/>
</svg>
