<svg width="486" height="159" viewBox="0 0 486 159" fill="none" xmlns="http://www.w3.org/2000/svg">
<g clip-path="url(#clip0_166_486)">
<path d="M34.4252 72.4122C32.34 72.4122 30.612 72.0357 29.2412 71.2828C27.8704 70.5491 26.8471 69.5837 26.1714 68.3867C25.4956 67.1896 25.1578 65.9154 25.1578 64.5639C25.1578 63.1158 25.4088 61.6775 25.9107 60.2487C26.4127 58.82 27.1367 57.5844 28.0828 56.5418C29.0482 55.4992 30.1873 54.6304 31.5002 53.9353C32.813 53.2209 34.0777 52.8638 35.294 52.8638C36.2401 52.8638 37.0703 53.163 37.7846 53.7615C38.5183 54.3408 38.8851 54.8524 38.8851 55.2965C38.8851 55.6247 38.5859 55.866 37.9873 56.0205C35.4581 56.6769 33.2861 57.9029 31.4712 59.6985C30.0811 61.0886 29.386 62.6525 29.386 64.3901C29.386 65.6451 29.8687 66.707 30.8341 67.5758C31.7994 68.4639 33.0833 68.908 34.6858 68.908C36.0759 68.908 37.4854 68.3963 38.9141 67.3731C40.3621 66.3691 41.5785 65.0562 42.5631 63.4344C43.5478 61.8126 44.0401 60.075 44.0401 58.2215C44.0401 56.3487 43.6347 54.7655 42.8238 53.4719C42.0129 52.1784 40.9606 51.0489 39.6671 50.0835C38.3735 49.0989 36.9834 48.1625 35.4967 47.2744C34.2225 46.5021 32.9675 45.6815 31.7318 44.8127C30.5155 43.9439 29.4053 42.9496 28.4014 41.8297C27.3974 40.6906 26.5865 39.3584 25.9687 37.8332C25.3701 36.2886 25.0709 34.4641 25.0709 32.3596C25.0709 29.2318 25.7659 26.3744 27.1561 23.7872C28.5655 21.1808 30.5058 19.1053 32.9772 17.5607C35.4485 15.9968 38.2963 15.2149 41.5206 15.2149C44.3394 15.2149 46.5694 15.9196 48.2105 17.329C49.8709 18.7191 50.7011 20.8815 50.7011 23.8162C50.7011 25.0712 50.4887 26.3647 50.064 27.6969C49.6392 29.0098 49.0407 30.1103 48.2684 30.9985C47.3996 31.9638 46.3763 32.4465 45.1986 32.4465C44.0015 32.4465 43.403 32.1762 43.403 31.6356C43.403 31.4425 43.5092 31.1819 43.7216 30.8536C44.5132 29.618 45.1213 28.3148 45.5461 26.944C45.9902 25.5731 46.2122 24.3278 46.2122 23.208C46.2122 21.9917 45.9322 20.9684 45.3723 20.1382C44.8124 19.2887 43.9339 18.8639 42.7369 18.8639C41.0186 18.8639 39.3678 19.4238 37.7846 20.5436C36.2014 21.6442 34.9079 23.0632 33.9039 24.8009C32.8999 26.5192 32.3979 28.3051 32.3979 30.1586C32.3979 32.1665 32.8227 33.9042 33.6722 35.3715C34.5217 36.8195 35.6029 38.1228 36.9158 39.2812C38.248 40.4396 39.6671 41.5498 41.173 42.6117C44.1077 44.6582 46.2798 46.5214 47.6892 48.2011C49.6778 50.5759 50.6721 53.3561 50.6721 56.5418C50.6721 58.4918 50.257 60.4128 49.4268 62.3049C48.6159 64.1777 47.4768 65.8671 46.0095 67.3731C44.5421 68.8983 42.8141 70.1147 40.8255 71.0221C38.8562 71.9488 36.7227 72.4122 34.4252 72.4122ZM59.3024 56.8603C59.8044 56.8603 60.4126 56.1267 61.1269 54.6593C61.8413 53.192 62.5364 51.4736 63.2121 49.5043C63.9072 47.5157 64.4864 45.6719 64.9497 43.9728C65.4324 42.2738 65.6931 41.1154 65.7317 40.4976C65.5965 40.2659 65.3745 40.0535 65.0656 39.8604C64.7567 39.648 64.4284 39.5419 64.0809 39.5419C62.3626 39.5419 60.9628 41.2891 59.8816 44.7837C58.9163 47.9115 58.4336 51.3192 58.4336 55.0069C58.4336 56.2425 58.7232 56.8603 59.3024 56.8603ZM72.0451 62.7973C68.1837 62.7973 66.0116 58.849 65.529 50.9524C64.7374 53.636 63.8685 55.8467 62.9225 57.5844C61.2814 60.5576 59.2928 62.0443 56.9566 62.0443C55.663 62.0443 54.659 61.7161 53.9447 61.0596C53.2303 60.3839 52.7283 59.5247 52.4387 58.4821C52.1298 57.4395 51.9754 56.3777 51.9754 55.2965C51.9754 53.8291 52.0815 52.217 52.2939 50.46C52.5063 48.6838 52.8538 46.9365 53.3365 45.2181C53.7999 43.4805 54.4274 41.8973 55.219 40.4686C56.0105 39.0206 56.9856 37.8621 58.144 36.9933C59.3217 36.1052 60.7022 35.6611 62.2854 35.6611C63.7913 35.6611 65.0849 36.3658 66.1661 37.7752C66.3012 37.2153 66.504 36.752 66.7743 36.3851C67.4307 35.5163 68.6277 35.0819 70.3654 35.0819C71.5817 35.0819 72.4409 35.2557 72.9429 35.6032C73.4642 35.9507 73.7248 36.5203 73.7248 37.3119C73.7248 37.6594 73.6959 38.0455 73.6379 38.4703C73.5414 39.1074 73.387 40.4686 73.1746 42.5538C72.6919 47.284 72.4506 51.242 72.4506 54.4276C72.4506 54.9875 72.4699 55.866 72.5085 57.0631C72.5664 58.2408 72.8367 58.8297 73.3194 58.8297C74.2075 58.8297 75.4818 56.9472 77.1422 53.1823C78.3585 50.4021 79.4397 47.4867 80.3858 44.4362C80.5595 43.8956 80.936 43.6253 81.5153 43.6253C81.9979 43.6253 82.3648 43.7894 82.6158 44.1176C82.7702 44.33 82.8474 44.5714 82.8474 44.8417C82.8474 45.1506 82.2682 46.9654 81.1098 50.2863C78.1944 58.6269 75.1729 62.7973 72.0451 62.7973ZM91.6225 62.7973C89.3636 62.7973 87.6646 61.9478 86.5254 60.2487C85.4056 58.5304 84.8457 56.1749 84.8457 53.1823C84.8457 51.5605 85.0485 49.5622 85.4539 47.1875C85.8594 44.8127 86.2938 42.853 86.7571 41.3085C85.7918 41.0382 84.894 40.6906 84.0638 40.2659C83.6197 42.2159 83.1757 43.9053 82.7316 45.334C82.5578 45.8939 82.191 46.1738 81.6311 46.1738C81.1484 46.1738 80.7816 46.0001 80.5306 45.6526C80.3761 45.4402 80.2989 45.2085 80.2989 44.9575C80.2989 44.803 80.3279 44.6293 80.3858 44.4362C80.9071 42.9109 81.3415 40.9706 81.689 38.6151C80.3568 37.3988 79.6907 35.9218 79.6907 34.1841V33.0257C79.6907 31.9831 79.9417 31.3074 80.4437 30.9985C80.9457 30.6702 81.6697 30.5061 82.6158 30.5061C83.0019 30.5061 83.3977 30.5447 83.8031 30.622C84.2086 30.6799 84.5368 30.8247 84.7878 31.0564C85.0581 31.2881 85.1933 31.6452 85.1933 32.1279C85.1933 33.7304 85.0195 35.3908 84.672 37.1092C85.7532 38.3641 87.5198 39.2522 89.9718 39.7735C91.3812 40.0631 92.4045 40.4686 93.0416 40.9899C93.4664 41.3374 93.6787 41.9359 93.6787 42.7854C93.6787 43.4226 93.5339 44.3976 93.2443 45.7105C92.3369 49.9387 91.8832 53.3851 91.8832 56.0494C91.8832 57.9029 92.221 58.8297 92.8968 58.8297C93.7849 58.8297 95.0592 56.9472 96.7196 53.1823C97.936 50.4021 99.0075 47.4867 99.9342 44.4362C100.089 43.8956 100.475 43.6253 101.093 43.6253C101.556 43.6253 101.913 43.7894 102.164 44.1176C102.319 44.3493 102.396 44.6003 102.396 44.8706C102.396 45.1602 101.826 46.9654 100.687 50.2863C97.7718 58.6269 94.7503 62.7973 91.6225 62.7973ZM105.697 56.8603C106.199 56.8603 106.808 56.1267 107.522 54.6593C108.236 53.192 108.931 51.4736 109.607 49.5043C110.302 47.5157 110.881 45.6719 111.345 43.9728C111.827 42.2738 112.088 41.1154 112.127 40.4976C111.992 40.2659 111.77 40.0535 111.461 39.8604C111.152 39.648 110.823 39.5419 110.476 39.5419C108.758 39.5419 107.358 41.2891 106.277 44.7837C105.311 47.9115 104.829 51.3192 104.829 55.0069C104.829 56.2425 105.118 56.8603 105.697 56.8603ZM118.44 62.7973C114.579 62.7973 112.407 58.849 111.924 50.9524C111.132 53.636 110.264 55.8467 109.318 57.5844C107.676 60.5576 105.688 62.0443 103.352 62.0443C102.058 62.0443 101.054 61.7161 100.34 61.0596C99.6253 60.3839 99.1233 59.5247 98.8337 58.4821C98.5248 57.4395 98.3704 56.3777 98.3704 55.2965C98.3704 53.8291 98.4766 52.217 98.6889 50.46C98.9013 48.6838 99.2488 46.9365 99.7315 45.2181C100.195 43.4805 100.822 41.8973 101.614 40.4686C102.406 39.0206 103.381 37.8621 104.539 36.9933C105.717 36.1052 107.097 35.6611 108.68 35.6611C110.186 35.6611 111.48 36.3658 112.561 37.7752C112.696 37.2153 112.899 36.752 113.169 36.3851C113.826 35.5163 115.023 35.0819 116.76 35.0819C117.977 35.0819 118.836 35.2557 119.338 35.6032C119.859 35.9507 120.12 36.5203 120.12 37.3119C120.12 37.6594 120.091 38.0455 120.033 38.4703C119.936 39.1074 119.782 40.4686 119.57 42.5538C119.087 47.284 118.846 51.242 118.846 54.4276C118.846 54.9875 118.865 55.866 118.903 57.0631C118.961 58.2408 119.232 58.8297 119.714 58.8297C120.603 58.8297 121.877 56.9472 123.537 53.1823C124.754 50.4021 125.835 47.4867 126.781 44.4362C126.955 43.8956 127.331 43.6253 127.91 43.6253C128.393 43.6253 128.76 43.7894 129.011 44.1176C129.165 44.33 129.242 44.5714 129.242 44.8417C129.242 45.1506 128.663 46.9654 127.505 50.2863C124.589 58.6269 121.568 62.7973 118.44 62.7973ZM128.808 33.7787C128.364 33.7787 128.007 33.6628 127.736 33.4311C127.582 33.296 127.505 33.1319 127.505 32.9388C127.505 32.7651 127.563 32.5913 127.679 32.4175C128.026 31.8962 128.393 31.2398 128.779 30.4482C129.744 28.4596 130.227 26.6157 130.227 24.9167C130.227 24.5306 130.208 24.2506 130.169 24.0768C130.092 23.7679 129.88 23.5845 129.532 23.5266C128.258 23.3528 127.621 22.4164 127.621 20.7174C127.621 19.6362 127.794 18.8253 128.142 18.2847C128.509 17.7248 128.991 17.358 129.59 17.1842C130.188 17.0104 130.845 16.9236 131.559 16.9236C132.872 16.9236 133.741 17.2904 134.166 18.0241C134.61 18.7577 134.832 19.81 134.832 21.1808C134.832 22.2041 134.648 23.4301 134.282 24.8588C133.934 26.2682 133.471 27.6487 132.891 29.0002C132.312 30.3517 131.665 31.4908 130.951 32.4175C130.237 33.325 129.522 33.7787 128.808 33.7787ZM142.304 63.6082C143.115 63.6082 143.52 63.029 143.52 61.8705C143.52 60.7121 143.25 59.5054 142.709 58.2504C141.609 59.2351 141.058 60.3646 141.058 61.6388C141.058 62.1215 141.174 62.5752 141.406 63C141.638 63.4054 141.937 63.6082 142.304 63.6082ZM142.159 66.0409C140.923 66.0409 139.881 65.6161 139.031 64.7666C138.201 63.9171 137.786 62.8455 137.786 61.552C137.786 59.5247 138.693 57.7774 140.508 56.3101L141.406 55.615C141 54.8234 140.556 54.0318 140.074 53.2403C139.437 52.1591 138.819 51.0585 138.22 49.9387C137.641 48.8189 137.158 47.6991 136.772 46.5793C136.386 45.4595 136.193 44.3397 136.193 43.2199C136.193 40.5555 136.917 38.5668 138.365 37.254C139.832 35.9411 141.541 35.2846 143.491 35.2846C143.839 35.2846 144.225 35.3232 144.65 35.4005C145.074 35.4584 145.441 35.5839 145.75 35.777C146.059 35.9507 146.213 36.221 146.213 36.5879C146.213 37.4181 145.547 37.8911 144.215 38.0069C142.535 38.1421 141.696 38.9144 141.696 40.3238C141.696 41.5981 141.947 42.8916 142.449 44.2045C142.97 45.5174 143.578 46.8689 144.273 48.259C144.929 49.5333 145.538 50.8558 146.098 52.2266C146.58 51.8212 147.063 51.3964 147.546 50.9524C148.974 49.6202 150.046 47.8343 150.76 45.5946L151.108 44.4362C151.262 43.8956 151.648 43.6253 152.266 43.6253C152.749 43.6253 153.106 43.7894 153.338 44.1176C153.492 44.3493 153.569 44.6003 153.569 44.8706C153.569 45.0444 153.521 45.2857 153.425 45.5946C152.401 48.7224 151.031 51.1454 149.312 52.8638C148.54 53.636 147.777 54.3408 147.024 54.9779C147.507 56.6383 147.748 58.3084 147.748 59.9881C147.748 61.6871 147.256 63.1158 146.271 64.2743C145.287 65.452 143.916 66.0409 142.159 66.0409ZM180.271 74.7291C178.147 74.7291 176.545 74.1692 175.464 73.0494C174.383 71.9488 173.842 70.6456 173.842 69.1397C173.842 68.1164 174.093 67.0738 174.595 66.0119C175.56 63.9267 177.336 62.3049 179.924 61.1465C180.599 60.8376 181.15 60.6831 181.574 60.6831C181.883 60.6831 182.154 60.7893 182.385 61.0017C182.617 61.1948 182.733 61.4651 182.733 61.8126C182.733 62.4497 182.405 62.9228 181.748 63.2317C180.223 63.9847 179.045 64.9211 178.215 66.0409C177.404 67.18 176.999 68.2129 176.999 69.1397C176.999 70.5298 177.79 71.2248 179.373 71.2248C182.501 71.2248 184.857 69.0528 186.44 64.7087C187.675 61.3492 188.293 57.8933 188.293 54.3408C188.293 48.1432 186.643 45.0444 183.341 45.0444C182.009 45.0444 180.677 45.3919 179.344 46.087C179.151 46.1835 178.968 46.2318 178.794 46.2318C178.505 46.2318 178.234 46.1352 177.983 45.9422C177.443 45.5367 177.172 45.0154 177.172 44.3783C177.172 43.9728 177.394 43.6253 177.838 43.3357C180.117 41.8491 181.999 39.9376 183.486 37.6015C184.972 35.2653 186.083 32.8133 186.816 30.2455C187.55 27.6583 187.917 25.2835 187.917 23.1211C187.897 20.2251 187.222 18.777 185.89 18.777C184.963 18.777 183.833 19.4431 182.501 20.7753C181.188 22.1075 180.02 23.6617 178.997 25.438C178.263 26.7123 177.858 27.89 177.781 28.9712C176.738 41.1154 176.217 51.7343 176.217 60.8279C176.217 62.1794 175.995 63.0772 175.551 63.5213C175.107 63.9847 174.556 64.2163 173.9 64.2163C172.529 64.2163 171.68 63.5116 171.351 62.1022C170.656 58.9938 170.28 55.5475 170.222 51.7633C170.183 47.9598 170.164 45.305 170.164 43.7991C170.164 39.2233 170.251 34.6378 170.425 30.0427C170.637 23.9031 170.869 19.1535 171.12 15.7941C171.178 14.9446 171.409 14.3171 171.815 13.9116C172.239 13.4869 172.761 13.2166 173.379 13.1008C173.996 12.9656 174.624 12.898 175.261 12.898C175.821 12.898 176.361 12.9463 176.883 13.0428C177.404 13.1201 177.838 13.3324 178.186 13.68C178.534 14.0275 178.707 14.5874 178.707 15.3597C178.707 16.1899 178.649 17.1746 178.534 18.3137C178.418 19.4335 178.302 20.5919 178.186 21.789C179.692 19.4335 181.449 17.58 183.457 16.2285C185.04 15.1666 186.71 14.6357 188.467 14.6357C193.197 14.6357 195.562 17.609 195.562 23.5556C195.562 24.8491 195.225 26.5578 194.549 28.6816C193.892 30.7861 192.83 33.016 191.363 35.3715C189.896 37.7077 187.984 39.899 185.629 41.9456C187.27 42.0614 188.795 42.5055 190.205 43.2778C191.633 44.0308 192.782 45.1795 193.651 46.7241C194.539 48.2687 194.983 50.2959 194.983 52.8058C194.983 54.5049 194.819 56.339 194.491 58.3084C193.912 61.6485 192.937 64.6218 191.566 67.2283C188.959 72.2288 185.194 74.7291 180.271 74.7291ZM205.264 62.7973C202.812 62.7973 201.046 61.2044 199.964 58.0188C199.115 55.5088 198.69 52.3521 198.69 48.5486C198.69 41.6174 199.125 37.5629 199.993 36.3851C200.631 35.5163 201.818 35.0819 203.556 35.0819C204.791 35.0819 205.66 35.2557 206.162 35.6032C206.664 35.9507 206.915 36.5203 206.915 37.3119C206.915 37.6594 206.886 38.0455 206.828 38.4703C206.751 39.0302 206.616 40.2079 206.423 42.0035C206.249 43.7798 206.075 45.807 205.901 48.0853C205.747 50.3442 205.67 52.4004 205.67 54.2539C205.67 57.3044 205.95 58.8297 206.51 58.8297C207.417 58.8297 208.701 56.9472 210.361 53.1823C211.694 50.1704 212.775 47.255 213.605 44.4362C213.759 43.8956 214.126 43.6253 214.705 43.6253C215.188 43.6253 215.555 43.7894 215.806 44.1176C215.96 44.33 216.038 44.581 216.038 44.8706C216.038 45.1602 215.468 46.9654 214.329 50.2863C211.414 58.6269 208.392 62.7973 205.264 62.7973ZM203.729 33.4311C203.247 33.4311 202.774 33.3925 202.31 33.3153C201.866 33.2188 201.499 32.9871 201.21 32.6202C200.92 32.2534 200.775 31.6742 200.775 30.8826C200.775 29.8786 200.93 29.1353 201.239 28.6526C201.567 28.1506 202.001 27.8224 202.542 27.668C203.102 27.4942 203.71 27.4073 204.366 27.4073C204.849 27.4073 205.312 27.4556 205.757 27.5521C206.22 27.6294 206.596 27.8514 206.886 28.2182C207.176 28.5851 207.32 29.1643 207.32 29.9559C207.32 32.2727 206.123 33.4311 203.729 33.4311ZM224.842 62.7973C222.583 62.7973 220.884 61.9478 219.745 60.2487C218.625 58.5304 218.065 56.1749 218.065 53.1823C218.065 51.5605 218.268 49.5622 218.673 47.1875C219.078 44.8127 219.513 42.853 219.976 41.3085C219.011 41.0382 218.113 40.6906 217.283 40.2659C216.839 42.2159 216.395 43.9053 215.951 45.334C215.777 45.8939 215.41 46.1738 214.85 46.1738C214.368 46.1738 214.001 46.0001 213.75 45.6526C213.595 45.4402 213.518 45.2085 213.518 44.9575C213.518 44.803 213.547 44.6293 213.605 44.4362C214.126 42.9109 214.561 40.9706 214.908 38.6151C213.576 37.3988 212.91 35.9218 212.91 34.1841V33.0257C212.91 31.9831 213.161 31.3074 213.663 30.9985C214.165 30.6702 214.889 30.5061 215.835 30.5061C216.221 30.5061 216.617 30.5447 217.022 30.622C217.428 30.6799 217.756 30.8247 218.007 31.0564C218.277 31.2881 218.412 31.6452 218.412 32.1279C218.412 33.7304 218.239 35.3908 217.891 37.1092C218.972 38.3641 220.739 39.2522 223.191 39.7735C224.6 40.0631 225.624 40.4686 226.261 40.9899C226.685 41.3374 226.898 41.9359 226.898 42.7854C226.898 43.4226 226.753 44.3976 226.463 45.7105C225.556 49.9387 225.102 53.3851 225.102 56.0494C225.102 57.9029 225.44 58.8297 226.116 58.8297C227.004 58.8297 228.278 56.9472 229.939 53.1823C231.155 50.4021 232.227 47.4867 233.153 44.4362C233.308 43.8956 233.694 43.6253 234.312 43.6253C234.775 43.6253 235.132 43.7894 235.383 44.1176C235.538 44.3493 235.615 44.6003 235.615 44.8706C235.615 45.1602 235.045 46.9654 233.906 50.2863C230.991 58.6269 227.969 62.7973 224.842 62.7973ZM239.264 63.3765C238.028 63.3765 237.024 63 236.252 62.247C234.823 60.8762 233.906 58.598 233.501 55.4123C233.231 53.3657 233.095 51.0779 233.095 48.5486C233.095 45.1699 233.298 40.3527 233.704 34.0972C232.854 34.0586 232.024 34.0007 231.213 33.9235C230.827 33.8849 230.576 33.6628 230.46 33.2574C230.344 32.8326 230.286 32.2727 230.286 31.5777C230.286 31.2494 230.315 30.9405 230.373 30.6509C230.431 30.342 230.624 30.1779 230.952 30.1586C231.223 30.1586 231.522 30.1779 231.85 30.2165C232.545 30.313 233.25 30.3999 233.964 30.4772C234.022 29.396 234.109 28.2761 234.225 27.1177C234.283 26.3647 234.524 25.7952 234.949 25.409C235.605 24.8105 236.744 24.5113 238.366 24.5113C238.907 24.5113 239.428 24.5595 239.93 24.6561C240.432 24.7333 240.838 24.9264 241.147 25.2353C241.475 25.5442 241.639 26.0462 241.639 26.7412C241.639 27.4749 241.571 28.3437 241.436 29.3477C241.359 29.8304 241.291 30.371 241.233 30.9695C241.909 30.9888 243.01 30.9985 244.535 30.9985C245.23 30.9985 245.577 31.3749 245.577 32.1279C245.577 32.8037 245.375 33.2284 244.969 33.4022C244.139 33.7497 242.788 33.9814 240.915 34.0972C240.143 42.882 239.756 49.8229 239.756 54.92C239.756 57.9126 240.007 59.4089 240.509 59.4089C241.378 59.4089 242.624 57.4589 244.245 53.5588C245.655 50.1608 246.765 47.1199 247.576 44.4362C247.75 43.8956 248.126 43.6253 248.705 43.6253C249.188 43.6253 249.555 43.7894 249.806 44.1176C249.96 44.33 250.037 44.5714 250.037 44.8417C250.037 45.0926 249.555 46.6565 248.589 49.5333C245.5 58.7621 242.392 63.3765 239.264 63.3765ZM266.748 63.3765C264.624 63.3765 263.041 62.1601 261.998 59.7274C261.11 57.623 260.666 54.9393 260.666 51.6764C260.666 50.1897 260.705 48.8865 260.782 47.7667C260.859 46.6276 260.898 45.4402 260.898 44.2045C260.898 42.6599 260.705 41.8877 260.318 41.8877C259.623 41.8877 258.88 42.6696 258.089 44.2335C257.316 45.778 256.592 47.6122 255.916 49.736C255.241 51.8405 254.681 53.8581 254.237 55.7888C253.812 57.7002 253.6 59.0227 253.6 59.7564C253.6 60.9728 253.378 61.7837 252.934 62.1891C252.489 62.5946 251.939 62.7973 251.283 62.7973C249.912 62.7973 249.062 62.1698 248.734 60.9148C248.039 58.1925 247.663 55.3447 247.605 52.3714C247.566 49.3788 247.547 47.284 247.547 46.087C247.547 39.2136 247.865 31.7128 248.503 23.5845C248.599 22.2137 249.352 21.4028 250.761 21.1518C251.379 21.0553 252.007 21.007 252.644 21.007C253.204 21.007 253.744 21.0456 254.266 21.1229C254.806 21.2001 255.241 21.3932 255.569 21.7021C255.916 22.011 256.09 22.513 256.09 23.208C256.09 23.9417 256.032 24.8105 255.916 25.8145C254.99 33.8076 254.343 41.0575 253.976 47.564C254.806 45.112 255.675 43.0751 256.583 41.4533C258.513 37.978 260.714 36.2403 263.186 36.2403C266.159 36.2403 267.646 38.6248 267.646 43.3936C267.646 45.8842 267.588 48.3266 267.472 50.7207C267.375 52.8058 267.327 54.6883 267.327 56.368C267.327 58.3953 267.549 59.4089 267.993 59.4089C268.881 59.4089 270.078 57.9029 271.584 54.891C272.221 53.5974 272.81 52.2749 273.351 50.9234C274.374 48.3169 275.146 46.1545 275.668 44.4362C275.822 43.8956 276.189 43.6253 276.768 43.6253C277.135 43.6253 277.444 43.7411 277.695 43.9728C277.965 44.2045 278.1 44.4941 278.1 44.8417C278.1 44.9961 277.946 45.556 277.637 46.5214C276.575 49.8615 275.426 52.9506 274.191 55.7888C271.97 60.8473 269.489 63.3765 266.748 63.3765ZM281.431 56.8603C281.933 56.8603 282.541 56.1267 283.255 54.6593C283.97 53.192 284.665 51.4736 285.341 49.5043C286.036 47.5157 286.615 45.6719 287.078 43.9728C287.542 42.2738 287.802 41.1154 287.86 40.4976C287.725 40.2659 287.503 40.0535 287.194 39.8604C286.885 39.648 286.557 39.5419 286.209 39.5419C284.491 39.5419 283.091 41.2891 282.01 44.7837C281.045 47.9115 280.562 51.3192 280.562 55.0069C280.562 56.2425 280.852 56.8603 281.431 56.8603ZM293.797 62.7973C289.955 62.7973 287.918 58.9359 287.686 51.213V50.8655C286.895 53.5878 286.016 55.8274 285.051 57.5844C283.41 60.5576 281.412 62.0443 279.056 62.0443C277.782 62.0443 276.778 61.7161 276.044 61.0596C275.33 60.3839 274.828 59.5247 274.538 58.4821C274.249 57.4395 274.104 56.3777 274.104 55.2965C274.104 53.8291 274.21 52.217 274.422 50.46C274.635 48.6838 274.982 46.9365 275.465 45.2181C275.928 43.4805 276.556 41.8973 277.347 40.4686C278.139 39.0206 279.114 37.8621 280.272 36.9933C281.45 36.1052 282.831 35.6611 284.414 35.6611C285.804 35.6611 287.011 36.2596 288.034 37.4567C288.439 30.7378 288.845 25.1484 289.25 20.6884C289.308 19.9355 289.549 19.3659 289.974 18.9798C290.611 18.4006 291.741 18.1109 293.363 18.1109C293.923 18.1109 294.463 18.1496 294.984 18.2268C295.525 18.304 295.959 18.4971 296.288 18.806C296.635 19.1149 296.809 19.6169 296.809 20.312C296.809 21.0456 296.741 21.8083 296.606 22.5999C296.413 23.7197 295.95 28.643 295.216 37.3698C294.598 44.5714 294.289 50.1028 294.289 53.9643C294.289 54.5242 294.309 55.4799 294.347 56.8314C294.386 58.1636 294.627 58.8297 295.071 58.8297C295.959 58.8297 297.234 56.9472 298.894 53.1823C300.11 50.4021 301.192 47.4867 302.138 44.4362C302.311 43.8956 302.688 43.6253 303.267 43.6253C303.75 43.6253 304.117 43.7894 304.368 44.1176C304.522 44.33 304.599 44.5714 304.599 44.8417C304.599 45.1506 304.02 46.9654 302.862 50.2863C299.946 58.6269 296.925 62.7973 293.797 62.7973ZM307.901 56.8603C308.403 56.8603 309.011 56.1267 309.725 54.6593C310.44 53.192 311.135 51.4736 311.811 49.5043C312.506 47.5157 313.085 45.6719 313.548 43.9728C314.031 42.2738 314.292 41.1154 314.33 40.4976C314.195 40.2659 313.973 40.0535 313.664 39.8604C313.355 39.648 313.027 39.5419 312.679 39.5419C310.961 39.5419 309.561 41.2891 308.48 44.7837C307.515 47.9115 307.032 51.3192 307.032 55.0069C307.032 56.2425 307.322 56.8603 307.901 56.8603ZM320.644 62.7973C316.782 62.7973 314.61 58.849 314.127 50.9524C313.336 53.636 312.467 55.8467 311.521 57.5844C309.88 60.5576 307.891 62.0443 305.555 62.0443C304.262 62.0443 303.258 61.7161 302.543 61.0596C301.829 60.3839 301.327 59.5247 301.037 58.4821C300.728 57.4395 300.574 56.3777 300.574 55.2965C300.574 53.8291 300.68 52.217 300.892 50.46C301.105 48.6838 301.452 46.9365 301.935 45.2181C302.398 43.4805 303.026 41.8973 303.817 40.4686C304.609 39.0206 305.584 37.8621 306.742 36.9933C307.92 36.1052 309.301 35.6611 310.884 35.6611C312.39 35.6611 313.683 36.3658 314.765 37.7752C314.9 37.2153 315.102 36.752 315.373 36.3851C316.029 35.5163 317.226 35.0819 318.964 35.0819C320.18 35.0819 321.039 35.2557 321.541 35.6032C322.063 35.9507 322.323 36.5203 322.323 37.3119C322.323 37.6594 322.294 38.0455 322.236 38.4703C322.14 39.1074 321.985 40.4686 321.773 42.5538C321.29 47.284 321.049 51.242 321.049 54.4276C321.049 54.9875 321.068 55.866 321.107 57.0631C321.165 58.2408 321.435 58.8297 321.918 58.8297C322.806 58.8297 324.08 56.9472 325.741 53.1823C326.957 50.4021 328.038 47.4867 328.984 44.4362C329.158 43.8956 329.535 43.6253 330.114 43.6253C330.596 43.6253 330.963 43.7894 331.214 44.1176C331.369 44.33 331.446 44.5714 331.446 44.8417C331.446 45.1506 330.867 46.9654 329.708 50.2863C326.793 58.6269 323.771 62.7973 320.644 62.7973ZM335.298 81.448C333.792 81.448 332.566 81.0039 331.62 80.1158C330.693 79.2276 330.23 77.9727 330.23 76.3509C330.23 72.9528 331.629 69.8347 334.429 66.9966C336.282 65.1431 338.831 63.251 342.074 61.3203L342.393 55.4702C342.123 56.1653 341.814 56.8507 341.466 57.5264C340.115 60.2487 338.242 61.6099 335.848 61.6099C334.245 61.6099 332.971 61.2431 332.025 60.5094C331.098 59.7564 330.413 58.7138 329.969 57.3816C329.525 56.0494 329.235 54.6979 329.1 53.3271C328.984 51.937 328.926 50.2187 328.926 48.1721C328.926 41.7815 329.332 38.0455 330.143 36.9643C330.799 36.0955 331.996 35.6611 333.734 35.6611C334.95 35.6611 335.809 35.8349 336.311 36.1824C336.833 36.5299 337.093 37.0995 337.093 37.8911C337.093 38.2386 337.064 38.6248 337.006 39.0495C336.234 43.9921 335.848 48.6741 335.848 53.0954C335.848 54.4276 336.002 55.5281 336.311 56.397C336.64 57.2465 337.151 57.6712 337.846 57.6712C338.541 57.6712 339.207 57.0631 339.845 55.8467C340.482 54.6111 341.042 53.0279 341.524 51.0972C342.161 48.4714 342.567 45.7298 342.741 42.8723C342.837 40.903 342.963 39.5032 343.117 38.673C343.291 37.6111 343.687 36.752 344.304 36.0955C344.922 35.4198 345.965 35.0819 347.432 35.0819C349.363 35.0819 350.328 35.7577 350.328 37.1092L350.183 43.2778C350.068 48.1046 349.855 52.3714 349.546 56.0784C353.273 52.6803 355.676 48.7996 356.758 44.4362C356.893 43.8956 357.25 43.6253 357.829 43.6253C358.312 43.6253 358.679 43.7894 358.93 44.1176C359.084 44.33 359.161 44.5714 359.161 44.8417C359.161 45.0154 359.142 45.1795 359.103 45.334C358.601 47.2647 357.839 49.2147 356.815 51.184C355.174 54.4083 352.616 57.343 349.141 59.9881C348.851 62.4401 348.513 64.5735 348.127 66.3884C347.22 70.6746 345.82 74.1306 343.928 76.7563C341.688 79.8841 338.812 81.448 335.298 81.448ZM335.008 77.8568C335.916 77.8568 336.833 77.3259 337.759 76.264C339.787 73.8892 341.138 70.0471 341.814 64.7376C339.98 65.954 338.406 67.1896 337.093 68.4446C334.603 70.858 333.357 73.3776 333.357 76.0033C333.357 76.6019 333.531 77.0556 333.879 77.3645C334.245 77.6927 334.622 77.8568 335.008 77.8568ZM383.807 72.4122C381.722 72.4122 379.994 72.0357 378.623 71.2828C377.252 70.5491 376.229 69.5837 375.553 68.3867C374.877 67.1896 374.539 65.9154 374.539 64.5639C374.539 63.1158 374.79 61.6775 375.292 60.2487C375.794 58.82 376.518 57.5844 377.464 56.5418C378.43 55.4992 379.569 54.6304 380.882 53.9353C382.195 53.2209 383.459 52.8638 384.676 52.8638C385.622 52.8638 386.452 53.163 387.166 53.7615C387.9 54.3408 388.267 54.8524 388.267 55.2965C388.267 55.6247 387.968 55.866 387.369 56.0205C384.84 56.6769 382.668 57.9029 380.853 59.6985C379.463 61.0886 378.768 62.6525 378.768 64.3901C378.768 65.6451 379.25 66.707 380.216 67.5758C381.181 68.4639 382.465 68.908 384.067 68.908C385.458 68.908 386.867 68.3963 388.296 67.3731C389.744 66.3691 390.96 65.0562 391.945 63.4344C392.929 61.8126 393.422 60.075 393.422 58.2215C393.422 56.3487 393.016 54.7655 392.205 53.4719C391.395 52.1784 390.342 51.0489 389.049 50.0835C387.755 49.0989 386.365 48.1625 384.878 47.2744C383.604 46.5021 382.349 45.6815 381.113 44.8127C379.897 43.9439 378.787 42.9496 377.783 41.8297C376.779 40.6906 375.968 39.3584 375.35 37.8332C374.752 36.2886 374.453 34.4641 374.453 32.3596C374.453 29.2318 375.148 26.3744 376.538 23.7872C377.947 21.1808 379.887 19.1053 382.359 17.5607C384.83 15.9968 387.678 15.2149 390.902 15.2149C393.721 15.2149 395.951 15.9196 397.592 17.329C399.253 18.7191 400.083 20.8815 400.083 23.8162C400.083 25.0712 399.87 26.3647 399.446 27.6969C399.021 29.0098 398.422 30.1103 397.65 30.9985C396.781 31.9638 395.758 32.4465 394.58 32.4465C393.383 32.4465 392.785 32.1762 392.785 31.6356C392.785 31.4425 392.891 31.1819 393.103 30.8536C393.895 29.618 394.503 28.3148 394.928 26.944C395.372 25.5731 395.594 24.3278 395.594 23.208C395.594 21.9917 395.314 20.9684 394.754 20.1382C394.194 19.2887 393.316 18.8639 392.119 18.8639C390.4 18.8639 388.749 19.4238 387.166 20.5436C385.583 21.6442 384.29 23.0632 383.286 24.8009C382.282 26.5192 381.78 28.3051 381.78 30.1586C381.78 32.1665 382.204 33.9042 383.054 35.3715C383.903 36.8195 384.985 38.1228 386.297 39.2812C387.63 40.4396 389.049 41.5498 390.555 42.6117C393.489 44.6582 395.661 46.5214 397.071 48.2011C399.059 50.5759 400.054 53.3561 400.054 56.5418C400.054 58.4918 399.639 60.4128 398.808 62.3049C397.998 64.1777 396.858 65.8671 395.391 67.3731C393.924 68.8983 392.196 70.1147 390.207 71.0221C388.238 71.9488 386.104 72.4122 383.807 72.4122ZM408.684 56.8603C409.186 56.8603 409.794 56.1267 410.509 54.6593C411.223 53.192 411.918 51.4736 412.594 49.5043C413.289 47.5157 413.868 45.6719 414.331 43.9728C414.814 42.2738 415.075 41.1154 415.113 40.4976C414.978 40.2659 414.756 40.0535 414.447 39.8604C414.138 39.648 413.81 39.5419 413.463 39.5419C411.744 39.5419 410.344 41.2891 409.263 44.7837C408.298 47.9115 407.815 51.3192 407.815 55.0069C407.815 56.2425 408.105 56.8603 408.684 56.8603ZM421.427 62.7973C417.565 62.7973 415.393 58.849 414.911 50.9524C414.119 53.636 413.25 55.8467 412.304 57.5844C410.663 60.5576 408.674 62.0443 406.338 62.0443C405.045 62.0443 404.041 61.7161 403.326 61.0596C402.612 60.3839 402.11 59.5247 401.82 58.4821C401.511 57.4395 401.357 56.3777 401.357 55.2965C401.357 53.8291 401.463 52.217 401.676 50.46C401.888 48.6838 402.235 46.9365 402.718 45.2181C403.182 43.4805 403.809 41.8973 404.601 40.4686C405.392 39.0206 406.367 37.8621 407.526 36.9933C408.703 36.1052 410.084 35.6611 411.667 35.6611C413.173 35.6611 414.467 36.3658 415.548 37.7752C415.683 37.2153 415.886 36.752 416.156 36.3851C416.812 35.5163 418.009 35.0819 419.747 35.0819C420.963 35.0819 421.823 35.2557 422.325 35.6032C422.846 35.9507 423.106 36.5203 423.106 37.3119C423.106 37.6594 423.078 38.0455 423.02 38.4703C422.923 39.1074 422.769 40.4686 422.556 42.5538C422.074 47.284 421.832 51.242 421.832 54.4276C421.832 54.9875 421.851 55.866 421.89 57.0631C421.948 58.2408 422.218 58.8297 422.701 58.8297C423.589 58.8297 424.863 56.9472 426.524 53.1823C427.74 50.4021 428.821 47.4867 429.767 44.4362C429.941 43.8956 430.318 43.6253 430.897 43.6253C431.38 43.6253 431.746 43.7894 431.997 44.1176C432.152 44.33 432.229 44.5714 432.229 44.8417C432.229 45.1506 431.65 46.9654 430.491 50.2863C427.576 58.6269 424.554 62.7973 421.427 62.7973ZM435.849 62.7973C432.721 62.7973 430.791 60.2584 430.057 55.1806C429.806 53.4044 429.681 51.2806 429.681 48.8093C429.681 44.8706 429.874 40.0245 430.26 34.271L430.868 25.467C431.042 22.4937 432.461 21.007 435.125 21.007C435.685 21.007 436.226 21.0456 436.747 21.1229C437.268 21.2001 437.703 21.3932 438.05 21.7021C438.398 22.011 438.571 22.513 438.571 23.208C438.571 24.1348 438.504 25.1098 438.369 26.1331C438.021 28.7974 437.732 31.4715 437.5 34.1552C436.728 42.882 436.341 49.5816 436.341 54.2539C436.341 54.4469 436.341 55.2578 436.341 56.6866C436.361 58.1153 436.612 58.8297 437.094 58.8297C438.002 58.8297 439.276 56.9472 440.917 53.1823C442.307 50.0353 443.398 47.1199 444.19 44.4362C444.364 43.8956 444.73 43.6253 445.29 43.6253C445.773 43.6253 446.14 43.7894 446.391 44.1176C446.545 44.33 446.623 44.5714 446.623 44.8417C446.623 45.2085 446.043 47.0234 444.885 50.2863C441.912 58.6269 438.9 62.7973 435.849 62.7973ZM451.633 62.7973C448.621 62.7973 446.41 61.8416 445.001 59.9302C443.591 57.9995 442.887 55.3447 442.887 51.966C442.887 50.209 443.128 48.3556 443.611 46.4055C444.093 44.4362 444.808 42.602 445.754 40.903C446.7 39.1847 447.868 37.7849 449.258 36.7037C450.648 35.6225 452.251 35.0819 454.065 35.0819C457.386 35.0819 459.047 36.945 459.047 40.6713C459.047 42.4669 458.68 44.2624 457.946 46.058C457.232 47.8536 456.199 49.3499 454.847 50.5469C453.496 51.7246 451.884 52.3425 450.011 52.4004C450.011 53.3657 450.098 54.3794 450.272 55.4413C450.465 56.4838 450.803 57.372 451.285 58.1056C451.768 58.8393 452.444 59.2062 453.312 59.2062C454.316 59.2062 455.311 58.8007 456.295 57.9898C458.091 56.4838 459.751 54.2153 461.277 51.184C462.319 49.0796 463.188 46.8303 463.883 44.4362C464.038 43.8956 464.404 43.6253 464.984 43.6253C465.466 43.6253 465.833 43.7894 466.084 44.1176C466.239 44.33 466.316 44.5714 466.316 44.8417C466.316 45.0347 465.988 46.1352 465.331 48.1432C464.115 51.8115 462.464 55.0069 460.379 57.7292C457.753 61.1079 454.838 62.7973 451.633 62.7973ZM450.127 50.0835C451.44 49.9677 452.569 49.4174 453.515 48.4328C454.481 47.4481 455.224 46.2607 455.745 44.8706C456.228 43.577 456.469 42.3414 456.469 41.1636C456.469 39.4453 455.967 38.5861 454.963 38.5861C453.554 38.5861 452.357 40.1597 451.372 43.3067C450.696 45.5078 450.281 47.7667 450.127 50.0835Z" fill="#F24510"/>
<path d="M11.0008 0C10.8472 0 10.7155 0.106673 10.6716 0.261454C9.3527 5.03456 5.78509 8.77231 1.23379 10.1549C1.08614 10.1988 0.984375 10.3389 0.984375 10.5C0.984375 10.6611 1.08614 10.7991 1.23379 10.8451C5.78708 12.2277 9.3527 15.9675 10.6716 20.7385C10.7135 20.8933 10.8472 21 11.0008 21C11.1545 21 11.2861 20.8933 11.33 20.7385C12.6489 15.9654 16.2166 12.2277 20.7679 10.8451C20.9155 10.8012 21.0173 10.6611 21.0173 10.5C21.0173 10.3389 20.9155 10.2009 20.7679 10.1549C16.2146 8.77231 12.6489 5.03247 11.33 0.261454C11.2881 0.106673 11.1545 0 11.0008 0Z" fill="#F8A991"/>
<path d="M475.001 0C474.847 0 474.715 0.106673 474.672 0.261454C473.353 5.03456 469.785 8.77231 465.234 10.1549C465.086 10.1988 464.984 10.3389 464.984 10.5C464.984 10.6611 465.086 10.7991 465.234 10.8451C469.787 12.2277 473.353 15.9675 474.672 20.7385C474.713 20.8933 474.847 21 475.001 21C475.154 21 475.286 20.8933 475.33 20.7385C476.649 15.9654 480.217 12.2277 484.768 10.8451C484.916 10.8012 485.017 10.6611 485.017 10.5C485.017 10.3389 484.916 10.2009 484.768 10.1549C480.215 8.77231 476.649 5.03247 475.33 0.261454C475.288 0.106673 475.154 0 475.001 0Z" fill="#F8A991"/>
<path d="M136.56 154.917C135.54 154.917 134.664 154.743 133.932 154.395C133.2 154.035 132.636 153.489 132.24 152.757C131.844 152.013 131.622 151.083 131.574 149.967C131.562 149.439 131.556 148.935 131.556 148.455C131.556 147.963 131.562 147.453 131.574 146.925C131.622 145.821 131.85 144.903 132.258 144.171C132.678 143.427 133.254 142.875 133.986 142.515C134.73 142.143 135.588 141.957 136.56 141.957C137.544 141.957 138.402 142.143 139.134 142.515C139.878 142.875 140.46 143.427 140.88 144.171C141.3 144.903 141.528 145.821 141.564 146.925C141.588 147.453 141.6 147.963 141.6 148.455C141.6 148.935 141.588 149.439 141.564 149.967C141.528 151.083 141.306 152.013 140.898 152.757C140.502 153.489 139.938 154.035 139.206 154.395C138.474 154.743 137.592 154.917 136.56 154.917ZM136.56 153.387C137.484 153.387 138.234 153.111 138.81 152.559C139.398 152.007 139.716 151.113 139.764 149.877C139.788 149.337 139.8 148.857 139.8 148.437C139.8 148.005 139.788 147.525 139.764 146.997C139.74 146.169 139.584 145.497 139.296 144.981C139.02 144.465 138.648 144.087 138.18 143.847C137.712 143.607 137.172 143.487 136.56 143.487C135.972 143.487 135.444 143.607 134.976 143.847C134.508 144.087 134.13 144.465 133.842 144.981C133.566 145.497 133.41 146.169 133.374 146.997C133.362 147.525 133.356 148.005 133.356 148.437C133.356 148.857 133.362 149.337 133.374 149.877C133.422 151.113 133.74 152.007 134.328 152.559C134.916 153.111 135.66 153.387 136.56 153.387ZM144.008 154.737C143.876 154.737 143.774 154.701 143.702 154.629C143.63 154.545 143.594 154.443 143.594 154.323V142.569C143.594 142.437 143.63 142.335 143.702 142.263C143.774 142.179 143.876 142.137 144.008 142.137H144.836C144.98 142.137 145.088 142.173 145.16 142.245C145.232 142.305 145.274 142.353 145.286 142.389L151.262 151.569V142.569C151.262 142.437 151.298 142.335 151.37 142.263C151.442 142.179 151.544 142.137 151.676 142.137H152.54C152.672 142.137 152.774 142.179 152.846 142.263C152.93 142.335 152.972 142.437 152.972 142.569V154.305C152.972 154.425 152.93 154.527 152.846 154.611C152.774 154.695 152.678 154.737 152.558 154.737H151.694C151.562 154.737 151.46 154.701 151.388 154.629C151.328 154.557 151.286 154.509 151.262 154.485L145.304 145.395V154.323C145.304 154.443 145.262 154.545 145.178 154.629C145.106 154.701 145.004 154.737 144.872 154.737H144.008ZM162.497 154.737C162.377 154.737 162.275 154.701 162.191 154.629C162.119 154.545 162.083 154.443 162.083 154.323V150.075L157.745 142.731C157.733 142.695 157.721 142.659 157.709 142.623C157.697 142.587 157.691 142.545 157.691 142.497C157.691 142.401 157.727 142.317 157.799 142.245C157.871 142.173 157.955 142.137 158.051 142.137H158.987C159.095 142.137 159.191 142.167 159.275 142.227C159.359 142.275 159.419 142.347 159.455 142.443L162.965 148.275L166.475 142.443C166.535 142.347 166.601 142.275 166.673 142.227C166.757 142.167 166.853 142.137 166.961 142.137H167.879C167.987 142.137 168.077 142.173 168.149 142.245C168.221 142.317 168.257 142.401 168.257 142.497C168.257 142.545 168.251 142.587 168.239 142.623C168.227 142.659 168.209 142.695 168.185 142.731L163.865 150.075V154.323C163.865 154.443 163.823 154.545 163.739 154.629C163.667 154.701 163.565 154.737 163.433 154.737H162.497ZM173.714 154.917C172.694 154.917 171.818 154.743 171.086 154.395C170.354 154.035 169.79 153.489 169.394 152.757C168.998 152.013 168.776 151.083 168.728 149.967C168.716 149.439 168.71 148.935 168.71 148.455C168.71 147.963 168.716 147.453 168.728 146.925C168.776 145.821 169.004 144.903 169.412 144.171C169.832 143.427 170.408 142.875 171.14 142.515C171.884 142.143 172.742 141.957 173.714 141.957C174.698 141.957 175.556 142.143 176.288 142.515C177.032 142.875 177.614 143.427 178.034 144.171C178.454 144.903 178.682 145.821 178.718 146.925C178.742 147.453 178.754 147.963 178.754 148.455C178.754 148.935 178.742 149.439 178.718 149.967C178.682 151.083 178.46 152.013 178.052 152.757C177.656 153.489 177.092 154.035 176.36 154.395C175.628 154.743 174.746 154.917 173.714 154.917ZM173.714 153.387C174.638 153.387 175.388 153.111 175.964 152.559C176.552 152.007 176.87 151.113 176.918 149.877C176.942 149.337 176.954 148.857 176.954 148.437C176.954 148.005 176.942 147.525 176.918 146.997C176.894 146.169 176.738 145.497 176.45 144.981C176.174 144.465 175.802 144.087 175.334 143.847C174.866 143.607 174.326 143.487 173.714 143.487C173.126 143.487 172.598 143.607 172.13 143.847C171.662 144.087 171.284 144.465 170.996 144.981C170.72 145.497 170.564 146.169 170.528 146.997C170.516 147.525 170.51 148.005 170.51 148.437C170.51 148.857 170.516 149.337 170.528 149.877C170.576 151.113 170.894 152.007 171.482 152.559C172.07 153.111 172.814 153.387 173.714 153.387ZM185.5 154.917C184.492 154.917 183.622 154.737 182.89 154.377C182.17 154.017 181.612 153.471 181.216 152.739C180.832 151.995 180.64 151.041 180.64 149.877V142.569C180.64 142.437 180.676 142.335 180.748 142.263C180.82 142.179 180.922 142.137 181.054 142.137H181.972C182.104 142.137 182.206 142.179 182.278 142.263C182.362 142.335 182.404 142.437 182.404 142.569V149.913C182.404 151.089 182.68 151.959 183.232 152.523C183.784 153.087 184.54 153.369 185.5 153.369C186.448 153.369 187.198 153.087 187.75 152.523C188.314 151.959 188.596 151.089 188.596 149.913V142.569C188.596 142.437 188.632 142.335 188.704 142.263C188.788 142.179 188.89 142.137 189.01 142.137H189.946C190.066 142.137 190.162 142.179 190.234 142.263C190.318 142.335 190.36 142.437 190.36 142.569V149.877C190.36 151.041 190.162 151.995 189.766 152.739C189.382 153.471 188.83 154.017 188.11 154.377C187.39 154.737 186.52 154.917 185.5 154.917ZM193.153 154.737C193.021 154.737 192.919 154.701 192.847 154.629C192.775 154.545 192.739 154.443 192.739 154.323V142.569C192.739 142.437 192.775 142.335 192.847 142.263C192.919 142.179 193.021 142.137 193.153 142.137H197.545C198.901 142.137 199.975 142.455 200.767 143.091C201.559 143.727 201.955 144.669 201.955 145.917C201.955 146.841 201.721 147.597 201.253 148.185C200.797 148.761 200.173 149.163 199.381 149.391L202.153 154.179C202.189 154.251 202.207 154.317 202.207 154.377C202.207 154.473 202.165 154.557 202.081 154.629C202.009 154.701 201.925 154.737 201.829 154.737H200.965C200.761 154.737 200.611 154.683 200.515 154.575C200.419 154.467 200.335 154.359 200.263 154.251L197.653 149.679H194.503V154.323C194.503 154.443 194.461 154.545 194.377 154.629C194.305 154.701 194.203 154.737 194.071 154.737H193.153ZM194.503 148.149H197.473C198.373 148.149 199.045 147.963 199.489 147.591C199.933 147.207 200.155 146.643 200.155 145.899C200.155 145.167 199.933 144.609 199.489 144.225C199.057 143.841 198.385 143.649 197.473 143.649H194.503V148.149ZM208.1 154.737C207.968 154.737 207.866 154.701 207.794 154.629C207.722 154.545 207.686 154.443 207.686 154.323V142.569C207.686 142.437 207.722 142.335 207.794 142.263C207.866 142.179 207.968 142.137 208.1 142.137H212.672C213.56 142.137 214.328 142.281 214.976 142.569C215.636 142.857 216.146 143.289 216.506 143.865C216.866 144.429 217.046 145.137 217.046 145.989C217.046 146.841 216.866 147.549 216.506 148.113C216.146 148.677 215.636 149.103 214.976 149.391C214.328 149.679 213.56 149.823 212.672 149.823H209.486V154.323C209.486 154.443 209.444 154.545 209.36 154.629C209.288 154.701 209.186 154.737 209.054 154.737H208.1ZM209.468 148.311H212.582C213.47 148.311 214.136 148.113 214.58 147.717C215.024 147.321 215.246 146.745 215.246 145.989C215.246 145.245 215.03 144.669 214.598 144.261C214.166 143.853 213.494 143.649 212.582 143.649H209.468V148.311ZM219.019 154.737C218.887 154.737 218.785 154.701 218.713 154.629C218.641 154.545 218.605 154.443 218.605 154.323V142.569C218.605 142.437 218.641 142.335 218.713 142.263C218.785 142.179 218.887 142.137 219.019 142.137H226.453C226.585 142.137 226.687 142.179 226.759 142.263C226.831 142.335 226.867 142.437 226.867 142.569V143.253C226.867 143.385 226.831 143.487 226.759 143.559C226.687 143.631 226.585 143.667 226.453 143.667H220.333V147.609H226.057C226.189 147.609 226.291 147.651 226.363 147.735C226.435 147.807 226.471 147.909 226.471 148.041V148.707C226.471 148.827 226.435 148.929 226.363 149.013C226.291 149.085 226.189 149.121 226.057 149.121H220.333V153.207H226.597C226.729 153.207 226.831 153.243 226.903 153.315C226.975 153.387 227.011 153.489 227.011 153.621V154.323C227.011 154.443 226.975 154.545 226.903 154.629C226.831 154.701 226.729 154.737 226.597 154.737H219.019ZM232.059 154.737C231.939 154.737 231.837 154.701 231.753 154.629C231.681 154.545 231.645 154.443 231.645 154.323V143.739H228.189C228.069 143.739 227.967 143.703 227.883 143.631C227.811 143.547 227.775 143.445 227.775 143.325V142.569C227.775 142.437 227.811 142.335 227.883 142.263C227.967 142.179 228.069 142.137 228.189 142.137H236.865C236.997 142.137 237.099 142.179 237.171 142.263C237.255 142.335 237.297 142.437 237.297 142.569V143.325C237.297 143.445 237.255 143.547 237.171 143.631C237.099 143.703 236.997 143.739 236.865 143.739H233.427V154.323C233.427 154.443 233.385 154.545 233.301 154.629C233.229 154.701 233.127 154.737 232.995 154.737H232.059ZM238.433 145.431C238.337 145.431 238.259 145.395 238.199 145.323C238.151 145.251 238.133 145.161 238.145 145.053L238.559 142.479C238.583 142.335 238.631 142.215 238.703 142.119C238.787 142.011 238.907 141.957 239.063 141.957H240.269C240.353 141.957 240.419 141.993 240.467 142.065C240.527 142.125 240.557 142.191 240.557 142.263C240.557 142.359 240.533 142.455 240.485 142.551L239.549 145.017C239.501 145.137 239.435 145.239 239.351 145.323C239.279 145.395 239.165 145.431 239.009 145.431H238.433ZM246.06 154.917C245.016 154.917 244.14 154.761 243.432 154.449C242.724 154.125 242.178 153.711 241.794 153.207C241.422 152.691 241.224 152.145 241.2 151.569C241.2 151.473 241.236 151.389 241.308 151.317C241.392 151.233 241.488 151.191 241.596 151.191H242.514C242.658 151.191 242.766 151.227 242.838 151.299C242.91 151.371 242.958 151.455 242.982 151.551C243.042 151.839 243.186 152.127 243.414 152.415C243.654 152.691 243.984 152.925 244.404 153.117C244.836 153.297 245.388 153.387 246.06 153.387C247.092 153.387 247.848 153.207 248.328 152.847C248.82 152.475 249.066 151.983 249.066 151.371C249.066 150.951 248.934 150.615 248.67 150.363C248.418 150.099 248.028 149.865 247.5 149.661C246.972 149.457 246.288 149.235 245.448 148.995C244.572 148.743 243.846 148.467 243.27 148.167C242.694 147.867 242.262 147.495 241.974 147.051C241.698 146.607 241.56 146.043 241.56 145.359C241.56 144.711 241.734 144.135 242.082 143.631C242.43 143.115 242.928 142.707 243.576 142.407C244.236 142.107 245.034 141.957 245.97 141.957C246.714 141.957 247.362 142.059 247.914 142.263C248.478 142.455 248.946 142.719 249.318 143.055C249.69 143.379 249.972 143.733 250.164 144.117C250.356 144.489 250.458 144.855 250.47 145.215C250.47 145.299 250.44 145.383 250.38 145.467C250.32 145.539 250.224 145.575 250.092 145.575H249.138C249.054 145.575 248.964 145.551 248.868 145.503C248.784 145.455 248.718 145.365 248.67 145.233C248.598 144.741 248.322 144.327 247.842 143.991C247.362 143.655 246.738 143.487 245.97 143.487C245.19 143.487 244.554 143.637 244.062 143.937C243.582 144.237 243.342 144.705 243.342 145.341C243.342 145.749 243.456 146.091 243.684 146.367C243.912 146.631 244.272 146.865 244.764 147.069C245.256 147.273 245.898 147.489 246.69 147.717C247.65 147.981 248.436 148.263 249.048 148.563C249.66 148.851 250.11 149.217 250.398 149.661C250.698 150.093 250.848 150.651 250.848 151.335C250.848 152.091 250.65 152.739 250.254 153.279C249.858 153.807 249.3 154.215 248.58 154.503C247.872 154.779 247.032 154.917 246.06 154.917ZM256.773 154.737C256.641 154.737 256.539 154.701 256.467 154.629C256.395 154.545 256.359 154.443 256.359 154.323V142.569C256.359 142.437 256.395 142.335 256.467 142.263C256.539 142.179 256.641 142.137 256.773 142.137H264.117C264.249 142.137 264.351 142.179 264.423 142.263C264.495 142.335 264.531 142.437 264.531 142.569V143.289C264.531 143.421 264.495 143.523 264.423 143.595C264.351 143.667 264.249 143.703 264.117 143.703H258.105V147.897H263.757C263.889 147.897 263.991 147.939 264.063 148.023C264.135 148.095 264.171 148.197 264.171 148.329V149.049C264.171 149.169 264.135 149.271 264.063 149.355C263.991 149.427 263.889 149.463 263.757 149.463H258.105V154.323C258.105 154.443 258.063 154.545 257.979 154.629C257.907 154.701 257.805 154.737 257.673 154.737H256.773ZM264.621 154.737C264.525 154.737 264.441 154.701 264.369 154.629C264.297 154.557 264.261 154.473 264.261 154.377C264.261 154.317 264.267 154.251 264.279 154.179L268.743 142.533C268.791 142.413 268.857 142.317 268.941 142.245C269.025 142.173 269.151 142.137 269.319 142.137H270.543C270.699 142.137 270.819 142.173 270.903 142.245C270.999 142.317 271.071 142.413 271.119 142.533L275.565 154.179C275.589 154.251 275.601 154.317 275.601 154.377C275.601 154.473 275.565 154.557 275.493 154.629C275.421 154.701 275.337 154.737 275.241 154.737H274.323C274.179 154.737 274.071 154.701 273.999 154.629C273.939 154.557 273.897 154.491 273.873 154.431L272.883 151.875H266.979L265.989 154.431C265.977 154.491 265.935 154.557 265.863 154.629C265.791 154.701 265.683 154.737 265.539 154.737H264.621ZM267.501 150.327H272.361L269.931 143.937L267.501 150.327ZM279.761 154.737C279.581 154.737 279.437 154.695 279.329 154.611C279.233 154.527 279.155 154.413 279.095 154.269L275.081 142.695C275.057 142.623 275.045 142.557 275.045 142.497C275.045 142.401 275.081 142.317 275.153 142.245C275.225 142.173 275.309 142.137 275.405 142.137H276.341C276.485 142.137 276.593 142.179 276.665 142.263C276.749 142.335 276.797 142.401 276.809 142.461L280.337 152.667L283.865 142.461C283.889 142.401 283.937 142.335 284.009 142.263C284.081 142.179 284.189 142.137 284.333 142.137H285.269C285.365 142.137 285.449 142.173 285.521 142.245C285.605 142.317 285.647 142.401 285.647 142.497C285.647 142.557 285.635 142.623 285.611 142.695L281.579 154.269C281.531 154.413 281.453 154.527 281.345 154.611C281.249 154.695 281.111 154.737 280.931 154.737H279.761ZM291.331 154.917C290.311 154.917 289.435 154.743 288.703 154.395C287.971 154.035 287.407 153.489 287.011 152.757C286.615 152.013 286.393 151.083 286.345 149.967C286.333 149.439 286.327 148.935 286.327 148.455C286.327 147.963 286.333 147.453 286.345 146.925C286.393 145.821 286.621 144.903 287.029 144.171C287.449 143.427 288.025 142.875 288.757 142.515C289.501 142.143 290.359 141.957 291.331 141.957C292.315 141.957 293.173 142.143 293.905 142.515C294.649 142.875 295.231 143.427 295.651 144.171C296.071 144.903 296.299 145.821 296.335 146.925C296.359 147.453 296.371 147.963 296.371 148.455C296.371 148.935 296.359 149.439 296.335 149.967C296.299 151.083 296.077 152.013 295.669 152.757C295.273 153.489 294.709 154.035 293.977 154.395C293.245 154.743 292.363 154.917 291.331 154.917ZM291.331 153.387C292.255 153.387 293.005 153.111 293.581 152.559C294.169 152.007 294.487 151.113 294.535 149.877C294.559 149.337 294.571 148.857 294.571 148.437C294.571 148.005 294.559 147.525 294.535 146.997C294.511 146.169 294.355 145.497 294.067 144.981C293.791 144.465 293.419 144.087 292.951 143.847C292.483 143.607 291.943 143.487 291.331 143.487C290.743 143.487 290.215 143.607 289.747 143.847C289.279 144.087 288.901 144.465 288.613 144.981C288.337 145.497 288.181 146.169 288.145 146.997C288.133 147.525 288.127 148.005 288.127 148.437C288.127 148.857 288.133 149.337 288.145 149.877C288.193 151.113 288.511 152.007 289.099 152.559C289.687 153.111 290.431 153.387 291.331 153.387ZM303.117 154.917C302.109 154.917 301.239 154.737 300.507 154.377C299.787 154.017 299.229 153.471 298.833 152.739C298.449 151.995 298.257 151.041 298.257 149.877V142.569C298.257 142.437 298.293 142.335 298.365 142.263C298.437 142.179 298.539 142.137 298.671 142.137H299.589C299.721 142.137 299.823 142.179 299.895 142.263C299.979 142.335 300.021 142.437 300.021 142.569V149.913C300.021 151.089 300.297 151.959 300.849 152.523C301.401 153.087 302.157 153.369 303.117 153.369C304.065 153.369 304.815 153.087 305.367 152.523C305.931 151.959 306.213 151.089 306.213 149.913V142.569C306.213 142.437 306.249 142.335 306.321 142.263C306.405 142.179 306.507 142.137 306.627 142.137H307.563C307.683 142.137 307.779 142.179 307.851 142.263C307.935 142.335 307.977 142.437 307.977 142.569V149.877C307.977 151.041 307.779 151.995 307.383 152.739C306.999 153.471 306.447 154.017 305.727 154.377C305.007 154.737 304.137 154.917 303.117 154.917ZM310.77 154.737C310.638 154.737 310.536 154.701 310.464 154.629C310.392 154.545 310.356 154.443 310.356 154.323V142.569C310.356 142.437 310.392 142.335 310.464 142.263C310.536 142.179 310.638 142.137 310.77 142.137H315.162C316.518 142.137 317.592 142.455 318.384 143.091C319.176 143.727 319.572 144.669 319.572 145.917C319.572 146.841 319.338 147.597 318.87 148.185C318.414 148.761 317.79 149.163 316.998 149.391L319.77 154.179C319.806 154.251 319.824 154.317 319.824 154.377C319.824 154.473 319.782 154.557 319.698 154.629C319.626 154.701 319.542 154.737 319.446 154.737H318.582C318.378 154.737 318.228 154.683 318.132 154.575C318.036 154.467 317.952 154.359 317.88 154.251L315.27 149.679H312.12V154.323C312.12 154.443 312.078 154.545 311.994 154.629C311.922 154.701 311.82 154.737 311.688 154.737H310.77ZM312.12 148.149H315.09C315.99 148.149 316.662 147.963 317.106 147.591C317.55 147.207 317.772 146.643 317.772 145.899C317.772 145.167 317.55 144.609 317.106 144.225C316.674 143.841 316.002 143.649 315.09 143.649H312.12V148.149ZM321.935 154.737C321.803 154.737 321.701 154.701 321.629 154.629C321.557 154.545 321.521 154.443 321.521 154.323V142.551C321.521 142.431 321.557 142.335 321.629 142.263C321.701 142.179 321.803 142.137 321.935 142.137H322.889C323.009 142.137 323.105 142.179 323.177 142.263C323.261 142.335 323.303 142.431 323.303 142.551V154.323C323.303 154.443 323.261 154.545 323.177 154.629C323.105 154.701 323.009 154.737 322.889 154.737H321.935ZM328.98 154.737C328.86 154.737 328.758 154.701 328.674 154.629C328.602 154.545 328.566 154.443 328.566 154.323V143.739H325.11C324.99 143.739 324.888 143.703 324.804 143.631C324.732 143.547 324.696 143.445 324.696 143.325V142.569C324.696 142.437 324.732 142.335 324.804 142.263C324.888 142.179 324.99 142.137 325.11 142.137H333.786C333.918 142.137 334.02 142.179 334.092 142.263C334.176 142.335 334.218 142.437 334.218 142.569V143.325C334.218 143.445 334.176 143.547 334.092 143.631C334.02 143.703 333.918 143.739 333.786 143.739H330.348V154.323C330.348 154.443 330.306 154.545 330.222 154.629C330.15 154.701 330.048 154.737 329.916 154.737H328.98ZM336.02 154.737C335.888 154.737 335.786 154.701 335.714 154.629C335.642 154.545 335.606 154.443 335.606 154.323V142.569C335.606 142.437 335.642 142.335 335.714 142.263C335.786 142.179 335.888 142.137 336.02 142.137H343.454C343.586 142.137 343.688 142.179 343.76 142.263C343.832 142.335 343.868 142.437 343.868 142.569V143.253C343.868 143.385 343.832 143.487 343.76 143.559C343.688 143.631 343.586 143.667 343.454 143.667H337.334V147.609H343.058C343.19 147.609 343.292 147.651 343.364 147.735C343.436 147.807 343.472 147.909 343.472 148.041V148.707C343.472 148.827 343.436 148.929 343.364 149.013C343.292 149.085 343.19 149.121 343.058 149.121H337.334V153.207H343.598C343.73 153.207 343.832 153.243 343.904 153.315C343.976 153.387 344.012 153.489 344.012 153.621V154.323C344.012 154.443 343.976 154.545 343.904 154.629C343.832 154.701 343.73 154.737 343.598 154.737H336.02ZM349.942 154.917C348.898 154.917 348.022 154.761 347.314 154.449C346.606 154.125 346.06 153.711 345.676 153.207C345.304 152.691 345.106 152.145 345.082 151.569C345.082 151.473 345.118 151.389 345.19 151.317C345.274 151.233 345.37 151.191 345.478 151.191H346.396C346.54 151.191 346.648 151.227 346.72 151.299C346.792 151.371 346.84 151.455 346.864 151.551C346.924 151.839 347.068 152.127 347.296 152.415C347.536 152.691 347.866 152.925 348.286 153.117C348.718 153.297 349.27 153.387 349.942 153.387C350.974 153.387 351.73 153.207 352.21 152.847C352.702 152.475 352.948 151.983 352.948 151.371C352.948 150.951 352.816 150.615 352.552 150.363C352.3 150.099 351.91 149.865 351.382 149.661C350.854 149.457 350.17 149.235 349.33 148.995C348.454 148.743 347.728 148.467 347.152 148.167C346.576 147.867 346.144 147.495 345.856 147.051C345.58 146.607 345.442 146.043 345.442 145.359C345.442 144.711 345.616 144.135 345.964 143.631C346.312 143.115 346.81 142.707 347.458 142.407C348.118 142.107 348.916 141.957 349.852 141.957C350.596 141.957 351.244 142.059 351.796 142.263C352.36 142.455 352.828 142.719 353.2 143.055C353.572 143.379 353.854 143.733 354.046 144.117C354.238 144.489 354.34 144.855 354.352 145.215C354.352 145.299 354.322 145.383 354.262 145.467C354.202 145.539 354.106 145.575 353.974 145.575H353.02C352.936 145.575 352.846 145.551 352.75 145.503C352.666 145.455 352.6 145.365 352.552 145.233C352.48 144.741 352.204 144.327 351.724 143.991C351.244 143.655 350.62 143.487 349.852 143.487C349.072 143.487 348.436 143.637 347.944 143.937C347.464 144.237 347.224 144.705 347.224 145.341C347.224 145.749 347.338 146.091 347.566 146.367C347.794 146.631 348.154 146.865 348.646 147.069C349.138 147.273 349.78 147.489 350.572 147.717C351.532 147.981 352.318 148.263 352.93 148.563C353.542 148.851 353.992 149.217 354.28 149.661C354.58 150.093 354.73 150.651 354.73 151.335C354.73 152.091 354.532 152.739 354.136 153.279C353.74 153.807 353.182 154.215 352.462 154.503C351.754 154.779 350.914 154.917 349.942 154.917Z" fill="#F24510"/>
<path d="M79 89H407.806L390.633 110.658L407.806 132.316H79L96.1732 110.658L79 89Z" fill="#F24510"/>
<path d="M110.018 120.133C109.839 120.133 109.686 120.07 109.56 119.944C109.434 119.818 109.371 119.666 109.371 119.486V101.919C109.371 101.721 109.434 101.56 109.56 101.434C109.686 101.308 109.839 101.245 110.018 101.245H121.891C122.089 101.245 122.251 101.308 122.377 101.434C122.503 101.56 122.566 101.721 122.566 101.919V103.7C122.566 103.88 122.503 104.033 122.377 104.159C122.251 104.285 122.089 104.348 121.891 104.348H113.014V109.124H121.298C121.495 109.124 121.657 109.187 121.783 109.313C121.909 109.421 121.972 109.574 121.972 109.772V111.445C121.972 111.642 121.909 111.804 121.783 111.93C121.657 112.038 121.495 112.092 121.298 112.092H113.014V117.03H122.107C122.305 117.03 122.467 117.093 122.593 117.219C122.719 117.345 122.782 117.507 122.782 117.705V119.486C122.782 119.666 122.719 119.818 122.593 119.944C122.467 120.07 122.305 120.133 122.107 120.133H110.018ZM125.86 120.133C125.68 120.133 125.527 120.07 125.401 119.944C125.275 119.818 125.212 119.666 125.212 119.486V101.919C125.212 101.721 125.275 101.56 125.401 101.434C125.527 101.308 125.68 101.245 125.86 101.245H127.937C128.189 101.245 128.369 101.308 128.477 101.434C128.603 101.542 128.684 101.623 128.72 101.677L136.491 113.765V101.919C136.491 101.721 136.545 101.56 136.653 101.434C136.779 101.308 136.941 101.245 137.139 101.245H139.405C139.603 101.245 139.765 101.308 139.891 101.434C140.017 101.56 140.08 101.721 140.08 101.919V119.459C140.08 119.657 140.017 119.818 139.891 119.944C139.765 120.07 139.612 120.133 139.432 120.133H137.328C137.076 120.133 136.896 120.07 136.788 119.944C136.68 119.818 136.599 119.738 136.545 119.702L128.801 107.883V119.486C128.801 119.666 128.738 119.818 128.612 119.944C128.486 120.07 128.324 120.133 128.126 120.133H125.86ZM149.444 120.403C148.473 120.403 147.546 120.286 146.665 120.052C145.801 119.801 145.028 119.423 144.344 118.919C143.661 118.415 143.112 117.795 142.698 117.057C142.303 116.32 142.096 115.447 142.078 114.44C142.078 114.278 142.132 114.143 142.24 114.035C142.347 113.909 142.482 113.846 142.644 113.846H145.208C145.442 113.846 145.613 113.909 145.72 114.035C145.846 114.161 145.945 114.332 146.017 114.548C146.107 115.195 146.314 115.726 146.638 116.14C146.962 116.535 147.366 116.832 147.852 117.03C148.356 117.21 148.913 117.3 149.525 117.3C150.658 117.3 151.522 116.931 152.116 116.194C152.727 115.456 153.033 114.431 153.033 113.118V104.429H143.886C143.688 104.429 143.526 104.366 143.4 104.24C143.292 104.114 143.238 103.961 143.238 103.781V101.892C143.238 101.713 143.292 101.56 143.4 101.434C143.526 101.308 143.688 101.245 143.886 101.245H156.217C156.415 101.245 156.577 101.308 156.703 101.434C156.829 101.56 156.892 101.721 156.892 101.919V113.226C156.892 114.719 156.577 116.005 155.947 117.084C155.336 118.163 154.472 118.991 153.357 119.567C152.259 120.124 150.955 120.403 149.444 120.403ZM167.263 120.403C165.662 120.403 164.285 120.142 163.134 119.621C161.983 119.081 161.083 118.262 160.436 117.165C159.788 116.05 159.437 114.665 159.383 113.01C159.365 112.236 159.356 111.472 159.356 110.716C159.356 109.96 159.365 109.187 159.383 108.395C159.437 106.758 159.797 105.391 160.463 104.294C161.128 103.197 162.037 102.369 163.188 101.811C164.357 101.254 165.716 100.975 167.263 100.975C168.81 100.975 170.168 101.254 171.337 101.811C172.506 102.369 173.424 103.197 174.089 104.294C174.755 105.391 175.115 106.758 175.169 108.395C175.205 109.187 175.223 109.96 175.223 110.716C175.223 111.472 175.205 112.236 175.169 113.01C175.115 114.665 174.764 116.05 174.116 117.165C173.469 118.262 172.56 119.081 171.391 119.621C170.24 120.142 168.864 120.403 167.263 120.403ZM167.263 117.3C168.432 117.3 169.385 116.958 170.123 116.275C170.86 115.573 171.256 114.44 171.31 112.875C171.346 112.083 171.364 111.355 171.364 110.689C171.364 110.005 171.346 109.277 171.31 108.503C171.274 107.46 171.076 106.615 170.717 105.967C170.375 105.301 169.907 104.825 169.313 104.537C168.72 104.231 168.036 104.078 167.263 104.078C166.507 104.078 165.832 104.231 165.239 104.537C164.645 104.825 164.168 105.301 163.809 105.967C163.467 106.615 163.278 107.46 163.242 108.503C163.224 109.277 163.215 110.005 163.215 110.689C163.215 111.355 163.224 112.083 163.242 112.875C163.296 114.44 163.692 115.573 164.429 116.275C165.167 116.958 166.111 117.3 167.263 117.3ZM182.591 120.133C182.411 120.133 182.258 120.07 182.132 119.944C182.006 119.818 181.943 119.666 181.943 119.486V113.387L175.575 102.108C175.557 102.072 175.539 102.027 175.521 101.973C175.503 101.919 175.494 101.865 175.494 101.811C175.494 101.65 175.548 101.515 175.656 101.407C175.764 101.299 175.89 101.245 176.034 101.245H178.436C178.651 101.245 178.822 101.299 178.948 101.407C179.092 101.515 179.191 101.632 179.245 101.757L183.832 109.61L188.392 101.757C188.464 101.632 188.563 101.515 188.689 101.407C188.833 101.299 189.013 101.245 189.229 101.245H191.603C191.765 101.245 191.9 101.299 192.008 101.407C192.116 101.515 192.17 101.65 192.17 101.811C192.17 101.865 192.161 101.919 192.143 101.973C192.143 102.027 192.125 102.072 192.089 102.108L185.721 113.387V119.486C185.721 119.666 185.658 119.818 185.532 119.944C185.406 120.07 185.244 120.133 185.046 120.133H182.591ZM205.912 120.403C204.347 120.403 202.989 120.142 201.838 119.621C200.687 119.081 199.796 118.262 199.166 117.165C198.537 116.05 198.222 114.629 198.222 112.902V101.919C198.222 101.721 198.285 101.56 198.411 101.434C198.537 101.308 198.69 101.245 198.87 101.245H201.325C201.523 101.245 201.676 101.308 201.784 101.434C201.91 101.56 201.973 101.721 201.973 101.919V112.902C201.973 114.377 202.324 115.474 203.025 116.194C203.727 116.895 204.689 117.246 205.912 117.246C207.136 117.246 208.089 116.895 208.773 116.194C209.474 115.474 209.825 114.377 209.825 112.902V101.919C209.825 101.721 209.888 101.56 210.014 101.434C210.14 101.308 210.302 101.245 210.5 101.245H212.928C213.126 101.245 213.279 101.308 213.387 101.434C213.513 101.56 213.576 101.721 213.576 101.919V112.902C213.576 114.629 213.261 116.05 212.631 117.165C212.02 118.262 211.138 119.081 209.987 119.621C208.854 120.142 207.495 120.403 205.912 120.403ZM217.324 120.133C217.144 120.133 216.991 120.07 216.865 119.944C216.739 119.818 216.676 119.666 216.676 119.486V101.919C216.676 101.721 216.739 101.56 216.865 101.434C216.991 101.308 217.144 101.245 217.324 101.245H224.555C225.958 101.245 227.182 101.47 228.225 101.919C229.268 102.351 230.078 103.017 230.653 103.916C231.229 104.798 231.517 105.904 231.517 107.235C231.517 108.584 231.229 109.7 230.653 110.581C230.078 111.445 229.268 112.092 228.225 112.524C227.182 112.956 225.958 113.172 224.555 113.172H220.535V119.486C220.535 119.666 220.472 119.818 220.346 119.944C220.238 120.07 220.085 120.133 219.887 120.133H217.324ZM220.481 110.176H224.42C225.464 110.176 226.264 109.934 226.822 109.448C227.379 108.944 227.658 108.207 227.658 107.235C227.658 106.336 227.397 105.616 226.876 105.076C226.354 104.519 225.536 104.24 224.42 104.24H220.481V110.176ZM242.278 120.133C242.099 120.133 241.946 120.07 241.82 119.944C241.694 119.818 241.631 119.666 241.631 119.486V104.564H236.639C236.459 104.564 236.306 104.501 236.18 104.375C236.054 104.249 235.991 104.096 235.991 103.916V101.919C235.991 101.721 236.054 101.56 236.18 101.434C236.306 101.308 236.459 101.245 236.639 101.245H250.401C250.598 101.245 250.76 101.308 250.886 101.434C251.012 101.56 251.075 101.721 251.075 101.919V103.916C251.075 104.096 251.012 104.249 250.886 104.375C250.76 104.501 250.598 104.564 250.401 104.564H245.436V119.486C245.436 119.666 245.373 119.818 245.247 119.944C245.121 120.07 244.959 120.133 244.761 120.133H242.278ZM259.785 120.403C258.184 120.403 256.808 120.142 255.656 119.621C254.505 119.081 253.605 118.262 252.958 117.165C252.31 116.05 251.959 114.665 251.905 113.01C251.888 112.236 251.879 111.472 251.879 110.716C251.879 109.96 251.888 109.187 251.905 108.395C251.959 106.758 252.319 105.391 252.985 104.294C253.65 103.197 254.559 102.369 255.71 101.811C256.879 101.254 258.238 100.975 259.785 100.975C261.332 100.975 262.69 101.254 263.859 101.811C265.029 102.369 265.946 103.197 266.612 104.294C267.277 105.391 267.637 106.758 267.691 108.395C267.727 109.187 267.745 109.96 267.745 110.716C267.745 111.472 267.727 112.236 267.691 113.01C267.637 114.665 267.286 116.05 266.639 117.165C265.991 118.262 265.082 119.081 263.913 119.621C262.762 120.142 261.386 120.403 259.785 120.403ZM259.785 117.3C260.954 117.3 261.907 116.958 262.645 116.275C263.383 115.573 263.778 114.44 263.832 112.875C263.868 112.083 263.886 111.355 263.886 110.689C263.886 110.005 263.868 109.277 263.832 108.503C263.796 107.46 263.598 106.615 263.239 105.967C262.897 105.301 262.429 104.825 261.835 104.537C261.242 104.231 260.558 104.078 259.785 104.078C259.029 104.078 258.355 104.231 257.761 104.537C257.167 104.825 256.691 105.301 256.331 105.967C255.989 106.615 255.8 107.46 255.764 108.503C255.746 109.277 255.737 110.005 255.737 110.689C255.737 111.355 255.746 112.083 255.764 112.875C255.818 114.44 256.214 115.573 256.951 116.275C257.689 116.958 258.633 117.3 259.785 117.3ZM275.323 120.133C275.143 120.133 274.99 120.07 274.864 119.944C274.738 119.818 274.675 119.666 274.675 119.486V118.11C274.675 117.948 274.711 117.759 274.783 117.543C274.873 117.309 275.062 117.075 275.35 116.841L279.613 112.605C280.8 111.669 281.754 110.878 282.473 110.23C283.211 109.565 283.742 108.962 284.065 108.422C284.407 107.865 284.578 107.316 284.578 106.776C284.578 105.967 284.353 105.31 283.903 104.807C283.472 104.303 282.779 104.051 281.826 104.051C281.196 104.051 280.665 104.186 280.234 104.456C279.802 104.708 279.46 105.049 279.208 105.481C278.974 105.913 278.812 106.39 278.723 106.911C278.687 107.145 278.588 107.307 278.426 107.397C278.264 107.487 278.102 107.532 277.94 107.532H275.538C275.377 107.532 275.242 107.478 275.134 107.37C275.026 107.262 274.972 107.136 274.972 106.992C274.99 106.219 275.152 105.472 275.458 104.753C275.763 104.015 276.204 103.367 276.78 102.81C277.373 102.234 278.093 101.775 278.938 101.434C279.784 101.092 280.737 100.921 281.799 100.921C283.292 100.921 284.524 101.173 285.495 101.677C286.485 102.18 287.222 102.864 287.708 103.727C288.212 104.591 288.464 105.562 288.464 106.642C288.464 107.487 288.302 108.27 287.978 108.989C287.654 109.691 287.186 110.374 286.575 111.04C285.963 111.687 285.226 112.353 284.362 113.037L280.53 116.922H288.221C288.419 116.922 288.572 116.985 288.679 117.111C288.805 117.219 288.868 117.372 288.868 117.57V119.486C288.868 119.666 288.805 119.818 288.679 119.944C288.572 120.07 288.419 120.133 288.221 120.133H275.323ZM297.48 120.43C295.933 120.43 294.629 120.178 293.567 119.675C292.506 119.153 291.696 118.478 291.139 117.651C290.599 116.823 290.311 115.942 290.275 115.006C290.257 114.845 290.302 114.719 290.41 114.629C290.536 114.521 290.68 114.467 290.842 114.467H293.351C293.549 114.467 293.711 114.512 293.837 114.602C293.981 114.674 294.089 114.809 294.161 115.006C294.341 115.546 294.593 115.987 294.916 116.329C295.258 116.67 295.645 116.922 296.077 117.084C296.527 117.246 296.994 117.327 297.48 117.327C298.128 117.327 298.712 117.201 299.234 116.949C299.774 116.679 300.205 116.284 300.529 115.762C300.853 115.24 301.015 114.602 301.015 113.846C301.015 113.181 300.862 112.605 300.556 112.119C300.25 111.633 299.828 111.256 299.288 110.986C298.766 110.698 298.164 110.554 297.48 110.554C296.976 110.554 296.562 110.617 296.239 110.743C295.915 110.869 295.636 111.013 295.402 111.175C295.186 111.337 294.988 111.481 294.809 111.606C294.647 111.732 294.458 111.795 294.242 111.795H291.759C291.598 111.795 291.454 111.741 291.328 111.633C291.22 111.508 291.166 111.364 291.166 111.202L292.11 101.973C292.128 101.739 292.209 101.56 292.353 101.434C292.497 101.308 292.668 101.245 292.866 101.245H303.012C303.191 101.245 303.344 101.308 303.47 101.434C303.596 101.56 303.659 101.713 303.659 101.892V103.7C303.659 103.88 303.596 104.033 303.47 104.159C303.344 104.285 303.191 104.348 303.012 104.348H295.213L294.782 108.746C295.105 108.53 295.537 108.323 296.077 108.126C296.616 107.928 297.363 107.829 298.316 107.829C299.18 107.829 299.998 107.973 300.772 108.261C301.563 108.53 302.265 108.935 302.877 109.475C303.488 109.996 303.965 110.635 304.307 111.391C304.667 112.128 304.846 112.974 304.846 113.927C304.846 115.24 304.541 116.383 303.929 117.354C303.317 118.325 302.463 119.081 301.366 119.621C300.268 120.16 298.973 120.43 297.48 120.43ZM307.98 120.133C307.602 120.133 307.413 119.953 307.413 119.594C307.413 119.486 307.449 119.387 307.521 119.297L320.824 101.757C320.95 101.596 321.076 101.47 321.202 101.38C321.328 101.29 321.507 101.245 321.741 101.245H323.171C323.549 101.245 323.738 101.425 323.738 101.784C323.738 101.892 323.702 101.991 323.63 102.081L310.327 119.621C310.201 119.783 310.075 119.908 309.95 119.998C309.842 120.088 309.662 120.133 309.41 120.133H307.98ZM320.959 120.295C319.754 120.295 318.8 119.962 318.099 119.297C317.397 118.631 317.01 117.759 316.938 116.679C316.92 116.212 316.911 115.807 316.911 115.465C316.911 115.123 316.92 114.701 316.938 114.197C317.01 113.118 317.379 112.245 318.045 111.58C318.728 110.914 319.7 110.581 320.959 110.581C322.236 110.581 323.207 110.914 323.873 111.58C324.557 112.245 324.925 113.118 324.979 114.197C325.015 114.701 325.033 115.123 325.033 115.465C325.033 115.807 325.015 116.212 324.979 116.679C324.925 117.759 324.539 118.631 323.819 119.297C323.118 119.962 322.164 120.295 320.959 120.295ZM320.959 118.19C321.355 118.19 321.66 118.11 321.876 117.948C322.11 117.786 322.281 117.579 322.389 117.327C322.497 117.075 322.551 116.823 322.551 116.571C322.587 116.122 322.605 115.744 322.605 115.438C322.605 115.114 322.587 114.746 322.551 114.332C322.533 113.918 322.407 113.54 322.173 113.199C321.939 112.839 321.534 112.659 320.959 112.659C320.401 112.659 320.005 112.839 319.772 113.199C319.538 113.54 319.403 113.918 319.367 114.332C319.349 114.746 319.34 115.114 319.34 115.438C319.34 115.744 319.349 116.122 319.367 116.571C319.403 116.823 319.466 117.075 319.556 117.327C319.664 117.579 319.826 117.786 320.041 117.948C320.275 118.11 320.581 118.19 320.959 118.19ZM310.192 110.743C308.987 110.743 308.034 110.428 307.332 109.799C306.631 109.169 306.244 108.314 306.172 107.235C306.154 106.767 306.145 106.363 306.145 106.021C306.145 105.661 306.154 105.229 306.172 104.726C306.244 103.646 306.613 102.774 307.278 102.108C307.962 101.443 308.933 101.11 310.192 101.11C311.47 101.11 312.441 101.443 313.107 102.108C313.79 102.774 314.159 103.646 314.213 104.726C314.249 105.229 314.267 105.661 314.267 106.021C314.267 106.363 314.249 106.767 314.213 107.235C314.159 108.314 313.772 109.169 313.053 109.799C312.351 110.428 311.398 110.743 310.192 110.743ZM310.192 108.746C310.588 108.746 310.894 108.665 311.11 108.503C311.344 108.341 311.515 108.135 311.622 107.883C311.73 107.631 311.784 107.37 311.784 107.1C311.82 106.651 311.838 106.273 311.838 105.967C311.838 105.643 311.82 105.274 311.784 104.861C311.766 104.447 311.64 104.069 311.407 103.727C311.173 103.385 310.768 103.215 310.192 103.215C309.635 103.215 309.239 103.385 309.005 103.727C308.771 104.069 308.645 104.447 308.627 104.861C308.609 105.274 308.6 105.643 308.6 105.967C308.6 106.273 308.609 106.651 308.627 107.1C308.645 107.37 308.699 107.631 308.789 107.883C308.897 108.135 309.059 108.341 309.275 108.503C309.509 108.665 309.815 108.746 310.192 108.746ZM339.812 120.403C338.211 120.403 336.835 120.142 335.684 119.621C334.532 119.081 333.633 118.262 332.985 117.165C332.338 116.05 331.987 114.665 331.933 113.01C331.915 112.236 331.906 111.472 331.906 110.716C331.906 109.96 331.915 109.187 331.933 108.395C331.987 106.758 332.347 105.391 333.012 104.294C333.678 103.197 334.586 102.369 335.738 101.811C336.907 101.254 338.265 100.975 339.812 100.975C341.359 100.975 342.717 101.254 343.887 101.811C345.056 102.369 345.973 103.197 346.639 104.294C347.305 105.391 347.664 106.758 347.718 108.395C347.754 109.187 347.772 109.96 347.772 110.716C347.772 111.472 347.754 112.236 347.718 113.01C347.664 114.665 347.314 116.05 346.666 117.165C346.018 118.262 345.11 119.081 343.941 119.621C342.789 120.142 341.413 120.403 339.812 120.403ZM339.812 117.3C340.981 117.3 341.935 116.958 342.672 116.275C343.41 115.573 343.806 114.44 343.86 112.875C343.896 112.083 343.914 111.355 343.914 110.689C343.914 110.005 343.896 109.277 343.86 108.503C343.824 107.46 343.626 106.615 343.266 105.967C342.924 105.301 342.457 104.825 341.863 104.537C341.269 104.231 340.586 104.078 339.812 104.078C339.057 104.078 338.382 104.231 337.788 104.537C337.195 104.825 336.718 105.301 336.358 105.967C336.016 106.615 335.828 107.46 335.792 108.503C335.774 109.277 335.765 110.005 335.765 110.689C335.765 111.355 335.774 112.083 335.792 112.875C335.846 114.44 336.241 115.573 336.979 116.275C337.716 116.958 338.661 117.3 339.812 117.3ZM351.019 120.133C350.839 120.133 350.686 120.07 350.56 119.944C350.434 119.818 350.371 119.666 350.371 119.486V101.919C350.371 101.721 350.434 101.56 350.56 101.434C350.686 101.308 350.839 101.245 351.019 101.245H362.73C362.928 101.245 363.089 101.308 363.215 101.434C363.341 101.56 363.404 101.721 363.404 101.919V103.808C363.404 104.006 363.341 104.168 363.215 104.294C363.089 104.402 362.928 104.456 362.73 104.456H354.068V109.583H362.19C362.388 109.583 362.55 109.646 362.676 109.772C362.802 109.898 362.865 110.059 362.865 110.257V112.146C362.865 112.326 362.802 112.479 362.676 112.605C362.55 112.731 362.388 112.794 362.19 112.794H354.068V119.486C354.068 119.666 354.005 119.818 353.879 119.944C353.753 120.07 353.591 120.133 353.393 120.133H351.019ZM366.28 120.133C366.1 120.133 365.947 120.07 365.822 119.944C365.696 119.818 365.633 119.666 365.633 119.486V101.919C365.633 101.721 365.696 101.56 365.822 101.434C365.947 101.308 366.1 101.245 366.28 101.245H377.991C378.189 101.245 378.351 101.308 378.477 101.434C378.603 101.56 378.666 101.721 378.666 101.919V103.808C378.666 104.006 378.603 104.168 378.477 104.294C378.351 104.402 378.189 104.456 377.991 104.456H369.329V109.583H377.451C377.649 109.583 377.811 109.646 377.937 109.772C378.063 109.898 378.126 110.059 378.126 110.257V112.146C378.126 112.326 378.063 112.479 377.937 112.605C377.811 112.731 377.649 112.794 377.451 112.794H369.329V119.486C369.329 119.666 369.266 119.818 369.141 119.944C369.015 120.07 368.853 120.133 368.655 120.133H366.28Z" fill="#FFECDD"/>
</g>
<defs>
<clipPath id="clip0_166_486">
<rect width="484.033" height="158.737" fill="white" transform="translate(0.984375)"/>
</clipPath>
</defs>
</svg>
