<svg width="20" height="20" viewBox="0 0 20 20" fill="none" xmlns="http://www.w3.org/2000/svg">
<path d="M9.08076 9.08076C8.57308 9.58844 8.57308 10.4116 9.08076 10.9192L17.3539 19.1924C17.8616 19.7001 18.6847 19.7001 19.1924 19.1924C19.7001 18.6847 19.7001 17.8616 19.1924 17.3539L11.8385 10L19.1924 2.64609C19.7001 2.13841 19.7001 1.31529 19.1924 0.807612C18.6847 0.299931 17.8616 0.299931 17.3539 0.807612L9.08076 9.08076ZM11 8.7H10V11.3H11V8.7Z" fill="#101010"/>
<path d="M10.9192 10.9192C11.4269 10.4116 11.4269 9.58844 10.9192 9.08076L2.64609 0.807612C2.13841 0.299931 1.31529 0.299931 0.807612 0.807612C0.299931 1.31529 0.299931 2.13841 0.807612 2.64609L8.16152 10L0.807612 17.3539C0.299931 17.8616 0.299931 18.6847 0.807612 19.1924C1.31529 19.7001 2.13841 19.7001 2.64609 19.1924L10.9192 10.9192ZM9 11.3H10V8.7H9V11.3Z" fill="#101010"/>
</svg>
