<svg width="22" height="22" viewBox="0 0 22 22" fill="none" xmlns="http://www.w3.org/2000/svg">
<path fill-rule="evenodd" clip-rule="evenodd" d="M10.2055 0.0564094C9.58985 0.142175 9.09833 0.297679 8.52216 0.589007C6.61117 1.55533 5.48676 3.70184 5.70788 5.96156C5.83962 7.30782 6.28164 8.36945 7.13234 9.38287C7.61625 9.95934 8.35914 10.5068 9.05012 10.796C11.3509 11.7591 13.8731 10.9494 15.3277 8.78057C16.474 7.07136 16.6398 4.7165 15.7417 2.89957C14.7257 0.844199 12.5548 -0.270712 10.2055 0.0564094ZM11.9796 1.73726C12.9569 1.98145 13.8355 2.68876 14.2829 3.59136C14.5985 4.22795 14.7064 4.71354 14.701 5.47198C14.6925 6.65762 14.2673 7.72603 13.4939 8.50467C13.1316 8.86943 12.9079 9.03271 12.4769 9.24704C11.5565 9.7047 10.4444 9.7047 9.52406 9.24704C9.093 9.03271 8.86935 8.86943 8.50708 8.50467C6.88351 6.87005 6.88922 3.94895 8.51885 2.50782C9.42429 1.7071 10.7117 1.42045 11.9796 1.73726ZM10.1411 12.4152C6.86039 12.5519 4.26546 13.5715 2.71962 15.3312C1.52999 16.6855 0.889667 18.3955 0.778421 20.5153C0.727803 21.4802 0.803772 21.7178 1.22508 21.9123C1.39055 21.9886 1.7545 21.9916 11.0005 21.9916C20.2464 21.9916 20.6104 21.9886 20.7759 21.9123C21.1972 21.7178 21.2731 21.4802 21.2225 20.5153C20.9744 15.7876 18.0262 12.981 12.7837 12.4819C11.9166 12.3994 11.0481 12.3774 10.1411 12.4152ZM12.3755 14.0457C15.4399 14.319 17.4149 15.2761 18.572 17.0485C19.096 17.8513 19.4883 19.0246 19.5752 20.0491L19.6053 20.4036H11.0005H2.39564L2.42571 20.0491C2.44226 19.8541 2.50147 19.4819 2.55733 19.222C2.98521 17.2303 4.07889 15.8204 5.85969 14.9648C6.8527 14.4877 7.93603 14.2133 9.41063 14.0653C10.0812 13.998 11.7194 13.9871 12.3755 14.0457Z" fill="black"/>
</svg>
